<mxfile host="65bd71144e">
    <diagram id="DTf1b0cppQTfSyaAqfne" name="Page-1">
        <mxGraphModel dx="1227" dy="1044" grid="1" gridSize="10" guides="1" tooltips="1" connect="1" arrows="1" fold="1" page="1" pageScale="1" pageWidth="850" pageHeight="1100" math="0" shadow="0">
            <root>
                <mxCell id="0"/>
                <mxCell id="1" parent="0"/>
                <mxCell id="2" value="" style="rounded=0;whiteSpace=wrap;html=1;hachureGap=4;fontFamily=Architects Daughter;fontSource=https%3A%2F%2Ffonts.googleapis.com%2Fcss%3Ffamily%3DArchitects%2BDaughter;fontSize=20;fillColor=none;strokeWidth=4;strokeColor=#1e63ed;" vertex="1" parent="1">
                    <mxGeometry x="20" y="170" width="1360" height="770" as="geometry"/>
                </mxCell>
                <mxCell id="3" value="" style="rounded=0;whiteSpace=wrap;html=1;fillColor=#f8cecc;strokeColor=#b85450;" vertex="1" parent="1">
                    <mxGeometry x="50" y="310" width="230" height="590" as="geometry"/>
                </mxCell>
                <mxCell id="4" style="edgeStyle=orthogonalEdgeStyle;rounded=0;orthogonalLoop=1;jettySize=auto;html=1;strokeWidth=3;dashed=1;dashPattern=1 1;" edge="1" parent="1" source="5" target="12">
                    <mxGeometry relative="1" as="geometry"/>
                </mxCell>
                <mxCell id="5" value="" style="shape=image;verticalLabelPosition=bottom;labelBackgroundColor=default;verticalAlign=top;aspect=fixed;imageAspect=0;image=data:image/png,iVBORw0KGgoAAAANSUhEUgAAATYAAACjCAMAAAA3vsLfAAAAe1BMVEX///8AAACTk5Ofn58qKirk5OTQ0NBaWlq8vLwwMDD39/f6+vqOjo7y8vLr6+uvr69xcXHe3t57e3seHh5GRkY2NjaamppTU1PHx8fX19e/v7+pqaloaGhycnKIiIjNzc09PT0NDQ1LS0sWFhY8PDxiYmIsLCyAgIAkJCQNg38iAAAJZklEQVR4nO1daXeqMBCV+nABEbV1q0tL29f2///Cp6gzk2SCJKXAO8z90tOwxctkMltCrycQCAQCgUAgEAgEAoFAIBAIBAKBgCCJwslDnCRN9+N/wny1Dq44jKZN9+Y/wfZvoODYdIf+CzwEOr43Tfep/XgyWDuh33Sv2o41x1oQrJruV7thYU3krRBvNtaCYNB039qLFztrQRY13bvW4lXhaTaTYVoGVNiOZwchSSlvTXevrSC2x+jWthdxu4NpBgzNsRVH6qS5rrUZcyBIsdJQBpvqWLux4PnZQLM49Rz2rLD1kndD4QkIQIs9qO1Loa0IQpsXgDbNbxfaCgG67U1pHsiUUIgR8KO47ZYJVnDFFvj5iLEVPa43+6WdxgcwNAbekEtxriwgWYTxc94S97GJG6PJaHLGcdPlxGBMOAqeZv3D7J00/DXOfyZ+/rDf3XjcJCjAVjt5M1aPP3Z3ELNpK1azRX/MU56a6XTzGJhc8JREj+xZXU042Hj7jpXTYp61IHhpqN9NY8uyobHGjdArujoxcLx9aWRYs6kd1m+9ncbEqz7yeIns+DDt9cIdUV1vZt3MkLD0vjgcFpS2ZQMdbgvi3pW4Y2wepMK2u5z+LOJ2wZU2LltFfDDMcKE/+1pXF9uIAtqQtS3b2uWwnJ02jCQpB1csmV2DnTaIZmZq2IMZuTXhJU3TXTsMxhK0aXMmVPzuLbdcPVxRZT/Dm6bNVcPL5PKESVjlMxzgThuM0lnxLasMrocYupoqfWjKOf4F2sAjq6yTmP240gZR1YZom14fvzYP2WiDH2AbpJXTNg0IGqct2nzR/uh6wpLgwsIb25RQOW2fLaItMdclLJW8cgTtB9qM7r3NAKmatmelk83S1g847KnEYTNxV7Hu0uqUVk3bATtyPH4lSu/rpS1eBhakt1OmNC0DkXJSrWqtHqyaNnxRYLM1Q1tsDz8GX/kZU7UMOlhvT11ONrRW2urK/xptqEwboW1ulbUbb6nZ/L3fK//b45QV0wY6lmiFRmjLilg78ZbaMggU9g5XTBvM6GNsa4C26FNnwAcFddFutMXTVb+/mjLxvitgIvWmLe5tz8/o2Z9RAgedAR+YqXsER1sIUKy97QLsmfUqVM7MDY3o9Bdi95/Tc3v+21na8BnUHkg2GJTep/nV09tpDqUZWNl8xXCxGOttV2Sh5ciw6AkMbWgDUjFNtRTP+jxT3v7J655Uky2H1W4jIXu0P3XrdHy2FCAY4bCUQJ1Evzbnrsaxno7JcXpEvOAOFJdymbRFaMygmM6H5o1TpG3oSBv5BWhmvphaehhaq3ALQL3i4J0Erwz7d29054Y7i04N2hK8FCvD+AR36ksbSXyAZcS/8yCE5vK0UdtjooxtdfSuQT8kWqHN/l54UqcNK/eDT2DNtsgQTB832ghrKGu2uQ+sz9K0zcnV+shWeKMHkgn4/MP+/cCgThve9Psuawgn2ghrEJeJPsyLNZSmjYjtuxFeprxp+ZUo3q5Wo3JTuEbbEVmDJ9pLd7xoI8KAETDe6/ajjVj6TACDLGp+LntHEyptyBrqNa1QbLxcLt8DDTltYToawQ2+n0ejURoplFxow6vIjKPe7uP0DG/aiHLOmMNE3HY+hF2g0IaK8Q+yRq2C5SL/6clG25UEbJz75i5OycScpO/haZOfN0g1e8qDNnY6RHF7LXlHBpQ2lLU/qBOIFRfMkMyBIoNA213namheo3rVJO41UuwvD9rY+RDtzx9UFBHaiG4iyhJTrVrtJt35oDRt2Gca2ccbPSnaKKGWXFnaSFSePY5GWiW0hfg4GjhGdnRVQCzgsrQha9ThI5pNC3DRmr2ytOGY4WnDGa4C2jLykihrSKYZIMbfVI62OapjJSOE06ixgIzYPu2UNtTKKT2Os4SZYUeVVI42kkRSDEqYNZmsJBph7dRtljcOP/WLudiRNsvvwYg+s1oRSWjnTHpDqh4HT5oLq4O8O9KmSgEqG66D8CvbabddsVAP4xocrtIL5l432rQ3A7RxAu0RAanVS+CfBLTxQTs/2jSdArSxK3bg6t/3SXs7d5/0hkcl0gK08cUQfrRpvAFtrCoCx7+VEZAMXBklhA60MXUnPVfacCZVhkextMGQ84u3qZtRqvG22c/jbY8YEqVvCHUb9wbgmpLmLuZzabeANk2vXgDZFM/o7viXo7toz9AxD1FCLgPiOJNu0RKlS7GLZ1LwfR0KF+vMJZDcIuENBhYnCnBBWecKfQ6iK9HzZCQamXagrdbMFb51QhF68qa47cxH3HPlUb0RRQa6iMlMYsbTpUy21jwpOks4slE+THH7dqeNrMVGnYP0G24CkRsX2urNymOxDVhvEXKjL1giBTvl42046LCmHVX4p/aIJMNnuBVlGwFoFZXWgBC/BE4gilSdlWlssTxtZDZD2wDJIZf1tIJWN9pGhfJWccURjgkgghqPD2QyV9SHA23EiO8bVwXBkph0g8yftnrr25BtcBxp2uC9fxm94Ux9mS60RThzwcxJ7za7ErfRCgFcV07UWk2Jl4AqU5+ZcR1xoY3KlnFZAdwXnNRYuzs3Lylc4HuBE22kW2C9aeOFg8c6nRorxdFQ+7g1KaX9FdBGugU/omAra3/a6lyXgCoRwnh8Vcvpl3jSxuVcLNUMmY9zpaKeVTBky1oQUZ63tWMEBN8olz3id4lJPCqOdNSz5gqtkEdwTjmdPXMNHJGBwG0czGlwr/o2HTWt8EOTDN2yKUk/Xh50thNu/4D8Qz++mT4Q2ohhjSHyUCuRCGYJMYn8N2auaT1pMrk10iBfNCIW7uyiy4/X80ALbm+XkngVu550Ds+gwck5nfqOuXGd3q72/4hL46uX52mOX11Bvskfsatwcb+slfeC7MzgBdkHxAOy64wHlD2ODrLHUTnIjloe+OH+ba9N9Ll5/HC3wI4OUdmb0geyE6oXyu+7mzABnq7uSym7PPtA3VN8P5jd21OcCGeH9xSXHey9IN9L8IF8ncML8i0YL8iXh7wg37nygnxVzQtCmxfki5FekO+TekG+husFUshChqN8e/ke5EvfXpDvyvuBVi4H2Uwt1xRhs6FoY6ass/G0+ygoa+1omqAcrBlQGaKFsPB2Z6mogE1eiazdhbkuIfMvyuwQtlo58LHL+RUXzFeg4g4jceAdkETh5CFORNAEAoFAIBAIBAKBQCAQCAQCgUAg6Bz+ARyRe/cImXjfAAAAAElFTkSuQmCC;rounded=0;" vertex="1" parent="1">
                    <mxGeometry x="390" y="391.25" width="209.2" height="110" as="geometry"/>
                </mxCell>
                <mxCell id="6" style="edgeStyle=orthogonalEdgeStyle;rounded=0;orthogonalLoop=1;jettySize=auto;html=1;strokeWidth=3;dashed=1;dashPattern=1 1;" edge="1" parent="1" source="7" target="5">
                    <mxGeometry relative="1" as="geometry"/>
                </mxCell>
                <mxCell id="7" value="&lt;font style=&quot;font-size: 19px;&quot;&gt;Scrape&lt;br&gt;DAG&lt;/font&gt;" style="rounded=0;whiteSpace=wrap;html=1;" vertex="1" parent="1">
                    <mxGeometry x="80" y="382.5" width="170" height="127.5" as="geometry"/>
                </mxCell>
                <mxCell id="8" value="" style="shape=image;verticalLabelPosition=bottom;labelBackgroundColor=default;verticalAlign=top;aspect=fixed;imageAspect=0;image=https://connect.aisingapore.org/wp-content/uploads/2022/12/image10.png;" vertex="1" parent="1">
                    <mxGeometry x="672.75" y="632.5" width="229.99" height="115" as="geometry"/>
                </mxCell>
                <mxCell id="9" style="edgeStyle=orthogonalEdgeStyle;rounded=0;orthogonalLoop=1;jettySize=auto;html=1;strokeWidth=3;dashed=1;dashPattern=1 1;" edge="1" parent="1" source="10" target="8">
                    <mxGeometry relative="1" as="geometry"/>
                </mxCell>
                <mxCell id="10" value="" style="shape=image;verticalLabelPosition=bottom;labelBackgroundColor=default;verticalAlign=top;aspect=fixed;imageAspect=0;image=https://logowik.com/content/uploads/images/click-house2603.jpg;" vertex="1" parent="1">
                    <mxGeometry x="400" y="610" width="213.17" height="160" as="geometry"/>
                </mxCell>
                <mxCell id="11" style="edgeStyle=orthogonalEdgeStyle;rounded=0;orthogonalLoop=1;jettySize=auto;html=1;strokeWidth=3;dashed=1;dashPattern=1 1;" edge="1" parent="1" source="12" target="16">
                    <mxGeometry relative="1" as="geometry"/>
                </mxCell>
                <mxCell id="12" value="" style="shape=image;verticalLabelPosition=bottom;labelBackgroundColor=default;verticalAlign=top;aspect=fixed;imageAspect=0;image=data:image/jpeg,/9j/4AAQSkZJRgABAQAAAQABAAD/2wCEAAkGBw8PEhMREg8SEBUREBkSFQ8TEBMQFRQSGRgXFhYRFRMYHSggGB0oHxgWITEhJSkrMC4wFx8zODMsNygtLisBCgoKDg0OGhAQGi0lIB8tKy0tLS0tMS0tLS0tKy0tLS0tLSs1LS0tLS8tKy0tKy0tLSstLS0tLS0tLS03LS0rN//AABEIAKgBLAMBIgACEQEDEQH/xAAcAAEAAgIDAQAAAAAAAAAAAAAABAYDBQIHCAH/xABLEAACAgADAwYKBgUICwAAAAAAAQIDBBESBSExBgdBUXGyEyIyM2Fyc4GRsRQjNEKhwVJTlNHwJFRigpKzwtIWQ1VkZXSTlaLE4f/EABgBAQEBAQEAAAAAAAAAAAAAAAACAQME/8QAJBEBAQACAQMDBQEAAAAAAAAAAAECETEDITISM0EiQkNR8GH/2gAMAwEAAhEDEQA/AO8QAAAAAAAAAAAAAAAAAAAAAAAAAAAAAAAAAAAAAAAAAAAAAAAAAAAAAAAAAAAAAAAARdpYyNFcrJfdW5dLlwUV2s1GwLrK5+Dtlm707U+qzjOtfg12M3TNrCADGgAAAAAAAAAAAAAAAAAAAAAAAAAAAAAAAAAAAAAAAAAAAGl5RbQlBKip/W3bk/0Ifesf5GybZbpFvs+mYhRW+rDy49E7vzUfmc9p4ZyXiPKcJKdb6pLevd0e8l7NwcaK4wiuC/hs+4mPT7htmu3dJ2Vjo4itTW58JR6YzXlRZMKs7nhLfDLzdmSuivuvgrUvwZaISTSaeaazTXSusWNlfQAY0AAAAAAAAAAAAAAAAAAAAAAAAAAAAAAAAAAAAAADjZYopybSSWbb3JJdIEbamPhh65WS6OEemUuiKNNsXBzblfd5yze/6MeiC7DBTKWOuVzTVVbfgovpfTa18jf5JLIrjsmd7t8bMU95zkzHJkqRZwTTi1mmsmutGHYmLeHmsLN+JLfRN9XTU31roJNhEx2FjdBxe58YyXGMlwkiomz9LKDUbA2m7U67N11W6a/SXRYvQzbk2abLsAAaAAAAABHxWNqpy8JZCvVw1SUc8uOWZIKhzgwbjTkm/GnwWfRE3Gbuk5XU2s2F2hTa2q7YWNLNqMlLJde4klG5AQattzTX1S4pr7yLyblNUxu5t8bS47jS3cr9mQbjLaGFi1uaeIrzX4nXPPfymsU4bPrm4xdasuy3a9TajW31bm2unNFE5L8i8dtKM5YeENFb0udk9EdWWelbm28sviVMO2655dW+rUj0js7aeHxMPCUXV3QTcddc1OOpcVmunejWS5abKWee0cIsuOeIr3fia/m25PX7NwUqL9Gt3Ts8STktLUUt7S37med8bhbNVn1c/Kl9yXW/QMcJbW5dS4ydnrSElJJp5prNNdK6zkR9near9nHuokHN1AAAAAAAAAAAAAAAACr7cxTxVv0WDeiGTukul9Fa/j5G32/tFYaidnSllFdc3uX7/ca7kvgPB1qUt85+PJvi5Pr/AI6yp27pve6bPDUKuKillkssl0egyJZnNnyvgSp88Egq49RzAHzSuo1d8dLa+HYbUhbShuUvcINLtGucWsRVusq35fpw6YMsuz8ZG+uNkeE1n2PpT7DSZmDk9iPo+Inhnuhb9ZV6Jfeh/HUVzEcVawAStF2ljoYet2zz0xyzyWb3vIh7K2/RiZSjDUtMdTckorLhxzMPLL7JZ2x7yOvcNdYtUIZ/WpQaXFrPyfe8jpjjLHLPO45aXnH8ssPW3GEZXZfeXix9zfH4HDB8taJPKyuVWf3vLS7ct/4EbZ/ImOlO6yWpryYZJL0ZtPM0nKTYn0OccpOUJpuLfFNcU/ijZMb2Zcs53dlVWRklKLUk1mmnmmutMgbX2xVhNLs1eO2lpWfDLP5mi5v8W3CypvNQalH0KWea+K/E484fk0etP5RI9P1aVc/p3G72Tt6nFSlGtTzjHU9Uct2eXWRuVfKvDbLjXPEKzK2TjHRDW80s9+9Gi5vvO2+yXeRJ5yuSF21q6YVW11OqxzbmpPNOOWSyNsky0TK3Hc5dMc4e3KdoY2eIp1aJVwitcdMs4rJ7i182fL7BbNwkqL1bqd8rFor1LS4wXHNb/FZU+WnJC7ZM6oW212u6MpJwUllpaW/V2mbkXyIv2tG2VV1dXgZRi1YpPPUm92leg630+n/Hmlymfbl39yc2/RtChYinVocpR8eOl5xeT3FUs539lxbTWI8VtP6ldH9Y3nITk9Zs3BrDWThZJTnPVDNLKTzS37zzTjfKs9aXzZzxxltds88sZHrimxTjGS4SipLsazOZG2d5qv2Ue6iSc3cAAAAAAAAAAAAAAABT+V1vhcTh8NxS+tmvkvgn/aLNVDSkupFOw0/C7Vvb/wBWlBejLSvyfxLoVl8RGPfdcLXuPsOC7DHinu95ljwJW+gBgDBjY5wl2Z/A5yvguM4r+sjFZi6mmta3rIDT6jV7e1RhG6Hl0TVifoz3r5fAnajDi1qhOL6YNfgXHO94tuCxMba4WR4TipL3rMzlb5vsQ54KGbz0SlD3Z5pfBlkJs1V43c20fLL7JZ2x7yKVyZgpYqlP9PP4Jv8AIuvLL7JZ2x7yKZyV+10+s+5I6Y+Ncc/OOzyoc4fk0+vL5It5UOcPyKfXl8kRh5OnU8Ubm985d6kfmyRzh+TR60/lEj83vnLvUj82SOcPyaPWn8ol/e5z20Tm+87b7Jd5F7KJzfedt9ku8i9k58r6fi6W5/vPYT2VneiT+YDzeM9pX3ZEDn+89hPZWd6JP5gPN4z2lfdkX+Nynu/36dsT4PsPI2N8qz1pfNnrmfB9h5GxvlWetL5szpfLev8AD1ls3zVfso91EkjbN81X7KPdRJOT0QAAAAAAAAAAAAAAAB15sOzTtPFp/rf8X/0vh1ztP+T7Yn0K+Cku1xX+KDLp9Mc4prdu39vSXlOHPC8xIxs1llnvz4GGW0Mluj0cW/yIdkyPOZkitpNuPsf3suzcQ7LW+Lb7XmY5zIksbV+th/bj+8qRO3LadrVVjTyark01uyeT3mSvZ+HUa84YicpUwnKSxc4rOUc+Go1u1MZW6bUrIP6qW7XHqfpJeIxOl1r/AHSl/wDizdJ2zvBYf9RiP22X+Yw3U4bKnRRibHdGyWn6bKOlVyjCSbct++XQY/pnpI9d+VeCfXVi/wC/rGqbjd7Fx6wkY1QwU6653RTbxELMpTlGGrLPNrei3FBwN3hb6K+Oq5SfZWnZn8Ype8vxGUXhWj5ZfZLO2PeRTOSv2un1n3JFz5ZfZLO2PeRTOSv2un1n3JF4+Nc8/OOzyoc4fkU+vL5It5UOcPyKfXl8kRh5OnU8ajc3vnLvUj82SOcPyaPWn8okfm985d6kfmyRzh+TR60/lEv73Oe2ic33nbfZLvIvZROb7ztvsl3kXsnPlfT8XS3P957Ceys70SfzAebxntK+7Igc/wB57Ceys70SfzAebxntK+7Iv8blPd/v07YnwfYeRsb5VnrS+bPXM+D7DyNjfKs9aXzZnS+W9f4estm+ar9lHuokkbZ3mq/ZR7qJJyeiAAAAAAAAAAAAAAAAOv8AnXwElCnG1rxsPNRk/wCi2nFv0KW7+sZNk7UjZCNkX4tizy6n0r3cC643CwurnVZHVCyLjKPWmsmdNpWbGxMsLe26bHqqufDL9L5Jroe/pOmPeacc/pu1+nYRp2EOvE7uOaf8Zo+ytN0bZLLDX7AwGEeFwrlhMPZO6FspWWQzb0WaVw7fwM07CBsu/ThtnemnE/30DU/LcvZWF/mWC/6Uv3mK7Cwu8NiLcTHCxpshhcoVa4bowcMk9+/wmWXoMX0z0mKc9WBxL/4pV/65mq3ccvo2C/2o/wBll+42GD2ThMVGiinHTc8NXZvVWTlGycZSk1Jbsmlw6zRm65Gfan/y8+/WbeNsxu7rTebD5MRwtrud07ZeDcI6oxioptOTWXS9K+BYDr3H7axnhrY13zWV8q4VqNXFTcIxWcW+JfMFCca4RnPXNQSlPJLVLLe8lw3nPKX5dcbOI4bRwUMRB1zz0yyzyeT3PPia7A8mMNTONkFPVB5rOea4NcPeboGbqtTkIG1tkVYpRVmrxG2tMtPEngxtm2t2VsSnCuTr1ZyST1Sz3I5bW2RVilFWavEba0y08cs/kbAG7vLNTWms2VsKjCycq9Wco6XnLPdnmbMAzeyTSu8qeRmD2nKueIVjdUXGOixw3NpvPr4Iy8luSmF2YrI4dTStactc3PfFNLLPhxN6Dd3g9M3t8aKHZzSbJk23G/xm2/r30+4voEtnBcZeXCmtQiorhFKK7EskcwDGgAAAAAAAAAAAAAAABquUnJ/D7QpdN0c1xjNbpQl+lF/lwZtQGWbdIbRwG0tiNqyDxWFT8W6Kfir08XDse7qZIwPKnCXLdaoN/ds8T8XufxO5ms9z3+gq22ObzZWKblLCquT3udLdLz62o7n70dJnPlyvTs4VNYqElmpxa61JMwbLsw88FgK7aLbZKm+cZ14meH0x8NplF6eOe74Gwv5l8A34uJxMfQ/BS/HSNqbFjgJYXD1+FtjVhbIqfg5TbcrVPJ6Fx/cVuXhPpyneo/0bB/zXE/8Acrjb4LZkcTgLasJU65LGxlKN2InbqlB1Sk/CNN+Skksugg04LE2eRhb5dtfgvxs0lw5I7Mtw1U1aoqVl0rNMZatKajFJvLj4vR1mZXTcZuqz/oxtD9VT+0P/ACG45LbBxFFsrrvBx+rdcYQk5t5uMnJyaWXkpZZdZX79s4x22pYq5fym2EK4RrbyjbOMYxjobe5ItPJrBY5N24nE2STjlHDtV7v6c5Rit/oTyXp6Myt03GTfZH2FsKaxF2ItjpSvsdUHvb1Slnc+rc8kvS31FpAIt26yaAAY0AAAAAAAAAAAAAAAAAAAAAAAAAAAAAAAAAAAAAAAAAAETCbNopcpV1QhKyTlKSitUpSbk23x4tv3ksAAAAAAAAAAAAAAAAAAAAAAAAAAAAAAAAAAAAAAAAAAAAAAAAAAAAAAAAAAAAAAAAAAAAAAAAAAAAAAAAAD/9k=;rounded=0;" vertex="1" parent="1">
                    <mxGeometry x="672.75" y="386.25" width="214.29" height="120" as="geometry"/>
                </mxCell>
                <mxCell id="13" value="" style="shape=image;verticalLabelPosition=bottom;labelBackgroundColor=default;verticalAlign=top;aspect=fixed;imageAspect=0;image=data:image/png,iVBORw0KGgoAAAANSUhEUgAAAXwAAACFCAMAAABv07OdAAAAqFBMVEX///8hKi1rh5GwwcaNpKp8lZ4OGx/T1dUAFBligIsAChEVICSztbYeJypucnQHFxykpqeRlJW5u7zw8/QmMDPJ09ZigYsAAADf4ODm6+z3+PkAEBUaJCeLj48ADBJmamyDh4iarLNzjZdWW16Opat3enwAAAjDztKktLozOz6Fm6PX3uDFx8fR2dxZeoXh5uibnp9KUFJdYmQwODtBSEqnuL25xcpOc39vhdIHAAATfUlEQVR4nO2dCXuqOhPHkSouSNWiqIBrK7W42+r7/b/ZmwSEmRA25Z7qOf7v89zTYgzJj2FmskAl6QqZq5l+zfeeuln6+cN1P3+7Ff+kdie3TPXb7fj3ZG5mHvqyuxIX+MMN+nekn8uhlqISu5dnLPhPdPE3Fw0FRV5envSLl9mbYfTl8kukEGX/pF+0hmeePPX6vH/32D/pF6rVSYCeqIeLXdg/6Rcm87MsRl8uf6CCIfsn/WI0fIkBH8k2Ifsn/QK0igRZLJBtYvZP+jdK//xIRk9MP8g2efZP+rdoeEoBz3TJNqPsn/Rv0EcW9uWyl22K2D/pX69eNvgs2xSzf9K/Xtngz6R49k/66dr0NiLNMsF3dwnsn/RTNa8LNf/IRP80TGD/pJ+miixWWp7p+51E9k/6KYqDn8n009jfSN8kKqqfd6k4+HIh7OPpv7j+QrDuMn1s2OFP8uPZK6GX5e1WXhL8putWyD8b1yUR/uT68isiR90NK/PBflmGRcqSXnHLd3z9YuFXUk0/C/tY+pW6bLCpOd2QZRJk5DobspXJDxVWQJcNue79ZsryliDs1Q3yy4wcMwyjbvhQP8nvLi1DPyRFykERQ5b0rTx/RPippp+NfQx9vU5PQblQ+C9nl5DWGWYCmn2DEHSHPXJhNgF8Q6bwyf9ns9nHzK+pRy+eTstU2C8fsAg5zWPCd5NNPyt7Mf1eXS7L9Z3kwWftMIgX2rHDbOxG7gzy8Uw2Tjz8Otq3wuCfOfj1i+t6VPjJITc7eyF9Ytcbw6CIKHzCZ1mvn0gkqNdXRp0atY/tvN1+hG7Hh3+GNVH4ssvD96edHhZ+ot/Jw15En6AyKbMAPjFxAswldwG57BK7B+g/w15vxeCTnzdxlu/Khv6XWX5SyM3HPkp/WCfmXWH27MFfec6d+HlyU1B3tGKkPdFIQEd+su/zXeLQZ5cr0DOMF5dYOvb5rMj5geHHm35e9hH65zox36VRX3nw53OSn8ypbRMP/0k/i8D37YGRlWm2c1nK6REzP5MvY/isyAMH3ATTX+aGz+3yKcvGUNrUCWoG3yBm7ZLrQy7Hhjqcjyh8krVXAvjz+Vw++R9S+DoJFRx8WmT5yPDlWL+Tlz7H3pzL9dWuR50Mg38+f+68xhi9HcEoB/D1z96G9/kGF3CJz5kbszmEbzx8wE3KNvPR53e3EeNmAysSKC+pJpUu+4eJ098ZLOButmSUxaeaUfjnuvyXZTuJ2WYe+pGdhS8G8zQGTen9bIeK3AreYWLbZGxKD5PxazkDfFrJ3wafD7nE8c5OhOZpWXazB93ork5Xrr9sNqsZDZsAPslzlqvN6oW5I2L/Kxoc6ic+zze4VLPu5ah/HXwYct3ZeRUmLeZw9Xkte2nL5hKkFXEWEP6c8SZ5qGyY1JPMzyR0boeR6QVjS/Q/v14P/mf974MvhzZ/jkI0d5+na9hvtgb154S7sdVJpuLPkQ23Brsmklzfbogx1w3y35ZkNSb5h8Kn/p9aPtPWr/hzS0mb5LtzVqSM4G8N+XHheyHXnW1ivm5u8rOXesul57ZPy+XOXC79lH21XHrMzsslPd/nh+vO6K1AiswIwh37/HPp6fJY2Mor/LJcntgv5+D7RPpseXpc+DTkegSI9M35REeOy5deyNTs5WX/1EUp8GW3vGQpuLSjz8GRsW1vtRsOV3CfZsI67pN9opLh17czhp49geieVjG3cFzofbJPlge/MpsbAvbGjOFbLanfPyWsx4o9/5N9inzLr5w/Z7IBLwCdcmErTd6O2Y9dYjWrJ/srdHE79fnLbvXiMv50386sN6PJda/Msk03+gQWpyj9J/tUhT7fqFdoLj8zykPmYD4N2TXqLNt0e2nVkPzxyT63UMAlA5Xy3JitNpvP08flk/lHFvYk036yzytRtlP3lo2CbPOcXg2R/mSfV2l5PlXGqjZ3w77ZCTWq/m5bkpQB/jZjVea9sJcmYyVQv/nLjUlQgfAD0/9t9tKrWgpU+0fgm3fCvhD474dQP8mDnKtVJHxvmuH32RcCv6TagfqDYtt3UaHwdy8vpztgXwj8rhbW0fiP4Mc8mQL1v8yVmXdh948Df9NLVY73qd0H+4eBX6zuZNXo34R/J3rC/0VNamog547hz9xUVdJruTPtF6Fe19fV8SfgF5pq/k16wv9FPeH/op7wf1H3BN9MVObTDdftzr4tKD9YN9udabu9rqZUNli396P2+rYXC5hV/3Rv6ziueeHrpGeddr5BZiHwhTXvqkDeofWPY7UUhZ+nGuzJcatGPmm1LKvx3Ynt63Bkj2kNLct597IYeJKg5wN4NHKZqp2vRni6ce3YRkWG7FsDCL/25lXlt0uP9qz67vXsjWtSFXfFRJ8VAl8MatRvBHJYFe+OzfoyRi2qHhuKXQLSFOcoXn4atZQAie2870idmhOcpL+/lJuAU/OLKc2Do2jwdCW7piyAxba9L6MyNa+qg18FrJ71fuH3zKLwSw74+IBOvoZMDkXAF7OXOkqI0ya/D7qXcSeEby7GiLwndTyNVqgfariQVZXMrxBSq30pGT/CrX5ZgtNpSi34rtSsRQv4V+ndK/EGSlD4+qHl/8bgjxTwHQdf+Vb4idIuAH4Mex7+UAt6DeDvvmBLgawjX7H5pXJlNHuYE37HEaBnVTmLq+GDhjH46zH4Dg4XsGGNAtxOHHse/k/Y7RB+eDdEpLxz9b1HL5N6kHLBX4wjVQSyptfCP4YNY/AlYN7cjQcgaCXzZvix7BF8TVqAFgXwdTXGEFmzF7g6S0Ss/ZMDfqcRfzaC8e0q+FIbXFEP/gScXoW90LWwtfYke7ajC9HrGeF317DfAfxjrN2zYnBWZucIy3S/w5/T4Ff7SWcjjTSvgN8YwOIe/DYwNBtG3Coo29rngC9UUk4O4Je+v2DycIHfRJZoK7UWykO0b1Dba+J18rqTAv+Hy6laNZxlWe0r4NvvsA4P/gDAJ3Ep7MQbuHtJtnAb/MTxEIRfQonbBX4XXZGffbM5KkF/OX4LKhvC46Q6VVFUnDCmwq9Ch69Z3VGzuT86oBLfSJsNNhWNqrbZIUUAv4Svn9diaGpjkDVPgTNQpczwzdzsMXwkH34T2IF2YTSCt+xPUNkewVft42i/+MYXJA3+AhzUNP9oFQ1kmZGu349EE8SeHToepwL4SD78KThVKxh9IDdrH2+DnzIPIIavEfnp1wEYjRUYObCOUitIi2DZkjJhlMw9jgMp8FsAc1hxFbg+CwaZ6FUJJIZPe+Z3Yw3MSn0Nvmd+c9nB9fDTJnSi8DVlrHa7XX8bDPSMoIUSF5SYhhCzHSShe0QhGf4AVKF0wtMdbUEFPHw8SRCFrykW65njwTfBubRS8D3YC2dwC/zUyTQevmZ9dao7kiINB+y7MCeAvQP3rDrxj6EgCAqjGyIZPrRGC5xuHzYTXpNc8Ful6XrAeubPEsEo3A9uG9AE7du8AX76RCYHX1Pa+PMJGHDAvAY20c/+kC+CyRu6KMnwATFNA24ExGGUk2eHr1kjngYMUaFHBdfZu9WvhJ9hEhnD1zRuqtIEAw5kcjrIShzfkmCWCJ2DDpPVzPBLKoAPvN918LVWdJV4AG4zZXQ5Cjyc16qs8IcQ/TDLBD6G3+DnKaEDRGNwE3T7Ms4qxZGASV12+DCyVvvji/og8mSH33iTIoJTTmGIAr3wIn5m+FCZFk8QfGTbTNAHj9GVOfAGIg1h1q3C2XeU1CXDB+ez4bxRzP2cFX4Ql5BAXqt1/QaDsYr2xY5cAz/bwhWGH9lkDd21gzoHsmHFS3fQkPELnh5G7ZSAC8dY472Upqzwa8KtKW+C8F4Nj/kO7gr4GRcNOzFB0heIPoFr9wTQqVO+2dhqUSeT4etoZsd6TdtynxG+1hV+G57t0gJgKH4Qzg8/64IthK8uIh/DASeGP+XGgdhq8W0O5wxSBlloeqmk1l7XiT3JCB+MwpFAiuBbEOyx3+Hc8DMvlkP4YcQPBEI/uTZToAMIVv50C8xUYFSUdBC2U+DvudkI1dKS+GeFL3T56Ma+XJ8wll2O5IWffaNCCnw0x6gqQKDXmtdK6NnxTaRndjuSHpmJ09SxvYjjnxG+ON7iaYsGO4VuBzUqU69QVvg7hn6XYw94Hvhx8rOCeA+mZ852iDEKlmM01epOhav1N8KH8zhewjwIL8cl1c0MnynP/vsU+F3eDoXwtZSq8sCXDsI1AU11vprRjt0IH7bBaxjwnZc5/lzwcz37UAj8UrQqNGKAI7JU+HpkCf5yGus7MlK6FT5kzcqEmxqCIJ0Hfr5dYn8Gfq4FdPMQNxOvOUeud7fCH4K5JJaOhvE26EIO+Dl36N0hfLqTKy7UKF+4f7fCh6mtQr8fuvxgcTo7/Ly7I/PAtxpiOY1oVTfBlwbvliK+7HYXedWb4YNG0wAL1hOcy4kyw8+9MzUHfGs9iFO0KgQ/V8D1VF20RLvWSM1oBHEzfJBs0u6Hc1nhcD/zlHIqbF5pqSbonJNSO8zzb4ZP9HZUawL+Dsw5b4Zvhnk9HaiHOMIeiBbGeSWTiVOOPN9J2VkNR7iXAYrf/OwjXKRh+53fL8uBvBk+2Dul2SZYOxr/gZfQpMA/5ICP5nbQIAuMXHLBp1/tdC0u9RwDr387/HZYzBmEd3owxfxfKgX+BMJPaQ6c1cS9XWefXhDVO7GQ9cNFltvhg4nwWlMPs/xwWnaYrivfd5ICH81qpjz5MYidnc4+ny/W2kZ7UsA0/+3wpXCGQV2E4Rds5El/8cU22yvWIkqBDz/Ga4zNUfiOLs8PgNhV0jSYEb5mDrg6MCdQgf6DZlfDDwqAH45ptZ9wZz7obGq2s83x3gukFPht4QI/1dEK39Hlg/6GJOCVgjOVyfB/Wpdn0hUVnm0dQ7IA+DBUhV62HxZIg1+/ln0afPEalITGTTRLYILbmWGuCV1+CvwwwINtTFTgwqrH8HAB8E047x/8AL6QAv969mnw4YQ3WiAZhh/4M8p4zdGf6WSCO+Ezwy+NUUPABwXDRwtG0VamvkX8evZp8KFZaNARgFsi6Bla/Q4jFjqcAh9sIuuj5ArCB0aAR+Co6Znht7nFMyqYXCTCv4V9Gny0pQ6OO4A1B18z0Wxkyw8R1RZKFJPhg2oxS+h2puFh9Cgozpgywx9EJ1HR5osk+FfHWqY0+DHLU3DDWkgJ3cBaiy4+DUbcEDUZPthxaAPvgralQJcAYzxeN84On1u0j1SVAP8mu0+HD0dOpVpg+vABAjvwD9zjIkqj32/wu6CT4cMaYHYFy1rgBsR7cNG9kh3+IrJ6g26iePi32X06fGQWWslPviEjYKHR1e+okuHDAK8p4bWGoUcBrUPPi2nqa3O9fhNt+0yE/xZZNq7B2B0L/0a7zwAfPplSspX2UNerE7gR31mLa7sKPtz3X9Kc17Wu67s2eroFTZhOsdGqNcty/MF1dvhwo753YpTmxsG/1e4zwJdsaM1aq2YrY9hjtB9JrwlNX+1mhr9Al08dt2y1gSN2DQ59+W0+JfEDccnwsfMq8dOCMfBvtvss8N8SnkkucY+Cigs3cjyHO+BdAH81a2gD5zp6vivg77kbtobG8mL4BbDPAB89GR2Rwm0xnEZpOKM8T6BPk87GHmeHEkSZK+BXuUbjyXMh/CLYZ4EvHeI9ufrFF37lTFdzOvnWcON2jnjn++bmtaNP/l4BH+6dKkV2dgr/ckQR7DPBNydxnkf5ic7x7x3IQ1GbORfQh3Fv2aBf/uEXdAZ8sLwGPncJ8TKcCP7tsZYpC3z6PgSROdqNV9EGrcHEqqkkTGua2hov6NXJt3tBnzTEO0fURnQbtdTmt5lcAx8/xcLNU0ThF2P3kjRywr2vTix8AnTMjVQ1pXGIexnmsPl6+Fbtr+PeM1Qx/Pi/HLF+596sRJm2xuKXK61/nJZCLjaVbauqdUk1+2H146Pom6HQYwGaim/nCPyC7J40Hfzhkk7Sm0UHna8+e3kXVW3slFL+zIkJnt8Rw4d/M6XDVUbfKdawaj67ltXoH/axC2nV9vR46FId3heLjn+CKqw+7YW10Onzz4jw8Iuy+3wyq297tjd/38z36jr4EpWa4Mk0sQbrpne6Tjv2BXdFCaZYaN1CisAvzO7/kPTYx+ruROjZef7NfpU7sPt0xb5faS14aPeuFPvuHarKI7CX7PCt4PgFVPCNSpGBwR3IRA8K889AVh6BPdzehs0HzBEIHrr7faEJpRYfXyqPwB7N78Ipn3bMJP2daIAG5dHnYUP49xxr4YBNU4PAWgXzL5p2Ry5/8PO6mL4eFDSAtCJZaeUB7J5QhjmDNp6yEdawPQYOlRu5/64Gfbo9CI/m0FKNp8oD2L2EhyoEtHKYTA42Grn378jwBfNC/Iw1U+UB7J6ozc1o2qqNlmIurwa8Ewnge683wqo8gt0T/SS/2lHl3z/7uxLA7wvygcoj2D3RLjIfhtgLzOo3FYVfEyXClcdgT/qjxtq+Zr3fk8OXBPAt4cxz5UHY0xeli59j05Tom5R+Wxi+po7FU+qVR2FP9PbT4BdW6bsrpvfxBxmhBo7my1ZaDXURM3Vauf9YC7SelmpWTfG22bcsq9WNfWvIr4rm+UT218/7NOHvu8wfiT3Vbt0csT/9Ntq/Ve/P5nNp89sN+If1fz0TRFkTngfBAAAAAElFTkSuQmCC;" vertex="1" parent="1">
                    <mxGeometry x="687.91" y="200" width="183.97" height="64.39" as="geometry"/>
                </mxCell>
                <mxCell id="14" value="VERSIONING" style="shape=link;html=1;exitX=0.5;exitY=1;exitDx=0;exitDy=0;strokeWidth=3;" edge="1" parent="1" source="13" target="12">
                    <mxGeometry width="100" relative="1" as="geometry">
                        <mxPoint x="406.58" y="629" as="sourcePoint"/>
                        <mxPoint x="506.58" y="629" as="targetPoint"/>
                    </mxGeometry>
                </mxCell>
                <mxCell id="15" value="" style="shape=image;verticalLabelPosition=bottom;labelBackgroundColor=default;verticalAlign=top;aspect=fixed;imageAspect=0;image=data:image/png,iVBORw0KGgoAAAANSUhEUgAABLAAAAHQCAYAAACx7ZMyAAAABGdBTUEAALGPC/xhBQAAACBjSFJNAAB6JgAAgIQAAPoAAACA6AAAdTAAAOpgAAA6mAAAF3CculE8AAAABmJLR0QAAAAAAAD5Q7t/AAAACXBIWXMAACxLAAAsSwGlPZapAAAAB3RJTUUH4woOEjQxAz0ozQAAgABJREFUeNrs3Xd4HOXV9/HvPburLvcC7o1u08GFHpJQLY1MTULyJnme9JAOPOm9UAMhvXeSUDSSKQkkIYRiG0NCM73YuPequrtz3j9mDQZsayWtpC2/z3XpMtij2Zkzs7MzZ899bhAREREREREREREREREREREREREREREREREREZEi5Hb3l+tnT3OdhLVmNhVsItBi0Lnr7zlod8617Pp7BtuB5C7/n47+ABzmjPSrK3Cv/FsYhmkzM+ewGKRDi343HYYhgLel0yY8t9Z0uEREpE/9+4k4npXjSBHzOpl1iD57RERERETywG4TWCvnTDnYzL4JnAiUAyE7E1GvCjM/u64j/brltluU0HIu+rNll3Xt4NVk1/bM74aZv08BbZkfMNpwtAOtQAeQMmgHUi76M3TOtRukLLR2sE4HbaGjwxlJL6TD80gCbfsuXKqHERERea0HH/dIczTm5gKTcewA7gfXzOxDtipAIiIiIiID6w0JrBVzpkzF7PvA6Xm83SFR8itFlNAKM3+mM3927vJncpc/24B2g1YXJc1aHW5HiG3HrA3HJmC7M9fqHNsMtln0GmkHaZxLWhimY1gqFVrKOsIw8eiOcAxbdCaJiBSqBU/GwM4B+xpwwC7/sgP4C2aXMmfGRgVKRERERGTgxF//F2Z2uoNT83y7PaLKsHKguru/7HbdXSzMJKeMKAGWxmGZ4Y9hJtG1A9iO2Wbn3LYQt92LsYnKWHs4e+iGFQzdlkmKteBci5m1YLYNaPEc2zoraJ1899JQp5uISJ55/lnYkGzA7Gpg3Ov+tQZ4J7gngasVLBERERGRgfOaCqyXZ02s9Jz3feC9Ck23GFHFV9suPzte9+d6YFP0Y2uBLZjbYI71wHYHnc65dBiGHYTWYZtTqQnPrdRwRxGRvvLQkx4pOwOza4D997Lk3YTh2znu0DUKmoiIiIjIwHhNBZYzHJDYfWcs2QsHVGR+hnaxbBpciqjSKxqaGCW51pnZdufcKmJutRtRtnHFiMkbDTY52ApsAdtoxrY4bN534dKUwi4i0kP/fdrRkT47U3k1rYulR4IbBiiBJSIiIiIyQF6TwBq/aFnritmTHwEuAqWx+kgs87OrIbxx6ApEB6GdnUMYcVudoyUNW1fMnrwaWAe2HFiJuZVE1VwdmHU4rD3dGnaWP9YWjmaDoi4istPiJz060mdgdiVdJ69ERERERCQPvLEHFtbscPOA4xSevLCzsmvEbv7NMtVcSRxpolkeV+LcasOt8qq81cnZtctWULsBWAu20dKsHf/g0h0Kq4iUpEefcbSlsq28EhERERGRPLHbKqvlx00+wYV8HzhUISp4KaIKrs1EQxE3Ew2DWQq8iNkycCvw2GLm2kNLt7jQkhMefFn9t0SkuCx+0iOdVc+r13uIdHgBxx/6ooIoIiIiIjIw9jhMcPlxk493IdcDhytMRcmAJFGCqwNYnvl5AVgJrABWOGx1ymPlUj/RetIlzylqIlKYHn8WWpJ1Paq8MhYShhdy/KHLFEgRERERkYGx1z5Xy+dMPgrjCgenoJ5YpaYD2EA0c+J6YIXBEuBpBy84x+YwtJbQbPvERctChUtE8tZ/nnB0ciLGj4CDuv37xiLC8AIlsEREREREBk6XSamXZ006yDl3nYO3KFwlL01UtdUGvExUrfUEmeotM150aVs5bvHSVoVKRPLGwidOwbgOmNGj31cCS0RERERkwGVVVfXyrEmHZJJYpwCewiavkyaq1FoDrAWeMXjMGU/heNnMtqadbZ+0YFlaoRKRfvPwE44kJ2J8j971dFyY6YH1soIqIiIiIjIwsh4W+PKsSQd5zl0OnI2GE8reGVFvrU6ipNYTRMMPn3Xwgpk9Hzq31gMbt+AlRUtE+saCx48B9wt6Wnn1qn9hXMic6WsVVBERERGRgdGtRNTyWZOmOueuAuYCMYVPuqmDqJ/WGuA5g//iWOzgpZhjS8xLbxt1r2Y/FJEcuP/Rg3He93HulF6vy/gHKbuQE2dsUGBFRERERAZGtyupls+aNDmTxGpAlVjSO2kyMyA6WGLwX+BpD1sSplk67sGlbQqRiHTb/Y9Ox3nX49zJOVrjP0gqgSUiIiIiMpB6lIBSJZb0EQN2ACuBl5xjEcYig2dxbGgPk9unLVyhCi0R2bP7Hz0I5/0gJ5VXr16ZVIElIiIiIjLAelxBtUsl1jyFUfpISNRHayXwEI6HzXgC479xx9pysGHqoSUiOy14bBq474M7LcdrvpPQLuS4GZsVZBERERGRgdGrIYCqxJJ+FhLNdrjUwSM47jbjUcOtsjC9dcKiZaFCJFKiFjw2BbzrgLPI/fD2+XipC5l5eKsCLSIiIiIyMHp9k6+eWDKAksA64D/AA87xIJ491o7bOPW+lzTUUKRULHhsGnjXAmcAXh+8QhN0XMjso9oVbBERERGRgZGThFMmifUt4BwgobDKAAiJklkvA/c4+CeOJ+NhuHr0wmVJhUekSC14bGomedUXlVc7NUPnhcw+UhNLiIiIiIgMkJzd7L88a9K+nnPfAd6JKrFkYBnR7IZPAfc4x73ObKE5t2bsAy9pmKFIsej7yqudboK2C5l9TFpBFxEREREZGDlNNL08a9JYz7lvAxeiSizJH1uAl4D7HfwVx2NlLlw98v5lKYVGpED1T+XVTn9k9vR3KOgiIiIiIgMn5zf9mUqszwLvB8oVYskjRjSr4WPAv53jbjxbmIqVbZp4z7PqmSVSKBY+PhFz3wfOpG8rr3ZSAktEREREZID1ybfWK46dNBjPfRbHx4BKhVnykBHNaPgc0GTw95hzz4954MUtCo1IHlv4+FjMXQ2cT/8NV/89s6e/U8EXERERERk4fXbzv+LYSYPw3OdwfAJVYkl+C4ENwAPAfM+zu9KWWDFu+BBz8xcrOiL5YtHjYwnd1cC5QKwfX/knzJ7+QR0AEREREZGB02dDL8Y9uHQboX0buAZoUaglz98HowAfuD4MXeAsdeWqDRtmrzpu0lC7UQESGXALHx9L6K6i/5NXAJrJVERERERkgPX58ItVsyZVhc59Evg/oEYhlwKyAfgXcIcHd8U8b8Xo+19QryyR/rZgyWCwK4D/of+TVwDfZ/b0i3UgREREREQGTp83vx2zcGmrZ3Yt8B1gu0IuBWQEUbXHD0JoTIbhZStmTz5izfGTKhQakX6yYMlQsC8D72JgklcGbNOBEBEREREZWP3VAJdVsyZVhs59ClViSeEyYAVwi3P2Z2fusfjw4S2jbn1IkRHpCwuWDAa+DPYhYKASxyHwDWZP/7IOiIiIiIjIwPH664XGLFzapkosKXAOGA98zMz9KYRfJjdurF81Z8oQhUYkxxYtqQW7DOyDDFzyatf3voiIiIiIDCCvP19szMKlLZ7ZNcAVwA6FXwqUAyYA5xv8PjT71crZk/1VsyfXrD3nOEVHpLceXFKN2aeAi4HKAd6aEGjVQRERERERGVhef79gphLru6gSS4pDDeAb/DKEP6ZWrapbNWfKUIVFpIceXFJLaJ/B+Az5Mdw8BNp1YEREREREBpY3EC+aqcTamcTaosMgRWAoMDdTkfXLnRVZaxpmKzIi2XpwSTWhfSqPklcQ9b5L6uCIiIiIiAwsb6BeeMzCpa14dg2OLwObdCikSNSyS0VWes2as1fNmVKrsIh0If8qr3YKMWvRARIRERERGVjeQL74uPuXtqcS9iMcX0OVWFJcdlZk/TY0u27lnEnHrDpuUkxhEdmN/Ky82lWogyQiIiIiMrC8gd6ASfcsTYYeP8bxBWCVDokUmaHAu83cTWHorlk1Z/J+m46eoBnNRHZalLeVVzuF4Np0oEREREREBpaXDxsx4b6XOjot/UOLZp1arsMiRWbnrIUfDY0/tCZi719+/ORhCouUvAefKMfsw3mcvIJoCKGauIuIiIiIDDAvXzZkyoKXLTS7ycw+DSzToZEifb8dA1zt0vxu5ZzJb149e3JCYZGS9OATlYR8GOP/yN/kFaiJu4iIiIhI3jxQ542Ji5alW5LJG83sMuBlHR4pUtXAmWb8Ig1fXTFnyhSFRErKg0+UE/JBjC8BQ/J8a9PAdh00EREREZGB5eXbBh348ErSZjeb2YeBp3WIpIhNAC7B7MYVsyc3rJwzpVohkaJ370MxQt5fIMkrERERERHJE14+btSkRctSixYtvc3MPgM8q8MkRSwOHAn8wsy+s3L25AlrT9xfTd6lON37sEes7FyMz1E4yasQR6sOnoiIiIjIwPLydcPONTCzO8zsE6gSS4rfUOAjBjcmk8lzV86aVK6QSFH59+IYscT5OHc1sE8BbXmIUxN3EREREZGB5uXzxk1YtCzcvn37HarEkhLhgGOBn+HcF1cdN3lfhUSKwr0Pe8TLz8G5K8GNLbCtD8GpAktEREREZIB5+b6BBy/ZqEosKTWDDS4JQ36+fM7kWVuPHq8hhVK4FjzgiJedhfO+A25cAe6BgevQgRQRERERGVheIWzkhEXLwvb2dlViSSkpA850xm+2J+LvXjF7coVCIgVnwYMOas8CdzUwuUD3ohMIdTBFRERERAaWVygbut8ja3ZWYn0ceEyHTkrE/sDVwOdXzJ68j8IhBWPBAg8qzwJ3HbBfAe9JC0pgiYiIiIgMuIIcmrR81qSTnHPXAYfpEEqJSAM3YXw+XhZ/cZ9/P2cKieStBYscVJ0F7hoKO3kFsBg4ndnTN+nAioiIiIgMHK8QN7o9lfq3mX0UeESHUEpEDDgfx5/SqfSbUg2zFRHJTwsWeJnkVaFXXu3UgSqwREREREQGXEEmsPZ7aIWNX7j0vkxj9//oMEqJcMDRZnbdmjVrzlt6/OQyhUTyyoJFDmrOzFReTSmSverETBWPIiIiIiIDzCvkje8I0/8m5F3AP3QopYQcAvwonuajq2dNKlc4JH9UnVFElVc7teCcKrBERERERAZYQSewpj243MYtemkJIR9HSSwpLcOBL6Sdu3jFsZOqFQ4ZcAsfPwXclRRP5VXE2EFoaR1gEREREZGB5RXDTmSSWB9FSSwpLUOBrxBzn1s9Z+oIhUMGzMLHT8Hc94GDi3DvNIRQRERERCQPeMWyI+MWvfQ0xkeB+YAeNqRUVAOXhNjXVh83daTCIf0uSl5dR3EmrwBrITQNIRQRERERGWBeMe3MuIUvPQ18DGhGs0ZJ6UiY2f+GZt9QEkv61YIlR2SSVzOKeC+3k9YQQhERERGRgeYV2w6NW/DSUuDTqBJLSkvCzN5tnrt8S8Mx4xUO6XMLlswAu4riTl4BroUWfSEiIiIiIjLQvGLcqXELXnoB+ASqxJLSUmbp8F3J1vbL2993xjiFQ/pMlLy6HnhTCextB7c9pM8REREREZEB5hXrjqkSS0qRmcU6W1rPa1m99jvtHzhLlViSewufOBDsauCkkthfZzv40f/quIuIiIiIDDCvmHdOlVhSiiwdxtu3bLuwbf2Gy+2yC1SJJbmzaMl+wFXAm0tnp12LDryIiIiIyMDzin0Hd6nEUhJLSoal07GOzVvPa129/jt22QWqxJLeW7RkP8yuxDgDcCW05+06+CIiIiIiA88rhZ0ct+ClF0KPj+D4E5DSYZdSkGrviLesWXdh55btl9vn36FKLOm5KHn1XYy6UvncyGgH2nQCiIiIiIgMvJJ5EJlw/0urzONSHH9BlVhSIjq3t8RaVq87L2xp/Y7934UTFBHptih5dVUJVl5BlLxSBZaIiIiISB4opW/SGX/fSyvN4zOqxJKSegLfuDneum7T2yyV/q5deuFURUSytmjJtEzl1dxS+7zISAKdOhFERERERAZeyT2QjL/vpdXm+JTBD9DQECkBFobsWLXG69y6vR64xi65YJqiIl2KKq+uLtHKq53aUQWWiIiIiEheKMVv1Bl//0trQ7MvmdkPgFadBlLs0u0dbF++Opbu6JgLfNcuuUCVWLJni54Yn0lelWrl1U5tmL7oEBERERHJByX7YDJx4dJtBt807IcoiSXFzjk6t22ndc16Z2ZnAD+3z5x3tAIjb7DoifGEfBvjTEq38mqndsxUgSUiIiIikgdK+Zt1JixcusXga8DVwDadDlLMzIyWNetIbt8Rw7mTce4HSmLJayx6YhwhVwBvA2IKCG04VWCJiIiIiOQDr9QDMGHB0u1mdiVwFbBDp4QUs3Rnkh2r1hImU4A7Fue+b5857xhFRljw+D6EfBs4T58Nr+ggdKrAEhERERHJA3pIAcYvXLrdzK4GrkCVWFLk2jdvpX3T5sz/uZk47wd2yQXH2ZcucopOibrvkcEYlwHno8qrXXVAqFkIRURERETygBJYGeMXLm01s+8SVWJtV0SkWFk6Tcua9aQ7Onb+1THAj2hLnqjolKD7HhmCF/sCzn0IKFNAXqOFqk5V5oqIiIiI5AElsHYxfuHSHZlKrCtREkuKWOe27bSu27jrX80ArrdLLjhJlVgl5L5HBuPFvoRzFwPlCsgbtHLk0SmFQURERERk4CmB9Tq7VGIpiSXFy4y2DZtItXXs+rczgOtViVUiFjxSQyz2qUzllZJXu6fPABERERGRPKEE1m6oEkuKnnMkW9to27Dx9f/yaiXWly9SnIrVgkeqIX4JuE8DFQrIHqknooiIiIhInlACaw92VmIZfBnYrIhI0Ql3VmG1w2sHDUaVWK3JkxSkIrTgkRqIfwb4FFCtgOxRGn2BISIiIiKSN5TA2ovxC5fuCMPwhwZfRUksKTYOki2ttG/aAvaGf1UlVjF6pfKKS4AaBWSv0piu+yIiIiIi+UIJrC5MXLSsIzT7iZJYUpTMaNu4iTC12z7VM4Af05o8wy45W43dC50qr7orjZkqsERERERE8oQSWFmYuHBpe2jhjzEuA1YoIlI0nCPZ0krH5q3gdpujOhD4HlSdYZfMUxKrUKnyqidSODYqDCIiIiIi+UEJrCxNXLisg/bwFxifQkksKSKWStO+ZSuWTu9pkWngroP46XbJWUpiFZoFj1Wr8qpHQnBq4i4iIiIikieUwOqGcY8sC0mGt2SSWMsVESkKztGxeWummfse81PTwF0PNRfYZecnFLQC8dCjZeB9BFVe9UQaT0MIRURERETyhRJY3TTu4WVp1x7egvFJ4AVFRIriSb0zSfvmLWC2t8WmAtcSunfaZecpiZXvFj1eQTJ2MfBZVHnVEylMQwhFRERERPKFElg9MPaRZelyC28BLgaeU0Sk4JnRvmnrnpq572o08G1C75126flxBS5PPfRoGaH7CPBFYIgC0iOt4DoVBhERERGR/KAEVg+NXLTMRnV2/hX4BPC8IiIFzTlSbe0kd7TubRjhTqOAb2Hu3Xbp+RUKXp5Z8GSMZOz/AZ8DBisgPbYOSCoMIiIiIiL5QQmsXih7eKWVh+EdwMdQJZYUuDCZpGPr9q6GEe40Grgc+JBddl65opcnFjzjwC4AvgwMU0B6ZTuQVhhERERERPKDEli9NHLRMhvT0aFKLCl8ZnRu30GYTGX7G8Mw9wXMfcguPb9SARxgC56MQ+ptYN8BxiogvbYZUwJLRERERCRfKIGViyD+Z5WVqRJLCp1zJFtaSXd2ZjOMcKdhmPsS8EFVYg0gewkIG8CuAMYrILmIqW0iHaYUCBERERGR/KAEVo6MWrTMxra13YEqsaSAhckknduyHka401BVYg2gxU/GWNQ6F/gWqrzKHec24XlKYImIiIiI5MstukKQW+uPnei1x7xTHVwDTFdEpNBUjhzOsP2ndKcKa6fNOPs6zn7oLr+xQ5HsB7YFFq2ci9l3gakKSC5jy2XMmX6FAiEi3XWa/xaqqfS8132QhpglSdv84DZTlERERLpPCaw+svy4ySe5kOuBGYqGFM5Du5GoqWb4IfsTKyvryRo24ezrwE/cFX9pU0D70OInY6TtLMyuBPZXQHLufcye/nOFIXfO9N9FGZurwCqB3T3AJ414a1MQqPeYFCzfb4g7wpOA0xzUvOYjFlLAAsMFQRDoM1JERKSb4gpB3/jLpzbfc/41Qz/qQr6PklhSKJwj3Zkk1dpGrLy8u0MJIeqJ9UWg0i654Dp35Z9bFdQ+sG4VvLj5TMyuQZVXfSENbFUYcvlQ7w92bPXBezPY4Dd+f2aAa3PY8w1+/c8bg6aXFDUpyI9RwlOBnwHj9/AJ+k6HDQZ+rGiJiIh093NW+tSKOZNPwrgSOAr1HJMCMXjyBGrG7duTBNZO24GrgGvclX/eoYjm0OInPdJ2tiqv+tRm4EJmT79Toei9Br++Avg8UY/Imix+5TbgQ41B03JFTwrJ6Q1vp9Jargc+2sWi9xrpc4Pg1nWKmoiISPaUUOlj4x546Z7Q7D0G9ygaUhDMSLa1YelejeKpBT4DfNouuUCN3XNl6VJI287KKyWv+k5b5kdyYwbwfrJLXgGcBpyjsEmhKbe2BFCd3WekG6yIiYiIdI8SWP1gwsKlS8zs4wb/ZPd9P0TyiCPd2k6Y6nUbmlrg08Bn7TPnDVVce+m/jznW7NCwwf6xDTMNIcyBBv9sB5wLjOrGr8WBM32/bqQiKEVM94MiIiLdpARWP5mwcOnjZnYxcJeiIXnNQaq9I6rAcr0eZVwLXIZz37HPnDtcwe2FDu9EjCuA/RSMPrcd57YpDLl4QnejgZN68KtzHByiCIqIiIjITkpg9aMJC5c+adjFQBNRk2CRvBSmkqQ7OsnRF8Rl4N6D875pnzl3hKLbTQ8/4Vj4xCkY30MP9P2llZAWhaH3HN4pwEE9+NVqcOf7foPuU0REREQEUAKr341fsPRZM/s0cDsqH5c8ZQbJ1rZcnqGJTBLrW3bpBfsowt3QabMzyatDFYx+s4PyUJMP9JLvz60ETgUG9XAVsyE9UZEUEREREVACa0CMX7j0hUwSqxkIFRHJO2ak2ztyvdaoEsu4yi69YJyCnIX7H52B8R1guoLRr7Zx9KFq4t5LDm8/4K29WMV+DneSIikiIiIioATWgBm/cOlzmSTWbagSS/KNGan29qgUK7fiwAUYl9ulF+yrQO/F/Y8egvOux7kTFIx+t0YhyIm3AmN78fvVwFm+P1eztYmIiIiIElgDSZVYks/CZJIw3Set2uLAhRhXqhJrD+5/dEYmeaXqk/6XxtigMPSO79cNBc7MwX3GiQ5vf0VURERERJTAGmCqxJJ8FaZDwmSqL689qsTanQWPTcPzrsG5UxSMAZECJbB6y+FmkpuhryOAMxRREREREVECKw/sUol1c+bhSWTAHz8tlSbdmQTn+upFVIn1egse2w+874J7s4IxYFKYaQhhL/h+XRlR0mlkF4tuAl7I4j7lNN+v0wymIiIiIiVOCaw8MX7h0udCs08Af0HDCWWgObAwxFJ9nk9VJdZOCx6bGiWvOFMn4IBK4rn1CkOvLh/jgNOzWPQ+4Fd0/cXNDId7kyIrIiIiUtqUwMojExYuXRmaXQb8EUgrIjKQLAwJU/1yGu5s7H61XXLBpJIMdlR5dS1wlq7LA64Tz9YpDL1yItDVe7nD4GbDbgWWd7FsLdgp9f5Z5QqtiIiISOmKKwT5ZcLCpStenjXps55zBpwP6IZdBkSUwOq3Ea0x4EKgyi45/xPuyr8sLZlAv1p5pT4/+WEjabddYegZ36+vBuqBsi4WfcGD+9K4l11UiTV574u7UxzxicCz+brv+/lHcwhj4h6uzKAMXK1htRBWAiF4OxxsBDqiaTLak7cGdw1478uz/LdQRkUCvLLovtANMsIasKpoCa/d4baDbQeSECZTdHTOD+7Mm76d9f6ZXox4meHiQLXhaiCsAisDl4pib9uAdrBkirBjfnBrXvcdbfDrEu7Vc2mwEdZG+0Po8DYB28DaDetsJ53+a3B73mz72f45lJEsB5cwqDQYBOEgwAPX6fC2g20FOiHs7KQ1eVvwD11ARUSkS0pg5aEJC5euWD5z0iedc6txfBwlsWQAmBmWToP12z2+A+rAYZec/2l35V9eKPogR5VX1xBVXkl+2IhTL8Kev4ntMHBHZrHoPwy3vCkIUg1+fRMwD6jey/JTHXY6fZjA8n2/zGEHEvXusl2uS6HD1hju2cagKb2b30t4hBMNNx2YaXAoMBFskIM4eF5mfSGwA1gJ3gsJqhY3+PX/NezpIGju96Sp79cPcnAAcCBwNFHT/dHRdrsYuFhm0RAsBbRntv2lOJX/bfDrn4Dw+ZBwVVNwW7r/t98vc9hYYH+wIzLxnwLs67B4tP0uE3tLZ7Z/LbilcbxHG/z6xw172vCWNwVBXrznfd9POOwAonNopsFBmXOpyr1mf0gB28E953BLKvEe9v36/+x8Tw3c9teNcLgDIXWI4WYB04CxDsrAi+18P2WOxzZgFbhnyqhZ3ODXP2LwQpLxO24Lvq+LqYiI7PGBUfLUimMnDcZzX8TxEaBCEZF+ZUbN2H0ZNHk8zvXrpcKA+WCf5Iq/vOiK9SoVVV5dR1R5pWGDeXPecyNm7+W4GTsUjO45229wCcIvAV/pYtENwLsag6Y7Mg/tExz2F2BmF793u8HbgqBpW+4fvM+MO+LvBXcJsM/r/jkElgLfCuHGpqApBGjw6xPAEcDbiYZNHkz3v3BaDtwL3A7cXkH75huCv/V1kmGIg9PA+cDxwNge3g9uBJ4G/oWzPwLPNjY292ny5Eh/KBM4vgzcEQ53DnASUeKtqgerawGeBBaBBYY9EATz23qzffV+Q8Ij/Anwni4WfcQIzwuC+c9n3gNxCI9yuHcAbyFK/HTnS+Z24PHMufQ7hz1xS9DcL4msc/2zvTSxfYC5RNWXRxHNHtqdz7UQeBH4DxAY4T+CYL6GcouIyBuoAiuPjXtw6dYVx076Op5L4/hoD2/QRHos3FmB1b9ZJBfdCLuhXHb+p+Evi4susIseH0/orkKVV3nIVpIMOxWH7kuQ3gdcNs3blxhu4c7/6aB8eQXtd9N1AusIokqhf+b+opMYC3wmkzjYnUOBTzhsIbBsnu9PMuz9wDuBMfQ8CT2eKAF2FvDPdiquq/cb7msKGnNe0eT7fpXDTgU+AhxHVPHWm4v78Mx6ZmHubcDv5/n1P20nsfL24Kacn1/1/jzPIz09s/1nA6OJhp/3VDVwTHROubc53F8b/PrrwXu4MWjstyqmeX7dRMM+QpS82reHx6Qisy9HAucY7kcNfv0vG4OmPp2Q4hzfH5HG5gIfzLxHevplq5d5700FznR4Dzf49d912F23BM2turqKiMiuHxiSx8Y9uHQroX0TuIpo6IFI/z3KhyFmA9ImxAEnYO5au/T8I4sqqIseH0vorsw8gEm+cW49ZemkAtEjRwOHdLFMCDR/dt7vNu/8izuCPxtRBdLqLn53Xwen1Pmn9cW9yzBgVFevD27IPL/uMMN+DFxKNONiLrZnMNAA/Moj/fZ5DXU5rbo+x/enOuzbwG+A04AacleFHyMauneZwc/KSR6W64Nzju9XxUi/F/g98D6ipGEsV+96omTcO4DfQvixhoa64X398QrQ4NefZLjfAJ/K7JPLwbGYCHwduL7Bn3vQhf7cPvkGqsGvPyjErgF+ABxLbkYKuMy5eRLwS8Nd3uDXj9WlVUREdlICqwCMe3DpNmd2BXAFSmJJP7Iw7M8eWLszB3Pft0vPn1UUAY0qr64GzkMVsPnJsY45R5oC0T3RECh3LlDbxaKrgX/MfFft657m3WKi4UNdPjfHqBioB9qYg7MM92vgreQugbKryeCux7xPnNPQUN3blY30v0iDX39iiP2CqHJpaB/Gp5xoSPTPGvz6Y3O10ga/fkSIfcXgamAGfdv+Yn/gm5i7psGvP+Bs/9y+ep24w6sDfkaUrMn1uZQAzgfvV514x+RyxWf757oGv/444LdESb/KPorRMODDwK8a/PqjdZUVERFQAqtgjF24tMUzu4boBk5JLOkfYV48x8/OJLFOsM83FG4sFzwxlNB9BThX19681UrIBoWhRxeL6cCcLBb8l4M3TNAQBEE7URVWV0PnphH1bRoII4iqrg6jb5Mogw27NLTw7fW+36vExvE8NpuoQqYvkiR7cgxwdYNff0BvVzTPrx8MXA58DBjUT9tfQTQ09OcJkof20WtMAj4H7NeH++GIGsF/q8Gvm5KrlSZIzgG+R1Rx2defZR5RT7DvzWvwD9d1VkRE9BBVQMYsXNrizK5ElVjSLxxm4atzcQ2sozB3PcnEKQUZygVLhgFfAi7qx4dI6b4tYJsUhp5cLdyJwOQuFttmcOstQdOePr/+RdezDJYDZ/j+2QMxsUkF0VC//mgKOBT4vIf1OFnX4NdNJhpKNn0AYnU88BXfn9vjiq95vl9N1JfsIvp/NmaX2Ycr5/l1E/pg/bVEwxb7w5vAfanBr+919V2DXz8T+D5Rr63+NNvMvtbg10/U1VZEpLQpgVVgVIkl/Xn7PoA9sHbnMMxdY5eef4J9bl7hzE24YMlg4AvAB4AynVh5bQs4JbC6/1A7nKivUlfJ2ZfB3bunfwzxXgDuyeIl54B3SJ6Gw4BOohnutmV+Wum6smx3JgKf9v25o7p/TPwKcB8CTu7Gr20HHgNuAK4BvkY0o+S1QCPRjH3biPqYZWOuw5vX80Bag8FHu3ndNKIZ+bYQzXa5LvPnlszfd/cD7RSDi33/7IGYRCeVOXe2A1sz93ydPdgHB5wLdsGp/lE93ph5ft0+wBeBw7ux/RuBe8F+Bnwb+Grm3PpT5lzb3o39ORO4zPfrKhERkZKlHiwFaMzCpS0rZ0260pxLEw1nqFFUpEQcjrnrScU/Cdyd91u78InBmH2JqI9HuQ5f3tsGbFYYuu0w4IQslrstRnqPjdqbgsaOBr/+TuBCYMhe1jPZ4d58hv/m/9wR/D1fMuxtwCOZnycMWwtue/RPNtzhphL1bzqWqPF7tvdfb3F476rz5363OZjfnSTYMcD5ZFfxuR24w+A3DhaDtYZYp1GWNsCjI+7hlYGrNtyhDpsHzKPrpvfVwLt9v/6OIGha1Z1gzvP9Awy7tIvzYFcGvAgsMOxf4J52UfKkBagw3Giw/V2UfDkJODjLY5AA97+O2H1AUz+cRyGwDFgMPA48a7ANXAeEtQ43DjiQVydMyHZYZTW4jw5i3L3w8JLubpTv+15m1s3TsvyV5wz+AO52sOcNazNiScMzjzDmSCccbkjm2nERUe+0rirEYsDbHSw42P/D754M3qErr4hICVICq0CNXbi0ZdWsSdeEznnAp+m6ca5I8TwsR5VYHyOWvs99++b8bLj94JJqQvs0UeWVkleFYQuESmB1w1z/HAepM+n6i5TNYLffHMwP956FcPc47AVgb6UiHnBGBVW/gAHvWZYCFgG/MtxfgVVBENgekgAVYIe7aBKHdwIjs1h/BfBuD6+R3fQO2516/+w42FlEFVxdeRq4ynA3BkGwbQ/LdGZ+dgB3+b7/b4fdQzQ8cVoX6z/GYacAf8g+WVJfnkmWZFtltwm4weDX4B4LgqbO3SzzHHBfvd/geYT7Ae8G3gOMzmL9Q4AP+379vUHQ1JcVmquAnxuu2XCPNQWNyd3H5xwHqXEOTszsw0lZ3s8fDLxtrl//5flBU7cqAj04xuC9WbxOCrgT3DecF1vUeMvNu3u/h0CSqLpsle/79zrMz5xPk7pY/2BwHz+Avyx6suvhxiIiUoQ0hLCAjVm4tCXtcTmOL0cPXiIlI6rESsdOysutW7SkltAuwfgUURWCFIY1zDm0VWHIXpzUVKImy10N633AoiFoe5UksRm4ka6HFR0JbvoA734K+I3hLgzxfhkEwco9Ja8galQfBE0LQ+xzRAmU/2b5Ogc6uCD7G7vYYODULBZ93LCPpEn/ci/Jq93tR0eS8j8DXyZKHu1NObizfd/Pehigi6py5mV5j/qMYR8w3CVB0PRQEASde1u4KWgMG4OmZwz3FeBiskwKAjMdvLmPziMD7jV4B17860EQPLyn5FUU/5stCJqWt1D9B8O9E7iOaHhkFqHl7BhM7c7GzfP9GsPeA3TVCywkSiR+oDEIFuwhebW782mH4f6QOR7ZJKWOBN7m+2fpGUZEpATp4l/gJt7/Uns6bj/A8Q2UxJLSsrMS6yT7zIX5cy17cEk1Zp9W8qrgGFG/HOmeWXRdhZM0+EcQNHdZLXVbcKMBfwfWdrFoLfC2s/23DlQ/vBRRVdHngiBY0RQ0Zl0J2hQ0d3RQfjtR9fTzWfxKDDjN9+eOzPIlaoiGKe7Ny8Bng6D5n83Brd2uYr01+IuFWCNwSxaLHw5hVkmTOv8MDzgFGJ/F4i8bdlmK1M1BELR1Z/uDIOhIEb8JuCyLcw2i5v2n+/7cvrim32PYh4Kg6V+Nt9ycyvaX7gz+SBAEqw33DeA3mXOyK4c47JjuXRhtf6Ihfl291+4Bvh4ETSu6G4AgCCzEux34bBbXYQc0QHw4IiJScpTAKgIT/720M4zxAxxfyfJGTCSrx3nnHC6/26Ufgbmf4OzMvNiaVyuvPoOG9RaaJMYyhSF7vl83GKgHumpw/QK4O7K/9LgXgQeyWHROgor9B2j3HwA+1xg09SjpeXvwF1qp+hfwXaKhVF053OEdl+Xq29l7ZZQBN4G7qzcBaAqa24C7iHrH7c0+DndgNuuMUTY0c0511bsrBfzCcLfdGtzeo2Hk84ObzXDNwC/JrjH9LIc3Osfn0XLgq0HQvKSnKwiCYIvhrgAWZrF4HNwZ8/z6rFqI1Ptne0TVcF1VX60Hd2Vj0PRcz8+nxtDwbgV+TjTEcG+muaipu4iIlBglsIrEhHtfarc4PyRq6r5cEZHeM5wXI98zWMABwFV2yQVn2CUXDNzGPrikRpVXBa0TeElhyJ7DTSPqv9OVBR72fLbrDYJgM3ArUQPuvdkP3PEDsOtbgB83drMx+ev9Lbghk0jKaubFQWCHz/VP87I4LpuAXwNriJJjLa/7WeDgV41dDLfL8lPiv3T9xdkQuk6A7FzjIUA2SclHDft1U9CU6s32B0GQJKqkeyaLxSfTdWVbd6SAn6Tx/t3bFQVB8CLwU6LJBLpyRJhd7y8csZ0zjHZlfkj6nt7vR2Nn5tx9vItFq4G31PtnDcTskCIiMoCUwCoi4//9UjIVhn8ws0tQEktKywFEfUDOto/N7f/rWlR59RlVXhW0JB4rFYZuORvoahhPB9htt3Qz0WDRLKNdJRTLgbN8v25QP+/3ndaNirK9yVRw3URWVVjuuBjlg7ta6pYoKXOdwVzD3hf1iHrl592G/T8oW5KL7XfYaqLm7l0Z+Rb/HVl8weBmEw3X25sQuIlY+Ypc7EPoEk8SDYXsqpIrlsX53h1LgZuag8YwN6tzdwH/yeZYOOzgLI/vYXQ9GcB64MamYH5rjt4TzwHNQFeN5o90xCYiIiIlRbMQFplJi5all86ceGMM4s65b5H1t54iu7td9+i67UXe2A+4jvLK4fbpc/7grr452S+vuujxCswuVuVVwWvB2KgwZMf360cRNQrvKmH8oOEt7P4ruOVg/wS6atR+HDADuL+fdr0VuDMIgi25WqHh/uWwVXTdS+wQhxsBdDlTZmM0E99DmZ8+46DTuk40ANRUsSXOXoaG1fsNcQgPzOLedJWDexpvvjEniZ+mxpuswa9vJJoxdkQXRyuXX5Dc5Zy3NFcrS+Otj5G+N/Oe2JtB4KZkeYSP6TomPIvzcnyeub+CfRwYupeFJjvcROApXZFFREqHKrCK0KRFy8KU2Q2GfYLsGsSK7P4C4Xk4zxXSJk8Gdzle7F328bpYn7/aoicqMfdhjMtQ5VWhW0Z2M3lJlLg4CTi0i8UMuCdJebeH2gVBkCaqwuiqumekw/VnL5xVEN6d21jaCrLrX1RrXVfD9Kvsm09ZDELXRRyGkd0QvefNeS/mdj/ck8BP9nINSAJ3gFuUo5dMAw/d0tjYkat9aA5uSQOP0fUwwnK6TkpR79dVAgfS9bdYz6TSqRwn/+15oKsqwQqwgw72dT0WESklqsAqUpMXLQtfnjmxCUfaOXcl2fWUEHntA0WsIHpgvd4ocN+grCK0T5/z+z6rxHrwiQpCPoTxBWCQzpaCtwKzDoWha74/twJ4M10P9VoF3H5b8Gfr4Us9RlRZtbcePA440ffnjgqC+f0xi+SThsvpUNPGoKmzwa9/ELioi0XLHLYf0SyN/epM/zwStJV7eBXgKoiqTccYtr/DZTM7YhbngA2Lrt9dejk0NuRy/4IgaPN9/xqH/Yeo19Wu51eSqOprwS09mGFvDzYZ9nLuj5StIuqBNraLBUcM9n/P1uCivb2xhr8uFruTNuzp+c3zLZd7EZJu8/Ce77rHnTvoQOoST9KcRERESoISWEVswqJl4dJjxs+PxWJp59x3iYZYiWTNeQ5XmJu+T1SJFa+xyy78qbv8T7lNTNz/aDlpPgB8KYuHeCkMLxM6VWBlc13AGwe8NYtF/+uiJt890hg0rW/w6/9FNFRxb/crRzi8k4Ab+2H3HwsdffGw/AzQQVQds5d7Nje6L3fO932AKgiHOtgX3HBgFHSOhtjOJuaTomsslQ5XBpTl4rW9qMJsaFe5DYOXmoLGdK73PQiCTSf6771ld//27+CXuX65TUS9o3LKsA0Ot42uE1jVJ/PnsqZo8oo9vM/dELpuQ5FyuBW534+wA2LZJIqnGm6vQ1NFRKS4KIFV5CYtXm4vz5x4BxBTJZZ07wYSvMKswNppJPAVQnN26YU/cVfkKIn1z/s8nDsX+CxKXhWTVRw/PaUwZOWMLB6Q00DjLUHQq6SgwV0OPtTFg3Q1cJrv190aBM1tfbjfBrzU3Ngc9sG6NxPNbri3BJVHlDjKCd/3445wMLhRBvs7OAhsf2AMuKFEw8wGE80i2OdDskOodl0PxU6BbeirbeiDRNWetIP1wbnqtRAlQrs6lSsdYYK9JLCASrpOKBpQ3eDXTyS3bUksy/WN1LOMiEhp0UW/BKgSS3rCOffqEEKzQt2NYcBXMXN22YU/cpf/qXfTxt/7cJxY4lycu4IspyGXgtAOrFAYuub7cwcDpwOJLhZ9GrgvB1eiJ8DuAd7ZxYKnuqgyqK8bOvdJ8sSwbQ63PovrSm3vj2H9SAdHgh0P7gTgYAc1RJVUsQE8vWJZ3JemyW7Ww3xnRLMp5vqTOwWWq+q0WqCqi2XKge8CfZH8L89imSrDDQK26+osIlIalMAqEarEkm7fBjsPL14Ul4ghwJcIzXpViXX3A14meXUluDE6Q4rKJmCdwpDFdQHvGODILBa9L8Rb1tvXC4Kgo8GvvxU4v4sH2rEGb6JvE1hG3yVPOoCWLJbr0Uyn8/y6hOGmAhcSDck8iKjHUR6dW5QTVf3sTRolK/pLLV03cHdEyc8BfI5J1+hQiYiUDs1CWEImLFoWplKp+Wb2KTQ7oXR5dXC4WNFcInZWYn3QLruwvNu/vXCxR3mtj/OuAjdOJ0fR2YTlvh9Nsanzz4oBJ9P1MLaNYE1NQc5mWHsYeKKLZRIOV+/7c0cUZnRdB9CaxYLlvu936xrm+3VTDPd5oAn4AnA8eZa8yojRdQWYsfdhb5I71ZD3bTA9ctSDTURECuQRVSEoLZMfWmGY3WFmHyGa4Ulkt48IXszDSxRVkeYQokqsD3QribXgt2AVZ+Hc5XTd90cK0wZibq3CsHcx4vsCZ2Wx6FOGLcjV6y7hkBfIbua9wx3ekX0Ygk76ZqgUEKbJrhF1jK6HbwLg+35Zg19/jsP9DvgiUeV1TGeyZKm8QLbTdKhEREqHhhCWoPGLloXAnctnTepwzl0PzFBU5PX3g87bOYSwqO4No0qs0JxdduGPu5ydcMFiDyrOBHctMEXnRdFaxcxDNikMXToJODCbB1+H97EGvz5HF48lITCRrmfpGwmcUufX/bM5aO6LRJP18QXRdWM79uoc3x8SYh8CPpO57uVSSDSUcg3R8NuDgUF6exQdzewnIiJ5RwmsEtaZTv+7LBb7uHPuGuBwRURe8yTledEshMX33eYQotkJq+yS865zV964+2E7C74DVJwF7hqUvCpmhhq4d8n36yqAs4GKLBY/JvMzEOpj8H1gZR+su5wsq596cMXNpv8TRBMO7HX2ukzy6kvA++lZzyzLvE5r5rV2AMuBF4CXgaWZ/99iWLvD3QQclqP3ouSPHQVwTJaCW6VDJSJSOpTAKmFTFy834O7lsye93+GuJPp2XSR6nIrFim0I4a6GAJ8Hz7NLzvvuG5JYqrwqJUmMZQpDF9eDqFL32ALY1MnAm4HfFOD9WDZDtsIgCPY4e12978dD7GLgI3SvN1AqSgbwFPC0wXPAcnDLHbYSaDfCdJIw1cq+dnfwcwAa/Poyclep00mUONtbktQjuySq9F42sxnunNgg7OdtM+B5cFd5ZdWbdahEREqHEljC+AVLF6+YOfmjeFxHNItTdg80Zrhdvpwz57C87/cp2fIScZxX1O1SqoHLwMM+c8F17qo/R7OLLfg+qrwqKZ1oUou9Ots/24E7GZhUAJtbAe4M36/7cxA0t+d43Y4+Sp44XBXZDcPbutfrNnYK8GGyS16FwCpgAdAIPG64lSHelubgFutGTHKVkUi7rnuMxVw0O570vW2Zc2RvNwKdhn0d3L30b19dA9aCW9b4lz+qck9EpIQogSUAjFv00hMrZk6+GI8fEM0y9cYbYwujBiDOoz1RwaaqYbSURbMXl6U7qW3fRm37duJhCs9CHIbhMKekVsFxjlh5GSWQj6wFPodjkF1y7hXuihs3sfCJs1R5VVLa8OwFhWHPEngjgHkUzsQvx2Qqxhb3wboH99E2VxFVhnZlj9Umvl9XA3yArmeJhCgRdqPhfg72aAdh+x3B/B5kEVytw3LV7DtJ1zMMxsAN1buyX+wcQtrVsNm1QdC0UOESEZH+oASWvGLcopeezCSxrgBOJ5O+cGaEnseqQWNZsu907pt6Ii8Mn8rWysF0xssxHPEwRUWyjdqO7UzatJQZKx/lgHVPM2brSoa2biYWpkl7mvyokMTKS2Zm6irg4+BVnXzr7Xf/a+Skb2Cm5FXpWI657QrDXh1F1Ki7UEwC3jzXf+vD84M7czm0yYFNONN/i7s9uCvXVR+j6brZehpYv5eNO57sqqhXAF91cENjELT0cruHkbOqNNsObnMXcUgAo/rqxPH9+goPGwy7fvNmFsKOJNZyWw+SfAVsB7CWvVcGJhxuki6RIiLSX5TAktcYt+ilJ1bMnnwxcC1wpmeht7ViMLdOr+MvR17I8yP3pzMWJ/Qy93YWZblsl1u9ByYfR+KIC6jqbGXGqsc46uXFHPPyIg5Z/QTVHS04jNB5CnY+c454eXkp7XE5uA9etOyxix4dPHrI5kQl6idcMl7A9t4Uu5T5vh8HO4fCmmXOA3d2jMpfAOtyfHE8rIzKBF1XCmXtLf47gB0H0nWlSxJ236+tbt75jrDjbKCr6qS1Bv+XJnHD/OCmXif3HDaF7CrHslnbDqJha13eqtT7fqwpCNK5PLINfv1BwPsNd0TmWBjgwKUcvFiG+1WdP+/ebgyvLGiGbXW4lcB+e3+vMd33/ViQ4+MhIiKyO0pgyRvvDBe89MLKWZM+CRYuHzL+rO+d/MnYnQedRktZNV4mYRUL33Cn8xopL862ikHcO/V47p8yh1E7NrDfumeY+3jArKUL2GfbGjwLlcjKU+6VIYQOrFQSORZ/24onhjxTO4Lv7jeTlM7NEjnsvEgyVAJrj8Kp4I4twA2f4bCjgDtyvN7DwA0HVudqhTW0VAJzsli0A9xuh7t6Yecw4MAs1nGjEd6Yi+RVxiF0XTmW7SfPRrDVwBFdLDjZIxxDNBNiTszz/WGGfRU4bw+LnAgcEyN9DvBMaVwa2eTgRfbQVmLX4wHpfeibmT9FRERee8+jEMjujF249Plr3nTp9Zf612xtOtSnNZO86vYJZtFptqZ2FP+eegJfmHs5F5/3Y35y3Id4buT+0S2rhQp4vl0Y4nG8RKLE9tpRlU5y8QuLmLlp5WtHkEgxH/YXOenQlAKxp/C4UzNJiq6ERA24++Mnm0qPWnD+XN/P9Rt5soOzc5soCKcQDdPsylrD9jBjpo0mGoa4Ny1gi5qC+TmpHmvw64dnkhs56Q8QBMEm4OUsFt0P3EE5PgYzgbd2sdgBWb4XikJTNAnC03Q9w+A0hzdTV0sREekPqsCS3aq63cb9yPE+YIhn4HpZhLMz+ZXy4jw69lCe2Hc6zTMaOHtJMw2P3sSYras0i2G+MIhVlONisRKqvnr1cX186zb+d+l/eXDoWJKecvxFbivRLGyy+wTFEOCsLBIULcC3gbvp+6kfQmAa8A1gQhfLHhcjPBhYksPXrwQafL8uCILm9b1d2Vsb5uDMzQXGZLH4Y4btoV+bVYOr7uL3Ow3L5ZDKI4HZuf34sccdrgPY2xj2EcCbGxrq7m5sbE729jV93y8DewdZNei3krpJMdzDDtvA3vuODQHO9/26vwdB87ZcvO45fn0shMnAVLDa13xIQwrcc4Z7OggCffkgIlJilMCSN6i63cY5uNoZ59AHVXqeRTMZPjdqGteP+Dj3TzmeeY/cxKnP/p2hrZuUyMqDW9ZYeRlerHSTN8dtWM7B29fx6JB9SzCJV1JWAUsVhj1eCw4Bl01lxTIIf9sYzF/eH1vl+/5/HHYq8P+6WPRgFw39WpLjTTjZ4c75lH/4j68JHunViqptxH7A27K4HwuBB5qC5j1NOODoOnkYyyLJlZUG368GezcwPMexXQBsoetqsrMx+xXwVG9f0GHHAadkseg2cKV2vfgP8CxdN85/M7jjyNGQXYMzgMuJqu12d66vctgl+PYXAt0vioiUEpUXyGtkkldXOjiXHA0L2OPJZxC6GA9OPJavn/FlvnLG11k0aTYpF8cpaTCgYmUJXKlWHznH5NYtHLN5NSiRWuzW4alvy17eDGeTXX+juwy3ur+2KgiCDuBWum747cCd6vt1tTnehErg4y8x4ajerMT351aC+19gehaLr3Tw4F7+vSXzszfVDje9tzt/vn+mA3sXUJ/zMw7vOeC/WSx6AHgfafDra3t3DOoGA+8juwq4ZxysKaUrQIi3FbiTrmc1Ge7gQw1+fa9niJzn+zMNvk4082liNz9xourLi3zqhiEiIiVFCSx5xSuVV1ET0347NzyD1rJqbp9+Fh879wf86ISPsK52NLEwjdNMcANwVfCIV1ZACQ+fi4cp9t++kVio0QlFbiUzp29WGN6owa+bQtQTqKss7jaD24Ogub/fLP8gqgzpyonAYX3w+geCu7zBrz+gJ7/s+w1xh3cR8IEsP28Xh7i9JXY2ZH72JgY0NPh1Pe7jdP28b5MicSbwGaA610FtDIIdwJ/puu+SR1SB94Fz/PpEz46BX+FwHwQasvyVf6VpW11K14HMjIvziZq5d+UtwIfO8eeW9fT15jX4Mwy7Ejg8i8WdZgsWESnBR1WFQACqbrfx/VV5tdu7kEyfrU3Vw/jRCR/mU/Ou4/4px5P0EqrG6u+LQjxGrLy8xKPgGNe2jap0ClVhFa0Q43mFYY/vgZlANo2yF4B7tP8PnrcVaM5i0eEOd2adf15fvJHfBPyywa8/Y57vZ/3QPs+vH+ERfhL4Gln1XaIV3E1BELTuaQFz5evIbna8w8B9rsGvn9jdnfV9v/af4cL3GHwXmNJXx9ZwDwCPZbFoDfB/IXy2wa8fd+67TiT7Y+APd9gngP8DKrL4lWXg5jcFd5bcrDMh3hLgZrrOFlUAHzO8D8/rZmVcvV/nzfPrTzKz7wMnZPlrz4TYFl2rRURKi3pgyc7Kq6scfdPzqluPTAYpr4yFk2fy0ojruGjxb7jwoT8wrHUToVO+tc+Z4cXjxMrLSr73U1U6SUwzZBazjiwfkkuO759dBXY6uMouFk0CfwuCYG1/b2NT0Bg2+PX/BD7I3od/ecApHp3jyW6Gu259ZAFzgJ8bdnODX3+bwUMOtjiwTpIWwyNBzKVxMSMc73AnG8wDTiW7xAnAA8Df9hqPxhvN9+v/5uDtRImdvcXjbcDkBr/++8DtwNbGoGm3F3zzoQG/3GGzMj2vzu1i/Tl4Y5Y/W0H7H4lm/Ouqumo48Dng+PS2ob/1/fq7HaxN0p6+NfjbK/tU559BnDLPoobjpxj2duDMbhyDWw33SCleD5qCxqTv+39wWB1wYBeLD7MoMXtIQ0PddZ7ZkoN4yr4R7P67gjq/zsVhvOHON7iYridm2Gmpg6bm4DZ9SIuIlBglsEpcVXM4dpfKq7zIEDkgFsL6mhH88PiP8tzI/Xnf/T/m4DVLlMTqB14iTry8TIGQYteGs2cUht1dg2PTiBIsXXk5kwAZEAZLXNT0+5wuFj3MwTHkPoG10xjgI8CFLnqNFw3WxolvdLh4CMPBJjncZGAc3Rt6t9HgR0EQbOr6uLn7wBbTdUNyRzR74MHAo8BfG/z6h4G1QHtmmQQwfB5Md9gc4GRgn/64T7gj+DO+7//GYScTJZm6Uk40fG2WiyZleCRB+dMNft1qokR1BTDKYD+ifmMHkF3l207Pg/tZEDS2leo1wfAed6R/AnwTqOpi8VrgPZg7IcTduYRD7mzwD3nRRedWGohZ9B4YA8wyqCNKVmZb+t0O/Cx0sQW6WouIlB4lsEpY7a02wuCbGOfh8m84qTPoiJdz6/S5vDh8Ch+87wec+szfKUt3KpHVZ0F3xCsqcLFYyYci5cU0G2ZxWwNuo8KwW6fT9SxwGPzDcC8O1EYGQdOWBr/+VqIZy/b2UF0J1DX4dbc3Bs19lYTwgJGZn6MAHM4ycerNheRP4G7LZsHGIFjX4Nf/BDiU7GYHHEzUI+x4op5TW4lmACQTz6FAGQPw5VYQ7cuVRAmnbKtyaoEZ0Y8zXttHy6Nnx6EFuLqTmkdL+YLQFNxivl/3G4c7lqiCrysxokThAUR93tYZbAY6iZKjozLnaLybx8WAGw37UdB4i5pUioiUIGUBSlTtrTbKHN/G4x048jZb4YhuQ5fsewhfO+Nr/PbYd7O5apj6YvVhwBPVVYoDxsaySjq8GGoSW7SewqxFYXitBr9+JFECq6svuNod3NEUBMmBfafyT7JsMG24Kf28eY7eJa/uM7gmM+tilvGwW4Hf0XUT9NffC8YzCYWpmZ99iSqXvIE7tt79mdnoNvQw9rFdfnpyHNqA7xn2+9uC35f8tSEImjcDXwXu6uavlhFVHs4gSu4eSlTNl+jmcQmBvwNfzWyLiIiUICWwSlDtfBthjm/j+H8USBWeZ7ChZgTXnHoJV7z5/1gzaB889Sfqg6ctR6KqEpwqj9aWV9MRU5FqEXuKWLhDYXiDI8hu1r7FYA8N9MYatgr4axaLjnDRrIq9ezl4iqiKpK89Anw2CJq6VeEWBM0thvs20Ux+6X7Yzg3Amr5YcRA0JnH2G8O+Cqzr51OrxeB6wy4PgmZdJzIag6ZngE8SJY7789udzsw5/bHGoOkFHQkRkdKlBFaJqb7Dai3GpTjeSdfNUfOKM0h6CYJDG7is/moeHXM4TtUxub0glCWIVZSXfBw6YwlerB6KebpEFqk08AIzD1MWfBd1/hlxsJOAYVnE767GoHnFQG9zU9CcIqrK2NbFogngZN+vH9yLlwuB7wC/IBpa1heMKHl1cWPQdF9PVhAEwTrDfTqznR19GP5nLEpm3N9XLxA0NifBfmZwKdlV2uXCy8CXwb4ZBM1b+/K2ZmDfPT27f2oMmpYAHwZuJapS62vLgW8a9rHGoOlpXalFREr8eVUhKB3Vd1gVcAnwIQosebXr3V7KS/DAlDl87cyv8tD4YzJ/r0RW7+9ljXhFedT/qpSHaJqxrryKF6qHavRg8VqL8ZLC8Prra1kC3L7ZxM9wzXnzlsUtJrskyr4QDutViGC54T4DfAFyfg6lgGbgf1PEe5UUCoJgNdHsfF8HVud4OzuBvxnufYbdwKt9s/YWupQRC3u2L/M7QmK/A96biU9fJeXagTuAdxvuuiBo3taDczGdOY7ZxLC9D/YhRVaVdy5pxHpcodcYND1j2PuAK/rg/NqpFZhv8P8M960gaN6AiIiUPCWwSkT1HVYLXOaMT9HHU2D3/UNWNKTwsTGH8X/1V3Hr9Do6Y2VKYuVAvLISL1Hqw+aMl6sG83TtiNJO5BW31TglsF4vJN4BPNFFgiAEbvPInxkcgyDY5OBmuq6KehZcb4eiuSAIWkPs+wbvAm4A1vdynR3AQwaXGnywMWh6eH5wc68vPo1B00bDu8qiWYZ/Bayid2n5FPA48CXgndupvbcpaE4DCzPJhj3ZBixuDm7tcdPt5uCW8CGOv8ew9wLvB/5F11V32dpBVMX3P4Z793Zq7w6CINXT7QQWZ3EuLoJwVR+8HTYQDXPdmzZgYVMwv71377vmtYb7DtEsoL8EltH7r30s8376B/BRnPufWO0+PT4eIiJShM+rCkHxq7ndKjA+CXyK7k3fndccsHTYBL791i/SUlbNef/9M7Ewjal/U894HvHqSpznlXbixnn8d/A+rC+vQiVYRWs5JNcoDK81P7g59H3/dw4bBZxGNK297XLJ3Q48AFx7S9DUnk/bbvAnYAgwl2gmwF0/KpLAfwy7NgiaczL0LzN08T7f9x9y0bDLucApwKRM3PY2OUpIVCWzLpPs+LvhbuvELb09aMxpXIKgsQN4wPfrHwKb43D1wAnAwUTNtbPZzi2Z4/5Pw93hsOcbgybbJcA3WdSUey7RTIC2SzJiC3BjLir2lgeXsBw2nu+f89tOUvNdFO+TM/szjajpfFcN2y2zT53AUqLKvX8a7q4gCDbm5lx0N2beQw1Esznu+kHSCiw23PVBcFvOe5QFQZDyff9yh3UCx2aO8a7HYzNwq+H+kKPXawcW+L7/sMOOIpoA4mSi2SNr6XqWQSNKjLYAzwL/MuxuCO8Pglu366osIiK7ywFIEau5w6owPkw03GFwMe5j6GBEywYuvuc65j1yExXJdiWxesBLJBh2wFTKhw4u6QRWSyzBBTPP4bZ991cFVnEKMb7FnOlfVCh2z/f9Kg8bZq9LbjhIhrgtQRC05uN21/sN8RjhcIsSGa895rjNOyjfcVfw593+boNffwRwdxefkyHwlsag6Z9vfO36CgejHUwzONhFCaLRREk1L/O7O4BNwLOGexZsCbjVWxm25e7gl/0Vo4RHOJpopsHDgYMMRjkYmrknTBlsd7ARbIXB4w73tINVKWJbmoNbbA/nTLmHDbc3tCewjhC3oSloSvXN/vgVjnCEw00x2N/B/kTJtOHs8oVdZp82OVhpuKVgTxosN1jXFDS15X676so83EiieOwas5RhWzYxs+Xfwef78DjXVXm44UTv4V1fvyPE29gUNCb76HjEMsdjn8z74LDM8RiROR6OKIG4nSiZtsKwZxzuSYM14NYHAzyzqYiI5Dc95Rexmr9aOSEfBT5PdHNavE+kDoa0beO9C37Kuxb9murOFiWxusOMRE01Iw7ZH6+srKTj8MiQfTh7zttYWTVICazi1I5xEXOm36xQyE69TWDt6nB/BhOZ7Bxu56eQI3M1MbAqsBuCpgHf57f79bSBC8F5u2xnGP2HhbRZc3BnQR3H8/x6l8l+OLfLPW4I5sAqwcqA3+RB/EvB+X49ndFxeM17Yec5Bp0WBHcoUCIikjUNISxSNXdYFSEfIqq8GlLs++sZbK0cxI+P/whbKofy4XuvZ3DbViWxsuUc8coKvESi5OPQNOYAVlfUKHlVvHbgTDNZSZ95JHicR3g8k6/KX3+Mkjh5v53dceOrQxt1Ac8DfynCc0xERAb4uV8hKD41f7VyjA8RVV4NKZX9dgZtZZX88ZiL+MEJH2NHeQ1OSYisJWqqXv2OtBSZsbxyEH8fNYXQi+mEKF7PY269wiAiIiIiUlhUgVVkSq3y6vWcQUesnBuOvggwPqJKrOzi5nmU1dRECaxSTfo5+MeoyTw4dExmgIMU6XF+nBhqDiwiIiIiUmBUgVVEqueHJVl59cbnU+hIlHHDMRfxgxMuViVWFmLlZcQqyks6BpvKqvj9hBl0xpTXL2rGEo6d3qZAiIiIiIgUFiWwikT17VaOe6Xyamipx8MZdMTL+dPRF/GrWf9LR6JcSaw9PtAbiZoqYol4Cfd9Mv45chIPD9lXnTqK20aiqdpFRERERKTAKIFVBKput7iDdznPfZYSrrx6PWfQnijnNzPfze+PfhepWByn7MRuAuUoq67GxUq075MZqytq+cWkw9mSqEQZrKK2nBA1cBcRERERKUBKYBW46tut3IP3AN8ERikir+UMtlYO5qfHf4ibDj+fzliZklivvwgk4sSrS7uB+99GT+WfIyej5FXRW0raXlYYREREREQK8NlVIShcg283z8GFwDeAkYrIHk5yg01VQ/neyZ9k/vR60k4zzL3CjFhZGWXVVSU6fNBYVTmIn086Qr2vil8IPMaJM9IKhYiIiIhIAT7bKwSFqepW89JwFvBVVHnV9YlusL5mBNee8inu3v9UBWQn50hUV+ElSjN5k3IxfjL5SBYNG1fC/b9KRgewWGEQERERESnQ53qFoPBUNJvzPM4EvgtMVESyPNkN1gzah+tP+gSPjj0cz0IFBSirrSnN4YMW8uCwMfx24mGkPF0KS8B6sCcVBhERERGRAn2mVwgKS9Wt5sXjnAVcB0xVRLp5whs8tc9BfOP0L/PEvjNKfmZCLxEv2QTWprIqrp96LEurhqj6qjQ8grlNCoOIiIiISIE+vyoEhcV5vAm4GpiiaPQwhgaPjTmM7538SVYP3rd0K7HMSFRXEStPlFwCJ+0cfxw/g/n77q83ROn4D4cmtygMIiIiIiKFSQmsQnGnuarb7RSiyis9dfeSA/497SR+cOLH2Fw1tDRnJnSOsppqvESitPbbjIeGjOEHU4+mJV6GZh4sCdsxHqfmCEVC9mRb5mdv1gBbFSoRERGRgaEEVoGoSnGKg+85OFjRyI20F6Nphs+fjnoHnbGykktiebEYiZrqEhs+aKwvr+LyA+bw9KCRGjpYOl7GWKIwyJ5vhtxy4BpgOdAGtL7uZ5NhPzHsKUVLREREZGBo3vh8d6e5qhQnO7heyavccgYdiQp+Oet/GLZjA+c8elPpDCc0I1ZRHvW/KqEkTtLFuH7asdHQQSWvSsmLJNJLFQbZk5uDoNP3634I7j6wCa//uAC3Hng4CJpbFS0RERGRgaEEVp7LVF5dp+RV33AGm6uG8tPjP8ykTUs5dtkirBQqkpwjUVNFrKyEhg+aceuY/fjZpCNJuRgaOlgyQoxFHHtYh0IhexMEzZ3AQ5kfEREREckzGkKYr/4W9bzKVF5NV0D68E1g8PKwCVx96qU8N2r/kqnCKh88qHSGD5rx36H78I0DT2BNZS1KXpWUVowHFAYRERERkQJ/dlcI8lN1mpPU86r/OIP/jj+Snxz3YTZVDcMV+fCyWFkZieqq0khgmbG2ooZvHHgi/xk6RkMHS89LePaswiAiIiIiUtiUwMpDtbfasQ6uVuVVPzO44+Az+c3M99AZL+Km7maUDaohXlFeEsmctniCbxx4Ak37HqDkVWl6AM82KgwiIiIiIoVNCaw8U3OrzTTH94EjFY3+5YBkPMENR1/EXw86s3hHmXkeZbU1uFis6I9p0nn8dsKh/H7CoaQ9Xe5KUBp4lJmHtisUIiIiIiIF/iirEOSP2lvtWDx+gOMYRWNgOINNVUP58Qkf5tGxhxXfUEKDWFmC8sG1xX8wzbhl7IF88eBT2JKoUPVVaVqJ8YjCICIiIiJS+JTAyhM1t9tB5nEVcJSiMcBvCoPnR+7Hj064mPW1o4quqXu8spJ4VWVxH0Qz7h8xga8ddBLrK6pR0/aS9SJpe1RhEBEREREpfDGFYOBV32H7OfgucKqikR8csHzoRDwLOXr5YmLFksRyULPv6OKuwDJj4fBxfOKw03h08D4oeVWyDPgTx834q0IhIiIiIlL4VIE1wKrvsP2ccQ1wmqKRX1KxGDcecQH/2P8tRTOU0IvHKautLt7ZB814atBILp3xZhYPG4uSVyWtDewfCoOIiIiISHFQAmsAVTelpzjjWuAsHYv84ww2VQ/lBydezNOjDyr8oYRmJGqqiFcWaT8oM1ZUDeLzh5zCvSMmqueVPI+5ZxUGEREREZHioKTJAKm5wya4uPdtosorp4jk6RvE4NnRB/DL2f/L1orBhV2J5Rzlg2rxEoniO1BmrC+v5ssHn0zTmAOUvBIwFpK2DQqEiIiIiEhxUA+sAVBzh43HuBLHeToGheGl4VOoSrZy+MpHMv2wCi/nGCsro3b8GGIVZcV1cMxYV1HN56a/id9NPIy0U15eaMXxfY6b8R+FQkRERESkOOhJr5/V3GETMC4HzlH8C4MDOhLl3HDUO3hk7BGFOZTQIF5VSaK6qrjaQpmxvqKaLx58Cr+ZeBhJJa8kspSQhxQGEREREZHioae9fpSpvLoCuACIKyKFwxmsHDKWnxz/YdbU7lt4QwkdVAwbgvOK6C2fqbz67CFv4leTDiflVMwor/gvaXtOYRARERERKR564usnu1Renau4F66VQ8aRSHdy1IqHiVuaQhlKGCsvo3bcvsTKy4vjQOxSefXrSYeTUuWVvCoJXMvxMx5RKEREREREioee+vqBKq+KgwNSsTg3HP0O/j31pMKpwjKjrLameGYfNGN1Za0qr2RPlgP3KQwiIiIiIsVFCaw+Vn2H7YvxTdTzqig4g81VQ/nl7PexfOiEgkhiuZhH+eBaXKwYEj3GsuohXDLjzbv0vNKMg/Ia9+HcGoVBRERERKS4qHShD1XfbqMcfAN4F6q8KhoOWDtoH7zQOGb5g8TDFHk7lNAgXllB7fixeIkCPwXNeHzwaD56+Bncuu8BGjYou9MOfJ/Z0xcrFCIiIiIixUVPgH2k+nYb7eDrRMkrJQqLTNrFCA6bxwOTj8/vKiwHZYNqiFcUeO8rMxYNH8fFh5/BXaOnknJOJ6HszjLgQYVBRERERKT4KIHVB6puTA13xteA/wHKFJHi44CN1cP4zcz3sLZ2n7xNYjnPo2LYUPAKOOFjxj0jJ/HRw07nnpETi6OPl/SVh3HuGYVBRERERKT4KIGVY9W3W41XFfskTpVXxc4ZPDThGBoPm0fai+HyrReTGfHKChLVVRTKbImvl3aOP42fzvuPPIuHho5V8kr2pgPjVmYdklYoRERERESKjxJYOVR9m1U7uATHp4AKRaS4OaAzXsYfj76IhyccnX9VWM5RMXRwNHyw4BI/RrsX4xeTjuBjh5/Os7UjULN26cIyHIsUBhERERGR4qTG4jlSeVO6xjk+A3waqFRESoMzWDV4DL+a9T9MW/8cw1o2YXnSn8lLxCkfOjjKtBVS7seMDeVVfG/aTH445Wg2llWp8kqy8Q88VikMIiKyN/V+XdzDahxepUX37JVAbfSn1VrU/qO2u7eEQNrh1gNL8MKVjbfMT/V0G8/yz6OMziHAVMMOBMqzuZtzsAXccpw909jYvF1HW0SK7vlbIei98tusIh7ap13MfR4lr0qOOahItnPZXd/i7Q/9Pk82CsqHDGL4wfvhYgU0ktWMpdVD+MaBJ/LbiYeSdDFUeSVZ2AC8m9nTb1MoRERkpwa/HsNVg01wsB8wBRgPTAX2yfwMI/pS373upydC4BmwqzzshpuDniWxGnz/WLBLgTcBNd27A2QHcLPDvn5L0LxcZ4GIFBMlsHqp8g6r8IyPOvg8MEQRKU3mYL91z3LNzR/jwHVPE7qBH507ZOpEqvcdXTgxBB4eui+fPeRN3DNyEkmnEc6StYW4sI5Zh65XKERESluDXx8jSkztD5wCzAQmAKOBwfRPC5V1wJdCUr9oCm7rVhJrnu8fZdiPgaN78fop4CaHXXJL0LxCZ4WIFAs1Ge+FijusIhYlr76Y+UCUEhXNSjgc52DOS/cTs3DgNsYgXlVBzbgxxMoKYRJMI+Vi3DL2ID49460sHDGeULl1yV4I/JRtq//K73+naIiIlCjf98sPOvCAOcD/Et2bf5yogmkaMIJolER/3WBUA4c63IKnn34m6wRSg19XCXwBmNvL1/eAg8G1HXTw/v96+qlndYKISFFQD6we2iV59Xlg0IBtyM7+Rm63eQHpR+bgrwedwYnP38Opz9w1gFVYRvng2sJo3m7GlrJKfj3xMK7Yfw6rK2vV70q6ax1wO6e9VZEQGSCn+W+jB4kB+1twg4InvTbPrxtuuJPA3gkcA+xLfkxUNQE4/mR/yoJ/BS9me2M/Ejg1R6/vAW8mjF0LbNSZIiLFQAmsHnhd5VXuklfuNTmIN/63GRYCaYue8UN74785cJ57zUeXcy76CPMcLuZ2/3p7e33J7i7Boiqs3x/zLmasfJSRO9YPSEN3LxGnYuiQqPdVPieDzHixZhjfPOA4bhg/nbZ4mZJX0hP3gb2gMIj0rwa/fhgwBzgQWof04J4ybPDrW4AXHTyQwnu5OWjUh4Bkzff9hMNONLgYeAtQlYebuc9gDkrAi8ksly8nqhbLleFg+6AElogUCSWwuilnlVe75jXShqV3/mlYMsQ6Q8LOEJKGdWb+Pm2vJq2M1zzs286/c/CanIlzr2tJGSWxXNzhEg7iDpfwcInMn3EXJcBivJrwUmIra57BgxNncvshZ/OuB389MG/qykrKBud3JVOI455Rk/jKQSdx74gJ0Wml5JV0Xwswn9kztioUIv2nwa/fH/g68Gai/p+9qXbZYfBYjPTV586bN/+mW25JKsKyNxf681wH4RSwjwIXEFVcyR5vTcOEwiAixUIJrG7IJK8+0u3Kq50JoEySydKGtacJ20OsIyRsS0dJqo4ocWWhvbr8rn9m8zqW5eJuN//tyCS3PFz5zsSWhytzuHIPV+bhlUXJLnZWeblubmMJaE+UccPR72DW0gUcuPZJQte/reYqhg3Bi+fpW9uMlngZfxw/nW8deAJLq4cocSW98SQe/1AYRPpPg18/CrgaODtHq6wB5oCbkA7DNuAORVn2xPfr452kTwa+CswiP4YKiohIP1ECK0uDmi0RhrwHx2fJNnnliKqqkkbYERLuSBG2pKOEVdKwlEF6l4yT28t6stWTEWu7JMosNCyZhtbXrtPFMtVasahyy1XG8Co8vMpYlNyKR1Vd7ByiWMI5iVgILw2fyk1HXMCn/3E5Fal2rJ96hsbKy6gYOjiqvMu7xJCxrHoI3zrgeP487hC2JiqUvJLenVDwD0JbpVCUjrP9c3v6SfcatwY36eLT87eeD+70PljxOLBLG/z6xY1B0wbFWV7P9/0Kh/2PwWeASYqIiEjpUQIrC4MbLZ6O8V4cXweG73HBnQ3VQyNsixJW6e0pwtY0YWsYDf/b+di16y14Pk649rptsrRByl7NS21NvbKciztcRQwvk9RylbsktrxdhjDuuu8l8GTdPKOe4174N6c898/+6YVlUD5kEPGqyjxLDBkhHv8cNZlvHHgC946YSJiXCTYpMKvBbmL2DJ1IRe5cfy4pvFEOZkHy4MzncG+qLpINfv1KsKcMeygI5m9RlLMzr6E+ZsZxfXj/eBS4/QElsOQ1fN8vd9gHgK8QDVsVEZESpARWF2rnWyLt8T84vsqeklcOSBlhe0h6W4r0lmRmWGAIafbeLL2Q7GGmQ0sa1pki3JZ6tVorEQ1F9Ko8vOoYXnUcrzwz/LAEqrQcsKlqKDcecQFHLX+I2vbtfZ7EcvEYFUOH5lfzdjM2lFfxuwmHcu20mby8c8igklfS63OLv5G2pxSI4naO71elsXoHHwKmZx5cc3ExTYLb7HCPNPh113hw981Bc6civndhVE48tA8/zWJGOFaRll1lklcfBr6AklciIiVNCay9+hWh2fnOua/z+hlBdvab6ng1aZXemsKSIYS7LONKJFS77Oer1Voh4Y7MP8ccrsLDq4pFCa2q6MclvKKt0HLAgsnH8beDzuCcR27s89dLVFdRnjfN26OhsU8MHs3XDzyBYMwBdMbiSlxJrmzCI2DOoa0KRfGq9/14iL2Pvqm4SACjgLeCm27wyXf5b7vxt8ENukjt/cqO69ueQ6V05yRZ8P36mIuuA19CySsRkZKnBNYeVP3VPGfUOeNr7Jq8yvS1ClvTpDcnSW1KYm1hlLTJ5yGB/W03QxCtJU24Ix1VaWVmPfQqY3iDMhVaFR4u7kUzIBbBI4Qz2F5Rw5+OehvHvXgv+25d3adVWJUjhuEl8uAtbca2RDnBmAO5Zr9ZPDZ4HwxVXUlOPYhT8/Zi52FvBS7ph4fWMQaf307rEmCJIi+SHz5y7mdYlXrutH66DoiISAFQAmt3HjLces52xtXAFCCTuIL09hSp9R2kNyexpL3ydaSSVlnaOXowaVhnmrA1DRszFVqZqqxYbTyq0qqMRd/zFnB1lmfw5D4zuO2QOv53wU/65kXMiFdXUTFk0AA3b4/eD08OGsl395vFn8cdwvZEuRJXkmtpYD4zp7coFMWrwa+vAt4F9NdwskOBdwL/p+iL5IdVqeenAt8AJigaIiICmnr2DYbcZa561+SVA0IjvTVFx4stdDzXQmpdZ5S8AiWueuN1ww7DbSlSazroeLGV9qd30P7MDpIr2qJkYUf4arKwwCRjMW4+/DyeGn0wnoV9EEdH+aBaYpUDOKufGa2xBDePO5iLjmngl5OOYHu8TMkr6QuLwW5VGIqdHQWc0M8veprv1+2n2IsMvHm+XwV2CXBEge/KmjbWpHRERURyQxVYr5NKcYozvoNjGiGkt76u4kr6zs7kVGhYu5HuCElvTuJiLuqZVRPDq40Tq43jynbpnZXnh8UzeGHEVJpn+Exb/xyJMInlMBPnJeJUjhyOcwOR3YtmpnypZijXTpvJ7yYcypaySiWupK+kgVuYPeNlhaJ4ne3Pc5A+DRjTzy99qIPZwHM6CiIDy7DTgXMLfDdeAO/uO4OHdVMkIpKrZ1+FIFLzN3M1d9ibMb4LHBK2pulc1vrGiivpH6+rzkpvS5Fc1UHHC620P7WDjudbSK3vJGxNY6Hlf2WWgzsOPotnRh2Iy3Fyp6y2hrLa6gG4uzS2xcv53YTDOG/mefxw6jFsSVQoeSV96RlCmhWG4pYgNQU4c2DuiZw/Lxq+KCIDpMGvHwF8kD3N/l0YNhp8By/2Xx1REZHcUQXWTiEnA9dayg5Jb+gkuaYj6s8k+WFngipthC1R76zUhk68Cg+vOk5sUBxvUByvYpe+WXmUR3EGqwaP4c9HvY39/vos5emOnFRhOc+jcsQwnNePuWgzzDmeUq8r6X+34ak6pgQcARw0QK89M8QOBh7SYRAZMG8Bjh+Qp4FXf3p6U9MBPG7wMyO8IbjlZj1MiIjkUMknsGr+ag7jVEKuCXekDulc2U56SwrSpv5W+WqXpu5hW0jY2klqYyeuzCNWEyM2rCwabljuQczlTSLLHNx50Gm86dl/8KZn/977GQnNSNRUUT64H5u3m7GpvIqbxx7E9VOOYcngUYSZvxfpY8tw3MCs6aFCUbwa/PoK4BygYoA2YbTDnTnXP/Xh+cE/dGET6f9rwEjgPUBlP7xcCKwFlgLPgL1guBUONgNb6f4dpAO2Gqw2vHVNQZM+r0REckwVWI6TLWnXptZ1HpJa3U7YHr76ESSFcgyjCfDaQ1IdIalNyagyqzZObHCC2KBMz6ydRUoD9EjiGWyqGsYth53DMcsWUdO5o3dVWJ5HxZDBxMr7oVm6GSnP46Fh47hqv1ncsc80WtWkXfrXTcR4QmEoboZNc7jZA7gJMeC0GFW/BtRrTaT/HQsc08ev0QE8DjQa9gDwmMPbnKLd5gd/0xEQEcljJZvAGny/ufR2Tg23pa9Jru44JLWhE0I9jBe03VVmbUjilXt4tTHimcqsVxrAD8DhdgYLphzP4okze12FFS8vp3Jk37eHMODl6iH8YtIR/HriYaysHEyIKXkl/elFHDdwzPSkQlHsl3E3Fxg3wJtxuMObjhJYIv2qwZ9bQdT/bkgf3tI8BfzQcIHh1jQFjRriJyJSQEo2gZXaYselNyW/m1zZMT3codlti/RJCEIjbE0TtqVJbUgS2zmT4ZAEsdoYeK5fk1kO2FpRS+POKqyOHT1OYpUPGUSsorzvNtaMlkQZwb4H8oMpR7N42FhSnqfElQyEJhxqhFv0D691+xL1vokN8KZUAXUNft1djUGzkqYi/cYbDby5j1YeAvMNvhxn2KM3Bb9SuEVEClBJJrCqbk7NSr7cfk1qQ+d069Dw9KK3Mz8UGumtKdLbUqTWdUTN34cmiA3ONH+P0S+JLAcsnDSbhZNm85Zn7uzRMEIvkaByZKZ5e84TSkaHF+fhoWO4buqx/G2faWxNVICFSl7JQFiG43fMVO+rEnAwcHSebMtphpsIPK/DItJfbBa48X2w4hRwi2GXBUHzUsVZRKRwlVwCq/J3ncckl7d/L70leYwl1ai95GSOtyWN9JYk6S1JvMoY3qA48SFxvEEJXKJvq7KcweaqITQf2sCspQt61AurfMggymqqc5tQMsMcLK8awk8nHcnvJszg5eohURxMuQMZECngd3gsUSiKm+/XxcA1ALV5skn7OjgNJbBe+/nlnDmzHX34EiGwQ5Eu2TPsJPqmefvDSl6JiBQHr5R2NnFty7GdK9uvT21KHmMpJa8kc7fcmia1poOO51tpf2oHncvbCbenop5ofXSOOIP7p5zAA1OOw3UzCeViHhXDhuBiORxlY8aG8ip+OelI5s06jysPmJNJXhl5M42jlKLHcPySY6d3KhRF/+A6CTg1jzaoHHir7589TMfmVUFjkAYWEyWa+sJLDve0Il16fN/fB5jRB6veCHxTySsRkeJQMhVYsW9unZbe0nm5pW2mnsfltc9N0R+WNmxHinBHitRaj9iQzCyGQ3JfleWArZU1/Omod3D0yw8xrGVj1r2wymqqqRg6ODcbYiGt8TL+OXIyP518JHeOnkpHLB4lrjRcUAZWGvgls6a/pFCUxGX4VGBSnm3WTEdsOvBvHaFdPjbgrw7+Bzgox6tuA36dJr1MUS7Fa4BNJPcTOBjR0MG7FWERkeJQEhVY7vOb9g/b0tdayk5S8kqyuuPpDEmt7aTjhVban9pOckVUlWU5rMryQnh4/NEsmDwHL9shes5ROWoEXryXuWczOr0YDw4fzycPPY13HeMzf8wBdHgxJa4kXzwANl9hKH6+Xz+IKIFVkWebNhqszvfPjusovSYj8LRh/0dUidWRg1WmgBcNvg38qjm4VbPClaaJwL45Xudagz8GQbOGpYqIFImivylzn980Fcd3gTPQoEHp1slDNIvhjjSdO9pwazxig+PER5Th1cZx8d5VZTmgtaySvx50Bic9d3fXvbDMSFRXUT6oFpzrWaLJDHOOpwaP4meTjuCWMQfyctXgaGuUuJL8sQX4EUNnvKxQlMSldgZwcp5u3akQGw6s1ZGKNAVN6bP885oTJJ9x2BzgAGAIWA/uKV0r8KLh7nfO+29j4y2aFroEDfJ/DsyfQjR0N5ceIkq0iohIkSjqBJb74qYJGFcBZ+pQS29ZZ0hqXSfpTUm8mhixYWXRDIZVPe9F5QwWTDmeByfO5NRn/445h+O1mdZXulB5HpXDhxKvrOhBsskIcSyrHsotYw/kJ5OP4sWaYaRfSYQpeSV55V8Y8zlQgSh2df6ZDngzMDJPN3Gai7bvDzpar7otuBHgmbn+Oc94WBxScQh78CWhlzbKOpuDmxTUEnYKt1YC++V4tSFwexA0tSjCIiLFo2gTWO6Lm8ZhXAnM1WGW3J1YUa+s9NYU6a0pvKoYsSEJYsMSxGpi4Lnuro6tFbUEh5/Lkcsfgo4WVsbK2eLipJwjbsbosJMx6U5qK8upHjW8e9trhgErqwZz49iDuGH8dB4Zsg/JnUMFVXUl+WcZjuuZPV1DPkqAR2IUcBb5WyFdA5zu+2ffEgS3tumIvdb84GaIhgCqckp6cR2wCnLfA2+9wYOKrohIcSnKBJb74qYxmeTVuZTYTIvSv8KWdDSL4fqOKJE1NEFscByXyP60c2Y8UT2KXw4/kG1b1rI5liCFw3A4jDKM4WGSE6sdJ7sEo7N+0jPWVNZwx+hp/GTyUfx3yD50xhJgoRJXkrdvKeBPWOpehaI0uGjo4AF5vpknO2KHEA1HEpEcMyh3UQ+sXHocbIWiKyJSXIougeV9YVOVGZcB56DklfTD0xeAJY3U+k5SG5PEaqPhhfFhCVy5t+c+WQ68VCf7PPE39n2smSdbtkG84jWrNhwdwPZYjOUd8J+V7TSMKOOY2gRxt/vbQDPYnqjg9n2m8bPJR/LA8HG0xxKZiqtQx0zy2X8J7Sccd3hSoSh+vj+3imh43qAcrrYDeIkoKZarqq4xYCe81T/uoTuD+3XgRHJ/K1UFDM7xap8NSW5QdEVEiktRJbC8L2yuMuwjwHuBhA6v9LvQSG9Jkd6WIrUmRnxEgtiwMrxK7w3DC71UJ2MfaWLC4j8R79iBOW93N3W7rprHW1Ks6Ejz9lHG6cPKXpvEMmNzWSX/GjmRX008nHtGTmRbolIVV1IotgPXctyMlxSKUnlo9fYD3prj1T4NXAVcQe5mNPPAza1i2G+ATTpyIrlluJGuR5MA7NXy5uAOzWgpIlJkiieB9enVzszejuOzRD0rRAbqqQwMwrY0ncvTuPWdxAYliI8qi/pkxRwYjF5yFxMW/4lYR8tuk1d7eIpic8r4y/oOxpR5HFkbwwy2lVVw98hJ/GbCYdw9chJbyypUcSWF9fwCjWC3KhQl5RRgXI7Xebfh7nTYhUS9tXLlMHCzgNt12ERyLRwMLpbDFbYatkZxFREpPsUxxO6Kbc5Vlp+K43PAUB1Wyasn87aQ1LoOOp7ZQccLraQ2pahZ9SzjHg2Id+wA57r9pl2fDLlxQwdPx2v4/cTDuODYc3jPUfUEYw9ka6JCFVdSaJbguJbZM7YoFKXB9/1BQF2O70M2An8LgmAd8Fei4YS5MszhzmxomKvqbpHcq83xtaADVUuKiBSloqjActtSBwHfBCbrkEr+naDRHzv7ZIWbOhiy7l4qN6/IuvLq9TzgqdaQTw49kHuOOo02L65ZBaVQbQeuJ9z6X4WilC6LNgs4JMerfcxwizP/fSvwqRzfF5yIeVOAZ3QERXJ6RagFclmB1Q5sVlxFRIpPwVdguc9tHAV8GThGh1MK4bEt3r6dkWsexNG7ZFMqlWLl+i10pNTjSgpWNHTQsxuZc5yiUSLq/bllwFxgVA5XmyKqvtoYnVi2Bvhnjjf9YGCmjqBIzj8KYjleYYfDbVFcRUSKT2EnsL60uQLnPgD45G62IZE+VdW5jvLkZnqdcnKOIWtXU7l1CzhNuCkF6Qmw7zJzhr4pL6kbD28scFKOV7sG3Cs91IKguR24Ddiaw9eIAW/z/boqHUWRvBYaoWazFREpyvvIAuZCm4vjE0CZDqUUAgMqO9YRy8F9lQFlLdtJtLcqfSuFaBPwbWbPeEShKDnHAwfleJ33OmzZa6+R7kEg1+fXocB0HUIRERGR/lewCSz3+c0HA/8HDNNhlIJ601kKyM3sgF4Y4kLNNCgFx4Dfk7ZAoSgtvj+3nKhqOpc9OHcYBLcETTt2/csgCFYC/8rZBTcy2uFOO8s/S18biIiIiPT3s3RBbvQXNgzH2WeBI3QIpdCkvAosR7NFpxMJwnhcQZVC8w8Ir+T4GW0KRWlxuGPJfR+pZ8At2sO/NQMbcvhaMeCMBLHxOpoiIiIi/avwEliXrHVm7kLU90oK8uENWiv2IfR6PxO7M6OjZhDJymo1cZdC8hTwVWYfukKhKC1v9d/uwJ0KjM3hag24B1ix+390zwL353hXDnW4I3VERURERPpXwSWwXHliNs59DKjR4ZNC1FY2ipbyMbgc5Jy27juWtsFDlMCSQrEZuJzZ0+9TKEpPFa37Aqfm/pyym4MgSO/uH4Mg2AEEQGcOX7MaqPP9uoSOqoiIiEj/KagElvfFzaOAS4D9deik4JgHLiQ1dCurZgwhnehFAaEZqapqNh9yKCT0DCUFIQX2PSz5J4WiNDnsaOCoHK92kUVVfXu+XOIeAp7N8eue6GCSjqqIiIhI/ymY5jmJL65wKQsvBHeGDpsUFHMQS8GQZbixT+AmP8SG5Hq2rI8z/NkU1oM0ssPYfOgRtB89ixocnW1tpDo7SadSirfkozTwB8z9gDlHdCgcpcf36xPAOUBljs+r24KgefNeL8G4Zxz2D3I7e+BEcPXAVTq6IiIiIv2jYCqwUmHl0eA+BJTrsElBMA+8NAxfhjviFrzjf4E34zZc7Vo6hhovvqWS1hFet4cSujBkx8QprDy9jnRlFfHycqoGD6Z66FAqamvx4nGcU3s4ySv3YvZl5kxfr1CU7AVxGjA7xyt93uDerhZqChrTBrcBW3P42nHgTb5fN1LHVkRERKR/FEQFlveFDcMM9wngQB0yyf/nNAcuhGHLcFMW4o1/FKo2g7Po3zIJq037xXl6XhX7N7dRszYd/fXe8k5m4BzbJ09j2XkX0Tp2Ai7MzA7vHLFEgspEgvLKSpIdHXS2t5Pq7FR/LBloj+Hss8yesUyhKF0O9yZgYo5Xez94T2S5BQ+DPQ4cn8PXP9rBIcC/dIRFRAqH7zfEIF0LNgzcYA9XCVRZVCVcvoc78hTQ5qDDsO0G28C2gbclCJraFVWR/lEQCSzDezNQp8Ml+X2iZhJXg9bhJi3GTXoIV7uOKGPlon9/nfUHJ0iXOSb9s50hLyZJdOx63mc+PTP/0VlTw6Yjj2XNKafTOnbPM7h78Tjl8TiJigpSnZ0k29tJdnRgO5NdIv3nObCPw7pFCkXpaoiqlOqAshyutg3s9iBozOrCFgTBpga/vpHcJrBGAmfW+3P/3RTM1wVWpDe3+jlfn4WKhdT7Zyc8vGpwwwzGO+wAcFMgnAZuOLjBQI1BBdFPOXse7ZMCOgw6wbU42AGuBdjW4NevAF407BmHewFYDeGOFG1t84O/65iK5FDeJ7C8L2yeZNhlaNZBydtbDRdVV9VsxE34D960+6F2Pbh0NIyQvQ/n27RfnG2jKxn6YJoRz6ep3QzlrQ4vhHQcOiqNbcONzUfOoH3mRYTl1bgs7su8WIyyykoSFRWkOzujiqyODvXJkv6yFuyLJNv/xYmnKhql7UDgmByv8xFw3Z3N8l/A88C03G2GO93BD4CSrTD0/QYP0mM83EQglu3vhdhmCF8Igltb82+fLgDa9vFwU7PdJ8PSBqvBWx4EQbJ/ttNPQHoYMAhcpYNKh8u21YYZts1wS4OgaWv2rznPQWqMgwkOl4tZZMzgAHLb1qTK4c2a59eP7vImLL+EwATrxvtIdvu+qHTYFOCwzM+hwHQHQ8CVZZ5/e3K+lRPNQrsnaYfrBNqAl8E9Fqf6Pw1+/WMGT0Ll2iAojnls6n3fc4STPdzYrN/o2AbDeyEIgo4iP/9ikB7j8Ma6Lr64M6zDcKvAWxUEjenijkvdIAfTHC7bnI4Z4VojfCEIbntNbPL6ou6+tLGc0H0O+CygqdYkv5iL3kFVm3ET/oOb+DBu6PKoYbt1760Vbu0gXNOClzbKW6CsLcqJhTHorICOKsNVjKJ66meIV02iR1/QmZFOpUh2dJBsbyedTGIaXih9YzNmX8aFP2H2YZ0KR+lq8H0P7Arg0zle9ZeTlH391uDGrC9ivu+XO+xXwNtyuB0twIcbg6bflubxrd8X+CjwFmAfogfvbI/JdmAJ2PVxL3HfjbfcnM6TfRoNvA84ExiX5T45okkFNgIPAD9qDJqeyMX2vNV/O9W0lAO1wEjDDnK4/YEpme0bnHmo3lk9Upbl9lrm/H3WYdeHeP8IgiCdRWw+AJwFjM7cm+fiRqI6sx+5ei5JA5uAQvz8iQOjchiLF4zw3CCY/0ixXofm+ue6OJ2VREn044DTgYOByZn3xUAKgXXAC8DDYHcBD3rYxpuD+QWZsGjw66dmrgNvBUZk+1gPbAEeAn64lepF/wz+WIyfifsD/wOcnOU1sjPzubEIZz+tTCUf++P8O4oqJr7vVzvsbcD5mc+tiizPlxDYDDQafC8Imjbu+o95y31h40xwNwLj9RggeXRmRpei8h24cY/h9rsPN2w5eEl6NKVgOiS9YjvWmnr1XbnznWmv/bN89FlUjXs7uN59OWdh+EoiK9XRQajhhZI7mzD7BqH9kOMP1YyDJc7368Y73Hyib8FzZaXB24Og6d/d3576ixz8lNzOhvi7EPtgU9DcWkrHtsGvHwtcDlxA7yr6XwQ+tia1+LYFt64a6H0aCnwXeDs9/+LUgIXARxqDpv/2dFvqfT/hYZOIqhdnAUcB+xGNSCgjt1U6y4HPNgZNf9hLbMZlYuNTQLOYS/EmsHz/HAfJfR1uDnA28KZM0qAsTzfZgFbgceA2sL8Z6ceC4LaCuVdq8OsPBn5MlCjsadXkk+C+EnNe002NtxTFl5wn++9mKJvnEM1MPLMHsTHgQYd9/JageVHxvEf9CoddClwGVPVwNZ3AHwz7ZBA0byWvP4A+v6EK3PtR8kry6qPHg0Qbbp+ncVMX4PZ5BuIdmebsPbuOW0sSa0+/9hK221x9SHLLQ6SGHUe8Zlqv2js4z3vN8MKdyawwnVZVlvTG5ih5xY+VvBIAhzuFnA7ZA2Bx1JS9J9vDPcBTwJE53J63eHAQ8HCpHNcG/2wHvJ/eJ68g+kb2y6PjRz8NzS8M8If8XHAX0ruqf0c04+anfb/uQ0HQvD3bX6zz57kY6RHAiWBnEyWtppHbhOvujAc+5/t1TwZB8xuSbuf681ya9LuBBjS8TQbYOf5cL8QbA6kGcBcQTaYxpCA+EqNqw1nAMeDe64j/u8Gv/xXOHmpsbG7J72TEWXHgncAJvVzVwWBXpy29DfhbMZyTQ9k8Bbg6c2x7em7MNNxVvl/3gSBofrIY4uJhZxlcTM+TVxAlpM8Hdyfwp2i9+XvTeyZwji7TkhcyDdrd6GfwZv4Bb/ZvcOMeg1hHt4cLvkZohNuTEFpWl4GwYw2dm+6HMDftNZxzxMvLqRw0iJrhw6kcPJhERQXO83TMpbs2Yfb1qPJqRpvCIQ1+/SCioUbVOVxtJ3BbEAQ9utEP8VYDua7PHw3uref6p7tSObZGvJZo+Eiuvgg93EXrG8jztQzcuey5gXN3neGiYUxZPhz6o2Kk/xf4I/Bb4P8BM+j75NUrD5UOd/ru/iFNupqowkXJKxkwZ/gXMM+vGx/ifQRoJKp2OY7CSF69XoxoiOO7gJsx9/0Gv/7Uhoa6inzdYEdsCFFyPhfGAx/2/fryQj8v5/pvJXO9npmD1R3ncG+vj5KFBc33/VqD88h+mOneVDs4o86f56In4nz0+Y0jwL2DaDy8yADepWeeR4aswjvyZrw5v8FNWgyJnYmrXjyvOLC2FNbSverZ5OYHSbctJ9cjgL1YjPKqKqqHDKF66FAqamqIxeM453QeSBfnstvsnPsGoanySna1H73/pvb1XgL+3tNfbgoaU0RVWBtyel8PZ6YoG1pCx3ZEjh8a4+AmDejHPW4kMDGHq6yxqDJvr+b5dYMa/Pp3OOwPwPXAm4m+rR6ID9+J9f5Z5buJzT5Es26KDIgGv76mgvZ5hvsDcCVwNPk7VLC7nx/DgXcDv8fcVxv8+mnn+HPz8BndxXP8bD7dYfsV+gGMUTWM6AsYl6Pz4TSP+KjCP7FtPHBEDldZ7TLDnfIygeWcq8PxFl2uZUA/T8xB5VbcAf8kdsLPcAf8C6o39Xio4BuERri1A9LWre0KO9fTsfFesL6ZTdB5Holdq7IGDSJRUYGnqizZDS8W2x4vT3w7XlnxA44/VJVXsqvTifqR5NKdIV6vGiUZbhGwOMfbdbCLKgFK5q1PbhMszgZ+sp5c95Xy9vawd7Z/Lg1+/WGGuxb4CVHiaoCrESy+h5ucclR9JQNknu8fTjTb66+IvhQpL9Jd3Qe4BLg5xHuH7/t5VY1lWCvYSzlc5b7gji78J0Y7ApiUw1UeBHZgEZzPRwJTc7i+F5syMzXm3ROp++LGscBF5HbIgUg3rtAexNtw4x/FO+7XeEcEMHhN5t9yd79uyRBr7clQwJDklsWkWpeB69u3sBeLUV5dHVVlDRsWVWUlEqrKkuj8iMd3lFVWXl05qPZHycOmarZBeUWDXz+SKIGVy4vUBuCupqCxV+daEATbgL8CyRxu2zBwZ9b7Z1Xq6EsW74/yBMl3AL8nqrzIp3tey/LvRPqU7/sVDX79RYb9jmio3aAS2G0HHAp832HXNvj1eVOhlMZ2gHsih6usBGbtruqzULzVP8sRfXm1Tw5XWwXujHr/vAL+jJsbA5tD7r74aDdsySvPH/mXPOACSutbTMmbcy/qc8WIF/GOvhFvzq9x+zwNXjqniatXXm5rByR70ojdI+xYm+mFleqX0DjPI15WRuWgQdQOH07V4MGUVVURi2siolKVqKjYXllbe1XVkMFXbJ+67w5FRF7npMxNeC49boT35Whdd/L/27vvODnKK9//n1M9SRpliRwkESUQOSeTRdRMjcDetXf33rvx3t+uF+McYJMx4Iiz12uvvc5EaWokkSQymJxskhAGJKKEcpjcXef3R7UACYXRTHX+vl+veYHS092nq6vqOX2e88AbKT+/MwIye+utl+1MykeS7Mj0PWAaZb4juEgpXBSGuxj+HyTLaqfVYAhGkWyU8au2sPXM1rCt5HP2udHcGHgSWJfisMcZmd0q9U1qJjO+AHkLA44yesZU7JSazDiwE1IccpVhj703Ey4jweUrJ+d3f6mGNc1SUZ80g+bV2EHzCU76ObbPw+/tLliIh+vL4Rv6hvSdZv+aR8l1v1b0e18LAhqGD6d59Giax45l+OjR1Dc2EmS0uqAWWBDQNGJEz7ARI64ZPrz5W6v2Gqtlg7LZBP2CJvDTSffb8hi4K4rmrk7n5sqWAPek/NL3JZ0mrlK1n41wlOFfBL4AjFNERD6oLWzdL8avAS6lMhu0p5nIOB74WUDu72eGM0q+pNCTBNaLKQ65v2EV3AfLphToun+AERxWwRPro4E9UxzwjwZvbvxF2SSwdr98Hg6tJFsGixTp82UQZLG9nyI4+WcEh96MjVxR+IftyuK9uSHknoy4dzm9K+7G415K8gWuGZn6+mSJ4bhxSeP3kSOpa2jQEsMqlamvZ/jo0X1NI0f+smHY8G8t33uMKq9kC2enuklgafexXOowJ63BoijqJhlvTZofEbCPhmGrlhHKB4RhONLwy/KTch0jIpuZEV5kbWHrscDPgI+igoaNJoJdBfaPM8NS71IYvAUsTHHAZuCM1vDCSp04nASMLMC4e1DBX4gZHEM6uw9uNH921LH23aOwXF7o23bCXmD/i3LdGVGqbooFwNjXCY6aRXDstdhOLydLCL3A59Cc42t7Uugo4fStephc55+gxAkjM0uWGI4cSfPYsZv2y1Lz98r/tJjRMGwYzWPG9DcMG/Y/ZsG/rNhz1HpFRrZybvoQyfbgabrHsVdSfZbwKPB8ys/zsPw3jyLvagtbRxr+BeCfUfJKZIvqyJ5MsqHBKWhp7ebGOXY52Gdnhq0jSvUkoqg9C34nkOaO08cZwYhKe0PCsGUEyeYbhZronBqGLWMrMC7jSLcg6U2Dx9//G+Uzs3Q+DBys85MU/lgzqO/G9nuAzMk/x/a/D5rWFz5xtfHhu/vxnlwaaQU8u4bedxbgufJZxRVkMu/uYjhy/PikMmvECOrU/L0iZerrGTZqFMNHj+7L1Nf/Auyy1RPHLldkZMs3LuFmxD/zAABnB0lEQVRosA8DaTbI6wJu74iiVCv+oqjjLeB+0m1QvathZ88Iz1bmXt7vwyh5JbJF08OP0Ra2nkLS7+pwlLzamrEOnwM+MzNsHV66p2EPAMtSHHAycEClvRkGU0l3l73NHW+wT+XFxfYmWfqalkVuwXObzDXLYsJ7+cpJ+RtelYpK4bgBjk14leCYawmOnF2Q3QW3KXbidX0Qpzdf6l/3R7Lrni3L670FwbvJrOZx41SZVUGCIKCxeTjNY8fS2NwcWxDcgPOvqyeOXanoyNZvXPxY4JCUh30J/P4CPeUbgJWphgDOzDBsdx0NAngYtpwKfJHCLDMpll4gp7dTCqGZzmNIkleHKRrbNcLhk8D/K1VPLMeWAb9Pcci9DDu5Au94jgH2KuADjAZOr8DL3tGkt3zQgcfb29tXbTJHKYuXiZ2qk5YU9iALYNhabOqdBCf/HJv8GNT1FC9xlZ/WeG8O7+xPdVDPrqd35X14rpNy/tJqq5VZDQ1KZpXT5diM+sZGho8dy/BRo8nU1WWB63E+v3rSuKWKkGxNS3heBjgN2CXVWwS4bT0bXi3Q036JpAorTUeadlOWZOOB3Qz7JLBfJV0GtvAbq4FOvaWStplhy97A1ZoH7pBRDpdD8LcXz7yovtgPHiXV0A+SXvVyBjg2vySvIrSFLaNIdlsu5HbsGbDTw/DCyolLW2sd2Jmkl2PaAHb75r9ZV/JX+qUVI3E+gqmsWgp0HxZksQkvYQfNx3ZdBJn+4iau3jcN8w19kI3TzjiQXfcM/Wv/QMO4EyvjXclXZtU3NhLncsRxjmxvH9neXnLZLB7HuLsO32K+J2ZkGhpoHD6c+sbGjUnFmCR59YXVk8a9pSjJtu+0GvYAzk952PUON98R3VWQ59wedaxvC1tvBS4gvSrwJrALw7B1dhR19OvIqN2PhGEfASpoi3jrgroPHLNuvs6cB0i/ulJqWFvYurPDVflEQKl0kyRo1wOrgHcM3nHocbwzuXsnY9hIkp11d8p/pjf+enSSaCi6sQ6X5eLsEmBeCaY0f8jvCpfWTnNHGbYr8KcKOVfuTrrL5LZmCgRTgccqISrutrvhaV4nloC/sPlvljyBZWbTMX1TKYX4FBk0dGH7309wwL3QvDq5DHmJqpT6Y3x9XyE+RXiuk953bqVu5BSC+nGk29KlsIJMhiCToa6+AW9uJs7lyPX1ke3rI9vfT5zNKplV2HMwdQ0NNAwbRn1T0/ur4bLAjTifU/JKBnhDe4rBQSkP+xjp7ni0pef9gMEiYFqKw55A0tPjOR0ZNStDZfUv6QOe64jmZDf/g6i9IxuGrb8zOJf0N2iQGhSGYSP4/wf8WZHno06ybPwPwFPA82AvOrwGvhLIBhDHxOTwd2cMdQQGZjEEYMPB97LkszAVOBQ4Ati/yK9lN+DKtrB1aXvU8XiR7x7/CP4i6SWwJoNPo2ISWJwGFKNVwN6GHUGFJLAMPzLduPjDMfHqzX+3tAmsy1dsbPY6WqdySf1DNH4xdvB8bPfnINNXusRVXryhD++LCzZ+tvNV+lc/SuPO51bue2ZGpq6OTF0dDcOGEccxcS6XJLN6e8nlcngup4RWGrEOAurq62nYtOLq3cOV95YNKnklA5mM1Bs+g3R7WfYDURR1FHjTgOAliO8h3QTWpPxkXwksqRQPADdvfdYfPAz+ccM/CRwJNOfnEWktFUnzJs3zP5XaDLzqm5gbfhFwSRHnouuBhQ5zDO4EfyUmt7wjunkwN+Z9wBrgmZZw5pyAeIThe5AksWYCJ5MspS9Gf4xDgX9tC2f8fXs0d1mx3r8oita2ha33k/RoSuN1NoCdelHY0jErmlPWN/ltYVs9xKcX6ditA04Pw5Zro2hOWe/+3RK21JHsIJrWzondYHd3RPO6txSUEk5Wg4NxztQ9g6R3yxIkVVcTH8em3I2NfjtfjFTie4Gc4xv6k+btBXkqBnEvvSvuoW7UIWSa9sznICr57sbeq85qSKqzPJcj299PbuNPNkucU1/ZHZGpq6OuoYH6YU3U1W+x/5gqr2Qwk5FpwNEpD7skP6ku8I14ezYMw1sM/+v8pDyVjxpwblvY8pv2aM4yHSFSxnLAvY59MYqiN7b2lzqi9ixwSxiGDxp+ErC7J5+XoS6fcoPj8hP/tOYlqxx+CqyotLtYYCeDS4Gmaj3g2sJwGvhngXFFeLge4F7gt47d4viqKOpILUEyJ5oNsAF4EXgxDMP2/GYmF5FUl+1ahNd4PgR/F4atX42ijmLeFN9B0lA+rUKUE3L4WJKlnGX8IY0PsCRxWCzHG7YTSRK2fOcX+E4k1WKp3QMa9syW/qBkCSz7t1X15PzPwSYgksoZxWD02wQH34bt9Qeo7yl51VV+Zof3ZPHu/sLm0Swg17WYvhV3MWyPj4FVV2N0M8Pq6mioq4Nhw/B8dVYumyXX30+2r484jpP+WXGsz8P7BJkMmbo66hsbqWtsJFNXB2Zbu3m+Qckr2RHnhOcbcB7pL5d6IMaKUsFk+OMkS0rSbCR4DNhBpLvduNSuLLAWWJefMK/35L89Bl3seO8AA7rAHwa7pZ/6Nwfyj6IoWsM2KrUGIwxb/tqwlhTnJWsg9z9RNG9Rpb3JbWHrfsA/UqUJrJlhyyjHPwMcXvA8Q3JO/75j86IoeqcYry+Kol7g/jAMHzZ8LvD/AWeT9MsqXO4A/t7wB4G7i/h2vgq8TFKRmYZJYEeSJMbKdz4Cx1LcpdS7gX8IeKXMZxt7k+5mDM+5BVtsIVGyBJbnfLJh5+l+RIZ+MBlkstiefyQ4aD6MW/Le75eDGLyzD3JelAfrW/Uw9WNPoK55PyqpF9YOX0CCgEwQkKmvTxJa7kmFVjZLnO0n1599t0KrFhNaQRCQaWigLv+Tqa/HzLZ3szc3v2zwTZ1YZKCGUzcBOJN0U/S9QEdHFBWlCXp71LG8LWydTboJrNHABWF4wb3R4JapiHQDLwCPk/SCW+TY68Bbhm/wpHpq0Hc7Bh5guZuijpJfstKfY1bst3hVvXzQsRlAW4EfZh1wLdh3GrGF10XtRX+dUXLtujOfyPor4DPAvgV8yIlgnw/DlheiaE5RdoyOCZYHyfL7tBJYO1uZJ7Baw7ZGiI8GGov4sI1gZ4Vh66+LXGE3cOFhOJxs6S0f7AfubW+fvcV7wNJVYLldgLG37k1kaFdCg2Fr843a74Om9eWTuNr4FPtzxOuLtRGVEfctp3fZLWQm/i2Waaaak1ibvPL3V2jRlCS08tVYG6u03p/QqradDoMgwN5XaZWpryfIZLa0RHBr5rjbp9ZMGvuGTiyyg5++o0m+kUzTU5ZM2os5sbrf8FdJ95vVsyGYTPIttcjADkVYDCxwmAf+RydY2pFUdohUrLawZR+SRE4hq5HeBr7u+H9HUceGUr/mKIo6W8O2nwbELwJX5q+Vhdq18HTDPnpeOPM7t0azC36D2xG197eFrb8H/i6l99SAE8OwZWwUzVldlvfaxLsDZ5TgoY8En0KZ9tVsY3Ij+Cmkl4BfA/b7rf1hSRJYdvmK3YC0m71KbU2Yklu88a8RHHIztvvzEGTLLnkF4J390F/chHn/2qfoX/8cDWOOrd0jxAzLZCCTebdKC3g3oRXncu/9ZLP5hvH5HQ+97F8cQRAkSwPr699tfB/U1RFkdvi+yIF57vbJNZPGvqpzi+yIlvAcy1/PR6Q89Hyvayz2MtbnSZJmaSaw9jOC01ACSwbmNWC2Y78FfzqKOrIKiVTRndlfAocU8AFeBD6bI3PLnGh22VSqdETtOeDuMGz5P4ZdRdLvrRATlgbgb4aRuwN4pihzHOwZw5ek+L4eZdjuwOryPIb9ELBJJXjgSYYdTpkmsJx4oiUtE9LymBNvdclkicpr7QSSho0igzl+IOjHJj9KcMKvsD3/CJYry+RV0ry9r8j91A3PddK77Dbi/tXUwGY2OxadIKCuoYGGYcNoGjGC4aNH0zx2LCPGjWPk+AmMGDee4aNH0zRiBA3DhiU9o/JJoo0VTdtZipfCkzRsY4Kqro5MfT31TU00NjczfPRoRo4bx4jx42keO5bho0bR2NxMXWPjYJJXAHe5c6mSVzIYAY1TSXadSdNSg/vab7qhqGfOKIo2AHNJmv6mZThwVltbyygdLbING4CfAzMd+0IURY8reSXVpC0MjwY+RuGqjxYC/9wedcwtp+TVpteYOYsc+zQwm8LNDA52+JswvLBYS9xe9aTXWFp29mRTmLIThm0ZsHMpTX+6YcDJbeGMsuyNZ9hJwB4pDvlQP/Harf1h0Suwgi+tqHPnYozhOp3LDvMgv2TwPoID74HGzvJMXG18uj1ZvDtbkhxSdsMi+lY9SNMu56Ek1nZOvEGQRCiTSe6sGje97m9ccvj+JvHu/t4yRXfY+Ov8DwBxvMViLjNLklQbf/LPYWPiyoIgWRK42f8XwCPu/oU1k8a/oqNABnnTcipwYMrDPhZjD5XknA33WPItfpqNSM/AbR/gaR0xsgVvA1c79j/5JKpIVZkZtjU68Z8D+xfoIV4GLsmRuaPcYxFF0ZIwbPmiYeOB0wpyWYaLjOA3wBNFeD3ZMGy9E/gI6aysajDs3DCccWMUzS2z3pG5PcCOL+ETOAmCnYDXyykqreGFDSSFSWnldlYDT94czdvqepiiJ7A8sIPAjtHpXAZlzBsE0/K7DAb9ZZ28gvzywVwp1qMZeB+9yxdQP/IgMs37gKuH8KCjuTGRtMlv5o+9jcmrd9/0Tf9/ywPau3cZG3/9blWX2db/XboedPdL10TR43qHZTDCMBwDfi5Qn+Kw/Q4dURR1leI1xfB2Bm4n3QTWTsCFF4TnPX1zdKsOHHm/Jx3+A4JboqhdFVdSlZzc3iS7TBbim7g1wJWdjFowP/p1RcQjiua81Ba2fhH4GXBQAR5iL7C/DMO2p6KoveA3/wYPAe8Ae6Y05NHARJJdDstnLpDkL/Yt4VPYJ1+dVlYJrIBgt/x7lpaFED+17ccs/tt/DsXdelIqP30AOLbb82RO+DU28YkkeVXmVUXeHxOv7ytp3OKet+hdfieeU+/X9N9gfy/R9P5qqnzF1MYeVVv82azCapMlicVJXj3p7peumTT+MS79W72XMsgzjB8InJTysK8a3Feq1zQnWbZ1N7Ai5YvY+fXJbo0iGz3u+D9GUcccJa+kyq8WHwX2KcDAvcAPY/y6SklebdQedTwM/FvK15r3Owty+xfjtTjxUvDHUhxydyMoq2WEreEFdcAJFHYDgu1pNmx6GX6+9yHdSvxH26O5b2/rLxQ3gfWllROA0ync+mepwikSdb3Yfr8nOO63MH7J++YDZZ7f2NAH/aWveupb/RDZdU+jZYSS9zTun1qzovsxhUIGKwzbAiAExqU89B2Qe62k527sAdLfAXH/Ei89kPLyvOOfjKI5jygUUs3awpbJJBt9FGLutwD4YUc0p7sSY+PYXOCHFKYf1oGGnUdY+NcRRXPXgt0PpNV7bBxw9JnhaWUzcckkX0CdUgZP5fgwnLFHucTl/PAjkCT2mlMashtsu19iFjWBZWZHlsmbLxVxZjdoXE9w6DyCIyJoXl32SwbflXN8Qz/Epd7OzvD+dfQsu5W4fyVKYtW8Z8z9k6snjb+Xo/dUNGQoJ7k9gLNTPqmsBL+tPZpX0pLRfB+iBUCaVTETDLswDGcM07FT81YAV0fRnAcUCql+dgowrTCfI/t+e9TxdqVGJoqiXk82b3iwAMPXAxe00TK+SC/nSWBpiuMdN4pR48vlvfKk4nxKGTyVqUZwZLnEpYHekcAZKd4Lvun4dnu3FS2Blfni8gD8AtLfaluq84IHo5YRHDULO+AeqO+qnOSVgffl8J5seeSLLCC7YSG979xBel+OSAV62twvyfTl7lUoZOinOTuR9Ju3v+iFuZEfzM3q7cAbKQ97hhFM0tFT0/qA7zrB9QqFVLswnDE8P7lNe+c0B34VQ8Xfz0RRx2skVVhrCjD8MZ5ub6JtvCH2JPB8ikMeSXo9tdJwFuWRwxgNfmJLeF5dOQTF8INId3OGu7Bg2fb+UtESWDmzPTE7Wadz2f5Z0GDCKwTH/Rab9BgEOSqqcsjzywezZdQ03XP0rbyP7IaXKUnrOym1Z8z9k6smjb9n+QE7u8IhQ9EWtjQD56d8M+cOt2+gYWWZnMZfBe5Kedh9gA/pCKpp9zj+0yhq71copNoZwT7AmQUY+lWDX3VEUVU0eHXsdgrz5c1ow84txmuIomg9STP3tCY/4xzKIm8QhuFYsBNSmED1pxMf+1CGhjFl8ik/EtgtpcH6gUej9vae7f3Fos1kLbDTSf/bWqk6ju35R4Jjf4ft8lIyjag0G5cPltltRNy3nJ5l8/DsWrSUsKY8be6XBH2xKq8kLZNI+lmm6S2D6I7oprJ4gR3RnC6S3QjXpzhsJrkXvlDLCGvTBrCfRtGcZQqF1IhTgZ0LMO5NMfZMtQQpiqLVwC+AzgIMf1IYztirSHONh0ga66dyvTTsjDAM60v9/hh+JOksg30ESOO4neaFWZa7Q1rD1mbgONLbifoNxwcUn+IksC5bMRzsNNJr8CVVxyDIYfs+RHDMddjYNytnyeBmvLsf78+VZYz71zxJ36oHqcjEoAzGu5VXKw7YSW+6pHUuaQV2T3nQBwwWl9W5HPs98GLKwx5mBCfoGKpJ9wF3KgxSC8KwtZEkgdWQ8tBLHW6MoiiuspDdRWGWRO5vBIcV6ar5DLAwxQGnQDy5lG/K2W1/ZsCxwC4pDDff4ZcMvQqr2cqgp3gAuwLHpDjksxA/N8DHLsKtrgUTKZMyQCnLyRBk+rH97yc4PKqsZu0fOHc78fo+yJVprsD76Fl2K9nOV8C0lLDKPafKK0l/UtIylqQXRJo7SnUBt8+OOtaV02uNouhNkmbuaZ7QdwM7pyWcod2Ya8ta4BftSaWFSA3c2ftkCtP0+k4sWFRt8WqPOlYCt5Iso0rTGODI88PzCj6xirF3SDcJt5dhR5fyfWn27nEkfdyGapnjD1jyRcZQrwMZ4JT8/VgpHUjSGiENOeD3UTRvQFWIRZrB+lEkSw5ENjs0DBo2YAffRnDYHGjaULnJK8D7Y+jOlvEzNOLet+l95zY824mWElatly32L6jyStI/g9gxwMEpD/uKY3eV6UuelcLN5uZOz2C76WiqKc9hwX0Kg9TQ1WJqipPbjTqB+VF7+7pqjJhjtwB/KsDQRzdSP6rQz78jivpJlsmltfR+BHBoS3huyb7wMWwicEQKQ70E8ZMOS/IxGqqDrITLCNvaQiPdDRq6wO4f6F8ufALr31Y3gJ0P1CGyyZnaYNg6gsPmEhw0H+p7Kjp5BeDdWbyv3Hf6M/pXP0zf6od0DFanFy32T1jOb1EoJE1h2NoAXED6PU3ucvyNcnzNjr9C0pg2TdMcTtIRVTNi4K6+OH5HoZBacGF4cQAcRvqtYxZD/EC1xs2MxRSmmfsRYOOKc82MnwBeS3HIkwMadirh23IyMDqFce6vg3VR1LECeJihLyPcA+zYkt0beTyWdDelecrxlwb6lwufwMrGk0i2whR535EfwLC1BIfNwfb7PQTZik9e4Y6v76uI9lKe66F32a3kul9DVVhV5RWL/TOrJo+/eeV+E2KFQ1K9uU62tD4/5WHXgrV3RB1lmfmPojmrgZtJrzEtwDDDZoRhS6OOqprQBXbPzR0dqoaVmlBP/4gCzf2eNIIl1Rq39vYoBu4A0l7KMdbxKcV5FZlXgWdTHPBwK8xS1O0Kw3AYyS6aQy3CWQt+203RPAdw/EFgRQpPcXpb2DKmRPeDh5LcE6bl9wT1qwb6lwuewDKzU4C9dTqXd7nBsDUEh8/B9nkYLKYakijem8N7spXxZC0g1/0aPW9HeG4DSmJVhWXu8Ze71r1zq0IhBTrLnQqkvZvR44a/UNavGrsHeCnlYU80OETHVE1YAv6iwiA1ZASwf8pjxmAPzS7TLzvSu97wR+CtlIdtMji8GM8/iqIsSRIurV5ew8BOLNHbMRU4KIVx/mjY+5aG2lOks1T0SErWosmOIp3G9gBrgEei2TcN+LNd2ATWZSuGk5TJa8toyZ+ZAxixiuDIdmzyI2BVch0y8M5+yMYV9aT7Vz9K38oH0K6EFW85cDme+U3PYVNzCoekLQxbh4NdAKRZNdTvMHd21LGszF/+ItJfRjgRTJvb1IbnzGytwiC1w/YC0u7ztwH8D9Ufu3gZ8EzKg2byPcmK5aH8fWkaAuCE/K6WRZ4l+XGkkyC6u5u3337vl7k1JM3ch2oM2FnFvx8MRwJHkV4e6WXHn9rRg6Jwb3yy++CHEIGk8mrESoIjZ2GTHquayisAso53Z4e+ornYb4n35ncl/BOqwqpYy4Av4PxyzeSxSl5JoW7kjgXS/hb0dbC7y/21R1GUA2aT7JaYlgBoCcOWnXV0Vb2Xs/R1KgxSM7f7+IGk+2UHwCuOL6322OWwVcBzBRh6z7a2ttHFef/tTeDRFIc80Iq2BDIRhi0jSPpfDXX54AqDR26NHvX37inmbVwqOtTrQh1wQhjOKGqhkOF7AcelOOQzULdDfVALvITQjwQm6lQueADNqwmOmI3t+TRVVfFj4P25JIFVcTmgINmVcOnNeHY9SmJVnDXAFR7bL1dPGtevcEghtIZnB/kbuV1THvpRS6qbKmBCZk8BT6c87HH5PhJS3V6b036LehJKzTCYDDSkfBZ+EeIV1R67udEcB14AulMeegKe27UYryGKojWkm8DaC+yw4h7DNhE4NYWhXnGzR7dwT/ESyXLRoTrIsP2Le5T6kaTXHqoX/K4omr1D18iCJbDs8hVBvqxNuw/Wuo09rw6di+31FFiVLVdz8K5KWz646Wm6b81j9K64C1wFPBVkFfDv7vbfqrySQgoYvhtYK+lmuHvAb2iPop5KiEEURcuAuaT77ctwsLa2MAx0lFWttQ5LFQapMRPTn2Pakiiat64mpk34YpIvKNM0jvR3EN7W1OgBIK3dhZvAT2oNL2wq4rtwHDAhhYHuDZL79U300fg6cH8K4++X70dVFDPD1gDsNNLL7yxjEDtvFvKmaXe0+6C45XcbnItNfjS/bLDaXqPjGyq8+MX76V12G/3rnwXTXKoCrAG+4rH9eM2ksb0KhxT4BHEk6TQyfb9nHXuiwgKR5g35Ric78b46xqpWj8EGhUFqRRiGw0m//1U/8HoNhXExkHbfvNFg44v3EuxZ4NUUxzs5ILNzcY7h1vp8Ec5Ql8H2AffOSnaX3MQt0fWev6dYNcTHqAM/NQxnDC9GbOIkCXp4ikM+5mY73C+tcDNVt2PR7oM1zqBpPcFh1bXb4AcO9Z4c3pur+Pcq7l9Jz9vt5HreRksJy9rGyqsfrZms5JUUfDLSAPZhIO2bo/m59JNBhT3XY08CD6c87H6GnaYjrWp1O75eYZDa4aNIdiFMUyfwZu3EMFhO+hVYzcDYos0qzNYAT6U45GSgKH2wDJ8MTEthqGd9G/3MHHsQeCWFZ3yaYbsV6a1Nsz1UDDwYtXfscGVlYRJY31hjmB0BjNGJvFavXwZ1PQQHz89XXlXpCifLLx/MxVXxYrLrn6d36Tw87kVJrLK0BlVeSVHPCn4wcHzKwy51uGNu1FFRJ84oiroc5pB8q5qW4cD0MJwxWkdbdd4NoW1+pbaMIEmWpKnL8Xdq6MLbS/oVZ0YRE1jt7e0O3Aak1SagCThjevhXxXgDDgPSqIx+yIK6N7dzT5/GboS7OJxUpGnvkaSztBLgDccH9aVgYRJYa3M7kf5uRVJJMlls/wew/e+HIEvVJkOyjndV3u6D29K36n76VtxLVb2o6rCapPLqP1V5JUV0KrBPymM+ZdhDFRqP35PKN6abxtiwyTrURKTyFaQCqxt8ZQ3FMHb87QKMu0treF4xe1M/Azyf0lgGHDWcNSML+YTDsLUxf98z1KrzdQ73t8+etdUeM/kdju9k6LsRNhl2Zhhe0FDY2LSMI93dBxeCPTOYf1iQBJaZTQYOQ2qTxdg+DxEcNB/qqriSZ+Pugz3ZKnqJhue66Vk2j+yGReqHVT7WkOw2+OM1k8b2KBxSDG1hy1jgfCCT4rAx+C2V0rz9A7f/BK8Dt6Q87HiwUEeciFT+XaSNJP0EVj9YzfSSy2IOtoL0qzdHQVC0BFZM8A7Jlz5p2RdsaoGnduOBD6Uw1Jtmtt3qIsdeIJ0k32GQmVTgz/ZE4ITUbqfgsSjqGNQS+8LMTmM/Di0frE1u2O7PExx6MzStT5YSVu1rrfTdB7d+iop7l9L95g3EvcvQUsKS6wSuVs8rKcG54Gjg2JQH/RPYHZUakY6oPQvcDqS5nCUAzg3Dll10zIlIhWvI/6Sp1wjW1koA57VHDr6K9BNYw8EyxXodHVF7n8PjQHdKQ04yrNBL5Y4nneWD98e+/b5tTvAakEZF+mQrcHIvvzNjWu0O1oPfOZSbpnRvd7+0qg7sONL9xlYqY7IDE17FDp0Hw9ZWd/IKkt0HO/ur9r3MbniBnqVz8Vw3SmKVTCfwdY/tB+p5JcV0YXiGAS0p3qxsdFdM8Eolx8axR4BnUx52imEn68gTkQpXD6Rd5ZMD76ulIBq2jtQTWDbSCIo9P38ceC29iSbHhuGMgiwjvPhjHwc4k6EvH+wHu6MjirLb+4sd0ewc8CCwboiPOQr4UGt4YX0hYtPWFmbATknxs73QsIWD/cepJ7DcmIRp+WDNcYPmlQSHzcXGLan+5BXgfdWw++C2XmBM34q76V15D3hOx3jxbQCu9ti+tWby2C6FQ4o7A2nel/Sbgq52uL0jaq/oiUgURWsdbk0mVakZDT69NbxwmI4+EanYW8ek2XZjysN2UnubIRQggcXwoMi9QczsJdL9wucoI5hQiOea7Xp9L+CoFIZ63vEnB/6ZsUeBt1J43NMDMgVp1O/OXsAhKQ75kAeZFYP9x+lXYBkHA7vrFF5LDOp7CA6+DdtlEXhQEy/Zu7JVuHxwsxNW3Efv0jn0r/uD+mEVVz/wA4/5zprJYzsVDim+4GQg7XL0F8zsvmqIjsF80vtWeeOoZ1qBe1iIiFSgWqxAL0QCa4SnXx23Te3tUb8nuxFmUxpyL/CCFMpYkqA5IIWhHsUybwx4rgWvOzyQwuPu5/hRhYmNHw7smdJwXQ6Pt8+ePehlTOnOSL/8lpH0yxiL1NA8J4vt+xA26XEIaqRSJ3a8O1sDG/UZcd9Kut+8kVznK2gpYVH04/5Tj+Nvrpk8TskrKbowbBkBnEfyTXpaHLg946yuhhg59ifg7pSHnWT4+ToCRaSSZwWkXyBRi8sAUq86c2jwEtzIW7KMMK1dJJvATkv7Oc4ILwpIJ4fRCfw+ap894KRrRxRlDe5K4Tgfadj0tGPTGs6oA04hvfzOKwNpcL+9k0x6+hrHAYfr3F1D3LCdXyI46Hao76mJpYMA3h9DVe0+uO1LT67rZbrfugnvX4OSWAXVj/vP3f3f10yesFLhkNJ84u1g4IyUh10G3HJTFFXFMpAoirpIElhpJpkzYGeGYetIHYUiUpnXD5pIv4n7Bq+9JYROyq/ZSnQD79gbwNMpDnlMGM7YKc3nWEduLHBaCkO94fj9g3iznwZeSuHxjw7DllRXwmWwCaS7oc/z7iwZygCpJrDMbFdQ/6vaObUajFyeNG0fvqZmklcA9Obwvtr6Qqh/7VN0v92O57pQEqsgsjg/d/d/WTN5wnKFQ0roXGBcymPe79ii6ppd2J3AwpSHPdKSXZBERCpR+v2VIVtrCSyHPmB9ysMOtxJsshZF0QqSCqO03sP9wY5MN97xFNLJYTwB9vog7ideBR5O4fGnGXZYurGxvUmv/1W/wx1RFA1pF7R0TzLuBwE7ITXAoKGbYOqd2PgltdH36v2Held/jV1KDTyXNHVfcbeauqcvh3O9u/+HkldSSmE4Y3eSbyHTPKl3AQuiKFpXTbGKCZYCd5Du1WAX4IwwPE87OYtIRd4iF+YmtCbjmHYsGyhAgnFgL8aeJKnETsNOaSdpDDsTGGr1cw64I4o6djg50xFFPcB9+fuloRgDHB+GF2RSPBBPBUakNNxKg4eGOkhqB3HdF9824ETSLxuVMmV7/BGb9BhYjSUzNva/qsWradxDz9I59K1+iNqr5i6YHM615v6FNZPHv61wSEnP6wTHk84uPO/3MsS3VVus5kSzHZgHqff1Os9o0GY4IlKJ0t6BEINe1f1XvKeBxSmOd0oYtqTSkykMW8aTfHE31KTPGyT9vgY3x4J7gTTmAacZdWPSiU3YaEkCK62E2OOGvznUQVJLYGUbGkeQcjZUypQbjH4Lm3I3NNTecjLvzSU9sGp0euv9q+l+83qy619ESwmHfurEud7cv7hq8vg3FA4ppTBsGQZcwNC/hdzcA469VY0xc+wF4JGUhz0A/CQdkSJSgUakPaDBhjp9a1rRcuRWegqVN+9zuGG7pnN82VRg/xSGetCHlKTzN4AHU3geBzm+bzphjicD+6b4vt07O5oz5C/9UktgWS7eD9hbH9FqZ1DfQ3DgPdi412ur79XG00tXFrJxTR8Dcc9Sul//Nbku7Uw4pOu5c525f17JKymPT7btQfrN29c5zI6iOVVZqhtF0UpgDtCT4rDDwFrC8MLhOipFpNJukytmUCmaudFcN1iQ4rVyJ+DooQ4yJdwV4CRgzyEO1Q88FEUdg+5bFkVz+kjaEgz1fmlMfklkGveFJwKTU3rPljo8lcZAKa6DDQ4CdtNHtPovS7bXH7C9n6jNy0nseE9WV1ILyHa9TNfrvyHuXQoW6LOxY1R5JeXoHCDtpWuPgj1T5ZfFe2BoO+pswQkQHKJDUkQq7Q5RIZAtXyv9BdLZaQ+SpapnDrXX01SOHUWSwBqqt8B/n8L9xB+AV4Y4TB1wShheOGYog4ThhY0kScK0lgUvNgtSuR9MZ9b578szwKGAvi2s9mtS82ps//uhsbMmI+DZGHqyujznZdc/R/dbs4j7VuueZeBUeSVlJwxbxgEtpNvHMgvMj6JoWXVHL1hE+ssIJxr2IR2ZIlJpt4YKgWxxDkW8DHg0xSEPh2DSEMfYmxQquUgST88NPUb2Ukr3E4cZwcFDm/UHO5HersjucH9f3J/KRlV16ZyqgjGkt72ilCvLYfs8hI1fXHO7Dr6rr5b7X235VNu36kEsaGLYHh/B6kai8rRtinFuVOWVlN3pPelhmXYfy+Xgz7SFrTtTop2PivSxjknK/j8K1Kf2lsD5bWHr/7RHHSt0hIpIhdiQ/p0mI2N9S1rxOqJ53W1h68PAXwBNKQy5lxFMAV4ewhhnAOOH+Dxy4Avaozm9Q49R1NUWtj4N/NkQ7yd2B44DhlAVZvuTTm8wgB6DO2/umJfKJDGVBJZhE0gqsKRq8xQBjH6bYPIjEORqsvcVgHfnkhyyvDfH8n56V9wJQR3Ddv8wlhmOklhbnuXizDX3Lyl5JeUkDFvqSZq375Ly0GPBvsrQ+zlUgmGkt0vPRscAR5D0DRERqYx7nbTvvaFBd5VVMo/CHjD8ddJJjIwDjrkwPOeWedHtO3yIhGHYBH4iQ688fxvsgfRi5Hca9jZD7i1up4Vhy0+iaM5gk8qnkt7quleBhWnFqC6lcfYDJuhjWcWCLDbxCRi5vGaTV7jjPf06Fj54ggTP0rf8DixooGm3NixoQkmszW7onFvM/dOrJo9/VeGQMvsETwDOKsDQTaRf1VVLmoGLw/D8O6PoFpX+ikgNX6Zq7gVnSK/30EYbvMRfKFlSLfUU6VX2nFpH43hgxY4/l/hgsDSWDz4G8eL0YhQsAn+eoW+OdxTYngwicRSGraOBk0mtet4fiInfSS0tkdI4x5Je2byUGw9g/JKk+spqNynh/THepznE1k63HvfSu+xmepffAd6Pqr3fO3SAW839E6smj39Z4ZAydC5wgMJQlk6AzH4Kg4hUiH5SrsIyaA5q76ayjnSW2b3/ZrSPAlTI7Yj2KOoHHkzxeUyzQe8gaEcAE4f4+FnggfZo7pq0YvQ2u3YB81MYarzBaYOc1U0lKVBKQxfY/R3RvO60YjT0BNa/r64jWT6obciqVZDD9ngGmlfVbvWVgffkIKsE1jZPd3EfPW9H9C6/U0ms9zzq2JdWTR7/ikIh5SYMw+Fg55EsgZPys78RqJm7iFQEh16SREmaGmvwhjJTgNdcLjF8GFib0lhjPFnqtoP3Pi3NJP2vhroabVmaywcBHo5+DEmSb2kKn5sTW8MZgygyssOAPVJ6SW+APZVqamLII2Tj3YFJOmVX65XIYNRSgr2frOnqKxzozUKsZXHbuzZ6dh3db15P7/K7lMRKLtIfXzNx7B91bEiZfmIPIWn0KeWpCWgJw5YxCoWI1PBdeK0Zn/YNtEGvlbgCK3kz/WXgoZSGqzPslDAM63csFrYrcGIKj/+C48+kHyNbBDyWwlDHBNiUHfkHYdjanI9NWq2mXnL4U5rxGXICy9z3I/3Gr1I2sxvH9nq6tntfAeQc782prdNAp8S5TrrfuiFfiZWlRpNYjwIfXz1x3OM6JqQczQhDI/nmcm9Fo6wdzw7egIqIlCw/kf7d8rAavJEcWYDXvN7KYFOVDYxaAaR5bzwF4v127CC1Y4CdUnjse+JMpiftGEVRtJpkB8HsEIfaL19NtQOzOHYmneQeQA7s9iiKetOMz9ArsCzYn+SFShUmImhaj+32AlhtL53zXJwksLQibsDHjmfX0/3mDfS+Mx+Pe2rt3uNJ4J9XTxz3hI4FKVd1+C7ATEWi7E0wuFBhEJEKmDkUYgnh8BoMZXMBxlwf4yVPYN0R/Qbwh4HlKQ052XYgSROGYcbws1M4rlYB986ZNbsg5Q2O3ckgmtN/4FYPzg3Dlh1pE3EIg+4r9gFrwB9KOzZDS2B9aXU9MIX0t46WcuCG7fQyNvotaj5z05eD/pyOiR28jfHcBrrfup6etyM811krx9EzwCd71zU+qmNAyvwkfzRwkOJQCXNCzgjDGbsrFCJS7nfMJI3c01Tv2IiaujrjBajA8h4nzpXH6+Nx4LWUhhsOHBW2tQ1wGWG8F0mSZqiedLOXCjiLegF4NoWhjjZsQMVGbW0fNuBM0ttA4BnHX087NkNLYFk8Gpimc3WVyvRhuyyCxs7aXj4IWj44lNNvrpuepXPpfusmPLuOKt/v4Q8kywbv6zqkWW+/lK3WMMyAXUiyTEHK3+Fq5i4iZX+/jHcD3SkPWw9xzdxUtbRdaBSgBxawCuJsebzKYCXJErm0fAiPxw5sZmJpfXn3mNuwdwoVoX7qu4C7UhhqT8dPHtDn13vHA8em+DLuWcnwZakfPUOampqNAabqdF2NVyCDxg0wfjE1X33l+R0IZbBnCvB++t6Zn09irQWryiTWM8Alne8036f3XMpdQHwQoIRI5RhGUoWl3SJFpJx1kn4Caxh4zbSrqSMTGLZLASZgG2KyZZHAiqIoJknOpLXcdCr4wdv7S2E4owE4iaEv0VwOtqBj9rUFK2+YF93kwH0MfTfCZsNObgkv3O6KOUsq0yam9BJWGTx5f3RdAe5hhzYvnQyM07m6StMOI1Zio5fWfPUVcZzsQKgKrCGdLNz76V1+B12v/ZK4581qS2K9W3nVd0yj3m6phM/kicB+ikNFOcOwyQqDiJTxtaWL9BNYTWBjaymIpNeD6P3DvjM3ml82TY0dngNeTmm44YadsP3ABuOBs1N4vJc9ufcvcIxsEZDGTuZHZAj2GsAxcjSwa0pP/2W34LFCxGVoM0j3aUA9UoWnTodxr0Omv+ZD4b0xnnM1cE/jeuw5+lY9QOfin5DrfIUqCeozwCVrloxR5ZVUhLawdTTQqut3xdnb4RyFQUTK2CpgTcpjNhlWMwUTsVsz6W+QFgOry2p+RfAW8EhKw2WA48OwZTuN2f1IUtl52W7zILOm0DGKomi5J7uaD9U0sG22fQrDltEkuw+mNTl7PPbcskLEZdAJLLt8FWBHkHS3l6rj2Og3wWp86ZyB9+Ugp/KrNGXXP0/n4v+if83jJKVtFZvIerfyyj8U6I2VCjm7+xTgGEWi4tQbdm5bW8tYhUJEylOwFliX8qAjKEhFUtmaCKR9nl9HmSWwOqL2LpI+WD0pDTmN7fbmtjMZeu/PteAPdMyeVaRqNrsXWDnEQZrBP9QaXlC39Smv7UF6/a/6we7piOYUZAI96BmXB4wGJulEXa3XnxyMXJFUYtX2TC/ZgdCVwEr5ZEyu82W6XvsZvSvuweMeKjCJ9RJw6eqJY1V5JRXjgvDPzbCQpEGsVJ4jcDtKYRCRchRF7f0MvWfPluare4czL66Rbwp9T2BUyoOudXxl2b3SJIH1RkrD7WnYoVv7wzCcsSuQxvXzD44vLGKUniaVpZY2PSCzjcSoHwVMSOlJv+LJ8y6IwZ8IYt+L9MsbpUySCzRugIYuhSJ2vF87EBbmMAuI+1bS/fqv6H7zejy7ngpKYr2E84lcb+ZerS2VStJA92SSLZJ14FamnYCzWsMZqn4XkXL1MpB2s/D9iftr4osXS/pTpl2BtQr8nfJ7rbYY+FNKw9WDH9saXjhsy48VHMx2K7QG5JE+Mm8VbSqKryad3Qgn+Vaq7y+++GOAfQhoSOlpP+rEbxYqJsEQPlx7k16WTsqJAw3d6n8FSe+r3pymegW8dHmui953bqdz8Y/Jdr5cCU/6TzifyPVlblt3wGilNqXSHA8cpjBUtJkBtrvCICLlOY3wl0lvd7mNDrAaqBxuDdsaSZIsmZSHXga8VW6vt5eGbuAeUisVsFMCMh/ol9baFgYk/Z2G2kttpeN33RK1F+3+f040J0eyG+GGIQ412rDTLwxP/sCsNpft3As4PKWnnAUe74jmdhYqJkMoxbRJaAfCKs4rxJjFNR4DIBvj/bGOh0IH2rP0r3mMrsX/Sd+qh8FzDHWPiQJ5E+cz/T3DlbySihOGLU3AuaT3DZuUxl7AhxQGESnPuzp7CehNedg9wCdVe+wC4vHA1AIM/UYUze0pt9d7S3QDJNVFaS1v3NPxD1RZBe6jSGf3wSVgjxU7Tg7PAk+nMNRxdYzd0hdgRwL7p/R03wJ/tLCfk8H40uo6YF9Ul1LdSYVaf3s39r+Klaco1vGW636Nrtf+m643fkvcu6zcjsFluF8e57I3b5jSpINCKnFScQBwmiJR8ZrALgzDGcMVChEpw9vnd0gqftLUCJzYEl5Q7ZOT3YGDUh6z39NJfhToeLHFwOMpDddsSaP2zR1COonBBx1fW+wYZTNjXied3Qj3N4J93v8b08OPGXAoMDqlp/uC438oZDwG10PB4lFgByHVm0voG45nG2o+Q+l9OR0PRT74PLue3mW3kNuwiKbdWqkffSRYHSVuRLYM9y/FcfybtfvunNX7JBVqRv7mOG2vAivQl1pbu6IWomfo8flmtQ8rxCJSZtYDzwBT0j2X2gkBdU1AdxXH7jRgTMpj9hj2dLm+4CiKlreFrY+TVIincc09uq2tbWx7e/v7d108i6GvHOsBFnREc4o+D5g365eEYesCg79maP3RdgVOvCA854Gbo9sdoJnOccApaU2dgfub6poL+hkdVALLzEaQNJiTquTQMxK6R9d8GLxPywdLM9+D7IZFdC7+LxrHn0rjzucSNO0CXpL3Y3k+efXrtfvspOSVVKS2cMYu+RvjtPtqdANfMbi9AGNXg5zD/wW+lHJ89gbOnhGe8+jc6HZdqESkjBISHRvyCYkPpzz0VPAjSXauqzphGA4DP530e2i8Dv5qmU+5HjVYRTrtifY3j6cB9ydxbR1L0rx8qHF9wfHnSzg7egJ4jaE3+D+rgaYf8l5Prb1IlhCmoRN44LqbritoLAZZgcVOOLvqFF3F4gy+Znds9+dqNwbusHEHQtUVlOBMHeDZ9fQsu5nshkU07jyd+jFHYXUjkvemOBVZq3GuiGN+vXafnbSrgVSw4Bjg2AIM/Bj47bOjOW8qxludlLQb/r+Aieney9o5dclN6CpFWUTKzHPAWtJblgSwm2EnUaUJLMOPIFnKlbanDVtX5q/+EfDXSSeBtafDUeQTWJYsHUwjrg87/UtKNjXHVwfYHQx9I55DHZ+a3L8B+Algo1J6mk86tqjgd7SDm9f7PkC9zs1VzA1W7AvZxtoNQTZOvjtX8qqkl3OAbOciupb8jM7F/0V23fN43AtW8Cbvq8z9Pyz2n67dZ7ySV1KxwnBGPXAmMCrloWPgrnYlr7Z3FnuBwiz1OxT8WEVYRMruHhoWkSwvT3veel4YtuxWbfFqCWdkgAuBPdN/K3hidhRtKO/jJbcS/MEUhzwuDFtG5P//cIbePmED8PuO6NaSzQfySxfvJ6lyGorxhp2V3B+21YOdTHp5nYcJ6pcVOhaDmgEaNg0lsKr/4rN8H/yd/aBWdyPsj3E1cC+bKaDH3fSvfpgNL19D92u/ILvuefBsPpFlqT4WsMqwL1vMj1ftM75H8ZfK/vQEe5P0v0rbOw63KsLb1h5FPcBc0t+VayTYxa1ha6Aoi0h5ybwMPFWAgY83OLrqooXtQTq75G3uDccfKffX3xHNzQF3pnidPNqwcW1hOAw4I4WJwmsQ31vyuTn+HPDikA83OCEMZ4yEeH/giJSe3jrgiWj2jQVPHOz4Tc+XVxswmTLd417SmvE49IzAXz4Bekckv66tGR9kY+1AWHZviuHZtfSuuJPOV75D55KfkV33HJ7rTCmRlYzf83bH6+ue++LtK/cZ36u4SxU4h/S/1QV4FOxZhXcgN508UKDJ3ImGa1MdESkrUTQ7duwh0k/cN4H9eRheOKzKQtZGUimUtkVAhVyn7XmSHk9p2MPxkxyfCByXwngPGfZO6e8lfAlJL6yhOtIIDrRkx8u02hu85sSPFyMOO56E6mMMsI9OzbWQL3D8rUPwl06BXF3NvXxXAqtcD0zAiPtX07fiLja8fA2di39C7/K7ifuW5xu9BzuQ0LJ3/26u5026Xv8N3W/dOC3b/fKVzD5nouItlSwMZ4wh+VY37fXgvcCNURR1KcrbFxO8ASwgWXaZpv0MTlKERaT87tb8IaAQy4nONoLTqug6vRfYXzDY3tTbuvTA/VE0Z21FzLuwJcBDKQ03zLCTDE4HJgxxrB7wW2dHc/pKHaOOaG4/eBrLCHclSewdBwxP6ek9GRAUpUfYIKqo4p1JtyGflLNsPfHCMzr9nf3+iHntLKWKSSqwlL8q61ujpGJqHf2rHqT7tZ+zYdFX6Xr9l/Stfphc1xI8uw5wsEySpNrCj8e95Lpeo/ed2+h85Xv0rbwfPJsBa8P9GmafM0mxlsr9lATTgOMLMPQLBo8owgMzJ2rPOXYb8FbKQ9eDnR+GLaMUZREps4TEK8DdBRh6J7B/DsOWXSo9RmHY0mgEf0thmrevcrilUmKR/0LsASCt+eaJwF8CTUMc50+GPVc+nyvuAV4f4jAZkl1Cz0zpaeXA7pwddeSKEYMdzvQaNhGo+BOGDPQN9156Rv3Q1034qe3K54G/pha2SndPKrCkIqbomOFxD7me18j1vE7v8jsJGsaRadqToHFnMk27YpkRWGY4mCXvb9xD3PsOuZ43yXb+ibj3naSn1ntVWwa04t7ATdM/xcXzX1KspZK0vdcUthC7Bt+eo/5PivIOnameIvlJeznnSSRbYN+jKItIOSUk2sLW24CPAGkv+TvTsBbgp5V9XbAjgL8h/SppSHZrXFRJ8XDsacNXpHSdnEY6pQiPeZB5tXyiFCwHfwyYMsSBTiS9JsJvgz9etAgM4t/sTPo7GUl5ygH/7e5XxeHH/+Qx/4LzA4Zetlj+Yof+WDsQVtr0kPyyQc8S9y6jf81j9C67ha7Xf03Xkv+mc/GP6Hz1h3Qu/hFdS35K95vX07fiHuKet8BzWzqPJwkA4/vcNH2KYiwVZieS/ldpe8exWzqim1SjugPao6gbaM9fW9M0zrBzFWERKcOExH3A0wUYugG4tC1sqdiG7jPDlp2BzwN7FWD47uSy07G2wo6Y5x3Sqnaqzx8nQ9FpcG/77Nll0xM3SjaGuQ3oTyE+aS1bfdjNirYj9Y4lsC7rNGA/CpMllvISA9e5xVdx1di1ALlp1y01t8txuyZ/YqzeC27skFMFVmWz95YOeg6Pu/Hs+vd+cl28u7xw+5nK6Rjf46bpByiuUkGfgVOAfQsw8NOGP6X4DkohvhE34JQwbNlT4RWRchJF0Vsku8sV4qb6ILB/awtbK25l0EVh2zCwf6IwXzIBLLLkelNR1pPtNLiD8mnistKxB8swVH8AymVlSBZ4JGqPipYs3cEKrO5GYDedjqteFvitW/wFrpiwSb+O/mm/22DO13H7BtVaiWVA7HhWxQXV98Zu/rND//hsjB8x6+xjmHeuavOkrLWGLcPAZgAjUx46Bu9ojzrWK8qDubjW/Qm4tQBDH2XYyYqwiJQbx64FXinQ8OcCn58ZtlRMf+YZ4UyLiWc6fIL0l1ZCUuX7u9lRR8Ut878zuhmSxNvqMnlKjzj+ernFKSZYBDxWJk9nqeNFTZbuUALLzJrRDoTVf52B2W7xF7liwhtb+gv5JNY3cPsmsK4qI5BzcCWw5APOBPsv+uLjFQopZwF2IIXZne4FsLsV4cGZG82KSRJYaW/H3QicNzNsGaYoi0h53VbbIuA6ClNVUwf8X8c+P7MCNrNoDduCOnItwJcp3KZozwM3Ve7xEi8B/lgmM8IFUdRRdpuYdUTt/cC9lMeKqCUQPF/ce9wdYsOByToVV60c0OHuX+SKCdtcx9o/7XcbYvOvO1wBrKm+SGj5oGzVETjfZ/b0k7l5uqIhZef88HyAMyjMF06/jwnUvH1ok7nH8hOMtJ3m+pJRRMpvsp117AZgYYEeYjjwCce+UM6VWC3hzCAgngF8h8Kdq3PAb6Ccmo7vmCzx28DjZfBUFnt5PI+tsLtJf2fjQd0XZoiLWpW/YwksY2eSJu5SjffUcLO7f5orxw+ozDc+6NqunPkPHK6iyiqxPOvls/paytFRON+nx07lDiWxpLw0UjcCOL8AQ69xuDn/zZ8MUjfZtcDNpH+V2Q3sHEVYRMpvkmHPkWxiUahviIcDlzh22cywZXy5vf6ZYVt9htxM4FvApAI+1CMGs9uj2RU7i5kX3ewkywjXlPipPGVWvl/YOSyj9MsIu8Dnz4rmFLXyY4cSWO7sQXrd6qV8xCSVVwNOXr1r6nU9sfn3q64SK6sKLNmuw8F/yDrOZe509cSScnJycnym7gXD7ld4h+b2aB7AAuDllIeuB84Pwxm7KsoiUk46ovbYsV8AhdwApJkkifWTtrD1iLaZMzLl8Npnhq3jIf4C8F8UZmOVjbqBn1Vi76sP5BywR4DFJXwKvQ73tre3l22/zyjZ2Xg+Q9+NcChedOyVYj/oDi4h9Mn5GySpHg7MyyevBnXC86nX9VRbJZbnVH4lA3IwzjX0cxYLlMSS0msJWzNg5wOF+Ab65gysVZTTuPAGL5H0r0jbEUZwhCIsImU44X4J+DHQVcCHaQRC4JfEwV+GYWvJ+mK1ha2ZtrD1SIcfOnwRGFfgh5xLBfe+2sxy4KESPv5Kq4B+n449SWkTfY9YkHmz2A+6Y03csUmoAquaxEA0qMqrzVVbJVasCiwZ+NGP8x3Wc44qsaTUAvwAkv5XaVvscNtNUaSTYyoTufYuhzmkv9PSOOCMMLxQXzaKSDmaRXLuK/T89hDgOwY/bgtbT2traxlerBfYGrYFbWHLAcC/5l/vn1GY3Qbf7yXHv9UedVRFIUEURVngQZKeXqXwqOOvVECoFlOYnpoDsd7h/vbZs/uKf687UFesNmBPnXerxsbKq88OtvLqAwO+V4l1NZVcifXuLoQ6SGTADnq3Eus2JbGkdAw7GjigAEPfne9hIum9Ww8BLxZg4BYjs4viKyLlpj3qWA32baAYy9zGAB8FrsXtB21h68y2sHVCa5j+0sKLwwuZGbY0tYWthwfEXyFpWv8vFLbf1UY9wDdjMo9V2eHyJFCKJJKDLYiijs5yD1AURWsd7gL6SvDwb5pZSarkBl5N1c84QH0VqoMDt+Qrr9LtwTH1up74hT//fuDWb3AZhVnGUnixsley40c/znfo4tPMm347F87XQSRF1Ra2jgBmkv5S/w3Ago4o6lGU05Mjs6KO7M3A8SkPvTdwHvBTRVlEynAS8pjBl0l24xtXhIfcFfhr4GLghYDg1raw9SHHFznxWx3RvN7BDHp++BEa6B5r2OQcdhBwIXASsBtQrP5bMXC949fNidqr6r4zxpYE+CPA/kV+6Nccr6BkoN0Pvobib7T3rLu/UYpXPPAEVi4ej9lopBrc4+6fT6vy6gMXpqnXdcdP/e/vZxr6ejCuoNKSWLGqr2TQkkqsPj7BrdPv4DwlsaSYkwI/yLDjCzD0S8DdinC65kazvC1sXQD8c8o3nk3AOWF44bVRNG+DIi0i5SSKIg/DcJbhRwCXULxkz0jg2PzPGsMWGZlX2sLWF4FXnfgVsBWGrQZ6eW/HxCD/M8rxCZbs+DoReveDYD9gKskXB6VoGv+Qw9eiaM66ajtOOqKosy1sfYJkCWYxl8X/AXxRpcTJ8D+RbI5QzF2IY/D7omhOSRrI1+1AdHajUqtp5L35Ddzp7p/kyvEFXQriR/wyG//xL38WZHJxPom1U8UEyR1ceQcZtKQSq5svcuOZ8/jwneoZJAV3cvj/Ybx1AYX5Bm5uTPCOolyIi7I9a/gdwMdSHvooCA4GHlGURaTcRFHUFYatXzfYC7gIKHb7hTG8l8yKgR4j6CZZipXN/6zL/1kzyRcDGcPqSRrFDwMaShzGF4HPRFHHC1V8lbwf7B1gjyI9YD/wQBTNqZgNa9qjjvVtYevtFDeBtZQS7ko94B5Yhk0AVIFV2e5z90u5cvyzxXiw+NDf9OV6G3+GcznwdsVEaWMFljoZyeAdhPNdgqCVWWcGCocU2k68ORE4mx3eXXggNync3RG1KxFbmElcJ8k22Gn32phocG5LeEFGURaR8jz/dSwlWUr4+xI/lQAYTlKosRtJUm0ycBhwBElfyb1Jkig75+fDpU5eLXO4Iqbu0eo+SmwhsLCID7ja8XsrMFAPA8XcDfBpM3ujlB/YgdqFJAMtlcj5AzGXFbry6gMPe+QvsgTxz9z5R+DlComVSBomgV0DwUXMOlPpUCm0w0l2XUrbg5B7QuEt5CXHFhTg+mhg52eom6AIi0i5ao86ngE+CTytaAzYMscvc+IbOqJZVf3lUj/1XcAdRXzIFw17sdLi5MlOhMX8DD0xuz1aUarXO7AE1mfWBMDuOl9U7N3xsziX+FXjSvINR3bq9bncBiJ3Pge8Wv7x0hJCSc0ksK/jmY/xuzMbFQ4phLawpQHsImBEykN3g9/SHs1brygXUm4ZSRVW2qZ6+g3iRURS1UPT4yS9AJ9WNLZrmeP/AvyqI5rbX+0vdl50k3tSXVSs+5Dbs8QVd88TRR1rgftIlr4W2nIv4fJBGGgCqyHbhCuBVZGcP+D8k1817r6SPo/jrsVzRB5zKbBIb4zUkEkY36E+8w/88vR6hUPSP80H+wMfKsDQbzh2pyJc6BvPuTngZiDtbzNHGsxoDc+rU5RFpFzdGl1Pe9TxAPBPwGNoLcTW5Cuv/Belap5dGvYSSZPyQlsF/H5uNLciq9o82WxndREe6jUrzvuxVQNKYFlgTRh767xRcV7C+XTJk1d58aHXxrY+MwfnUuA5vT1SQyYQ8G8Mr/97fndmg8Ihqd7a4dMpTJX0AsfeUoSLcuP5LMm3zGk7JaDhYEVYRMpde9TxIPD/SHpiKYm1qdcdvgj+61qovNpk/kjmbeDJIjzUHytp98EteBl4pgiPc6+TW1XKFzrAHljWSGF2NpLC3Q0vIuYT/k59WX17nj3hNxDnbsP9EyQ37GV4pnStIJRCGE/AFTRk/h+zzmlSOCQNbWHrBJLm7WlX960Goo4o6lOUCy+KOlYA84DulIc+ADhJERaRStAedTwJ/A3wW6BHEQGS5M3/c4JfRdHcmrsmz4lmxQ53UtjqIgceaI/mVOyXdhuoXw3cVuCH6QHuiUpcpTbQJu7DSJq4S2X4E86l3h3czn+PLLsnlz3kBmfp0jtx/zSqxJLaMg7j38EvYfY5wxUOScHRwIkFGPcxUz+Sosov13y9AEOf2xa2jFCERaQStEcdLzn2SeBrwLIaDkUfMBv4m2XscktH1J6r3VDYkxR2R/vVVObug++6I7rJSZb2FbK5+qsGJW9yP7AElrEHyfaiUv53wIuIucRX1d3Kt8eU7Rre7Jn3QBwvwP0Syq0Sywy0Z5wUzljgMtwvpf3cYQqHDNYF4VkGfgTJlt6p3jQ73Dw76liuKBfzhsyXAHcVYOijIJioCItIpYiiaEWMXQ38PcmSwv4aC8HrwJUO/9gedfzhwegnNX08WJKUebqAD7EQeLzy0wD+LIVdRvj7mOyS0t8vDSQYse8MZHQ6LXsbK69u48ejyv7JZg+5wensvKvsKrGUv5LCGwV8njhWJZYMWh1NgcOEAgz9FtgCRbi4Zkcd/STN3NNeRtgMvo8iXMI5hSjupb2xrchYdERRb3vUMdexvwa+QWErcMpFF7DA4W9j7Koo6lim4xfak3YG8yjcstK7rAJ3H9xcFM1ZSuEScZ3AA1F0c2+pX+dAlxDuCWgXm/K+TCeVV2vqbuXbYyrmQpU9di7kcuVZiSVSWKOAL6kSSwZ/2g8AK8SSgrsD4lcV4VK8p/Y48GDKwzYCu6Y8Zh+QS/Wlp5+421EbgLRvzLvBN+jIHtDx5OmOF6yt0FjE+XikFguzoLOyJ+XRSzH+H8D/AW6iODutFVuOpNfVJx0+GpO5oyOKsjo1vP8i4fcBjxRg6DeBW2dH83LVESe7A1hTgKGfAm4th9c4sF0IzXZHCaxyllRedWVu40ejKu7JZw+90ent3ViJ9YzeTqkhqsSSQZsTzclZ+j2T1gFzZ0dz1Dy3NBO1pcB8IM2JSw+QdmPa5fmb/hSfo5d0+YYlN/xp70C1EHyxjuztxv45ksqTFOPOysqcfLIOeD7FIV91p+J3k+2I5vS1Rx3zHfs74H8D7QWapBdbX/54/bLDn8XU/TSKOlbOiWargvAD18c5bwK/IqkESnVogswTVRSqh0m/HUEf8Iv2qOOdcniBA63A2hWtqipXr+F8xh9qupXvjK7Yk132yHYsjhe4+z8Aj5X2U2FJHyyR4thYifUJVWLJINxDeg01Y+Dnjt2msJbUb4A0m8k+Apbqt9ZRFHV70lw4rYql+wy7v5RBb4+ifpLqjrSWkawHro+ied06pLd747UIuCOlwZY6/DhKluRWHCdYBXSQzlKplWA/j6Koq1qOlCiK1mapmwf2Vw5/CfwSWFyBL6Urf8x/1qElh10ZRR1/6ohmKXG1zc+HzQJuJJ0K4BwQAV9vnz27t4o+I+uArwMvpDVNB37reFQur3H7fa3+dXWDOX8P7KePTdl5A+dTngvm8JuRFX/Ci//zOfxHz75h/zjtOTM7FNijRGdHfF0vZF1pWymWRuAY3Pv5s/2e4oaX+xUSGYgDpxy00vDlwGEkGwQM9qy1BviNY1dFUbRakS2dhQtfXD9lytTFBgcBQ+lBGgNPgF3eHkUL036eU6dMeYUkAb8/yW7Vg9EP3Ad8uj3qKPmy1alTpryRf01ThvCanKRXzw+AXy5c+KLO59s95hf2TZ0y5eX8XGOvQR7zDrzt+JXA7IULX6zI5UAvLlzoU6Yc+Ipho0nOAQ2DjMVy4LsGv3ph4YtVtRRt0cIXWLhwYf/ChS++NGXK1PnAvfmd0erzn98GBl6kUcTZBRuAV4HfAd9y7HtR1HHXwoUvrnpx4UIlrgZ2ruidOmXK4yT9P/fJv9c7et+TI1mGej3wL+1Rx+IqvDd825KG7nsCuwzhPLIO+J3j/xZFc8qmH9v23/DLV+1uybdsx+ljU1Zew/m054LZfLV8dxscrMxzf36sYd/GOIFip5FyTu61dXh3VgksKbYu4Lvk/Go+smC9wiED0RrODIzcYQZ/AUzN37gP5GbYSL5Ze8vhVrA7oyjScVcGWsKZFpDb3WAmcCwwbgevhd3Ac45dG5NZOKdA3+q3ha1NDqcbXABMJGk3MdDHWgs87nBdFHW8WS6xz7+mDxnMACbt4GvqBV4Gm+v4g5VaBVQK54V/QSMbJhpcBBySn3QNVD+wxOEm8IeiaE7Fxz0MW0cbXAicQvKF7kCTen1JksRudrg/iqLeWjh+WsO2ICAe5dgUw88CjgIOBCYDTSV6WjFJInFRcj7mduBJx9/uqIJjtMTn6WbgTOBD+WvPiAGcp2NgvSfJznvAHouiqLNaYzQjPI8MDePAzwI7wWBvBvbFjOfj9CZJS4PfR1FHWfVy3P7N0GUrp5jZjcA0fVzKxircP+O5zK/46phcdb5Eo+7Zj07D+Brm51HMVJJDbslavEsJLCmJbuBb5PzrSmLJjt7AGz6SgX/zvDGBtSGKolgRLNeJbFgPNO/gdbAnJuieE80u1rFn+WNvR5I9XeU8uR7ka+rNx13VFEOLfSYf+4Ee8/2OdXZE7V6Fn/8gPzkfcAIrJuiq5WPw/PAjNNDXDPFkw/YBDgYOJanw24Ok6n046VVq9ZMs+ewlWTr8Cklftyc8SWgvBpZFaspeiHMFhg9jYElKz58nai55mHwpFjftSJwc6y/WPcSOZwm257KVJ5jZtSTZTSm9VeD/4R7/mCt36qv2F1v37Mf2xfg+5udSrHSSQ+6NdfgGfTkiJdMNfA/nG1w8f6XCISIiIrLjZoStQR3e4FgT2G7guxvsS1LltwvJ8vuRvJfUGs6WK5l7SJJVvSRLq9Y6rDZYCrzm+OuGvQJ0gfX2Udd/c3ST3gCRlG03IWCXr7oA+HX+wy2ltRr8393in3LFTjXTFLTu2Y8diHFNMSuxcm9uSPpgiZROH/BLjH9j5vy3FQ4RERGRdLWGbXWGN4M3QVwH1sQHK7McrA/iLGT6gM6YoEfVliLFt/0E1mWr/hLjFwy+iaikYw34lz3I/ZAv79xXay++7rmP7ePmXzNoK8axGC/rJF6lXeSl5HLArzG+yMz5SxUOERERERGpVdtf92uMQcmrUtsAfNOdn9Ri8goge/DvXnH4TH7b7sJ/25EJdNRJOcgAf4FzJbOn76FwiIiIiIhIrdr2LP2K9QGwk8JUUuuAr7v7t7lyfGctByI+6NolDp9OdpmhoM3rrV4JLCkb9cD/xvkm7dPVi1BERERERGrStmfpXb31OBMUppJZD3wzn7zqUjggPuja1x0+W/BKrLpAOxBKOckAH8b5Bu3TJyscIiIiIiJSa4Lt/GkDxi4KU0msA77h7t/iyvEbFI73FLwSy0gSWIEyWFJWMjgX55NYqsQSEREREZGass0ElpnVA+MVpqJT5dV2FLQSy4HAsDotI5SyYzihKrFERERERKTWbHuG7taAEljFth5VXg3I+yqxbgD6U80SbKzCEik/qsQSEREREZGas+0ZutEIWkJYRF2o8mqHxAdd+zqxfRLnN0A2vRSBJY3cXTGWsqRKLBERERERqSnbS2CNBRoVpqLocvcf5ZNXqrzaAblpv3vb4+AL+SRWOpVYZlCfUSN3KWdJJVbMN5k1fV+FQ0REREREqtk2E1jujCfZ/UoKq9vdfwRcyZXj1yscOy53yG/fySexfg30DnlAA2vIqJG7lDsDWoHvM+vsqQqHiIiIiIhUq+00+fFxKIFVaL0OPwa/givHr1E4Bi93yG+XuQefA74HdA5pMAcaAsgogSVlLwOcB/YdZp19oMIhIiIiIiLVaDtN3JmAEliFFOPcQGxf5coJ6xSOoctN++1Kj/mKO98h6Sk2aFafwTLqgyUV4yyw7zJr+kEKhYiIiIiIVJttJrDMbDegTmEqiCzOdeT4PFeNfUfhSE9u2rXriLk6n8QafCVWxrBG9cGSijqfnwP8hBvOPkHhEBERERGRapvwbMvIAfwd2XE5nOuJ+ax/ddzbCkcBAnzItZ3EfA3n68DawY5jw5W/lYpzEoH9kBvPPlGhEBERERGRarG95NQuClHqYpyImM/51ePeUjgKJ3fItetw/wZwNYNJYhnQWKdG7lJ5jCMw+4EqsUREREREpFpsPYF1+ep6YLRClCrHmavkVfFkp13Xjfv3gavY0SSWg9UHyTJCkUpjHEFgP2LW9DNYfIniISIiIiIiFW3rCayYEcBwhSg1cT559Um/etwrCkfxZA++ros4/h6DqcTKBFhTnRq5S2UyDgd+wBMLz2LuhSolFBERERGRirX1BJb5MKBJIUrFxsqrS/3qca8qHMWXnXZ9z6AqsQKgScsIpaJNBb5PX99ZLPuyoiEiIiIiIhVpGz2wfAxJE3cZmvdXXil5VUKDqsTypJG71WsvA6loU4Dv8sADZzFvhrKxIiIiIiJScbY1K1cF1tCp8qrMvFuJ5X4lsHog/8bqM0kVlkhlSyqxenvP4ol/UDRERERERKSibDWBZWajgREK0aBtrLz6lJJX5SV78HVduTj3PXf/V2DFdv+BQTCiXoGTapBUYi1erEosERERERGpKNuqwBqOKrCG4k6cz6phe3nyQ27s9dh/ivMvDCSJ1VSHNWg3QqkKGyuxzua3Z2ltrIiIiIiIVIRtTV5GAM0K0aDchXOpXzVukUJRvuJDru/12H8+kCSW1QfYcC0jlKoxBfgBjcEMrlUSS0REREREyt/2KrA0Y99xd+B83K8c97xCUf5yh1zXF8fxz4n5NM6SrX9SDBvRABmtupKqsT/Gd6gPWvjtmUpiiYiIiIhIWdvWpEU7EO64R3E+5VeOe0GhqBzxIdf3BW6/AfsEsNV+ZTa8DmtUTleqyiSMa2jMqBJLRERERETK2pYnLJ9bFwDjFJ4d8pTjn/bX1j+jUFSevkN+F9dlbQ5un8RZvMW/lAkwNXOX6jMZ43s0BP+L2dMbFQ4RERERESlHW05gZfoyqAJrR/zRzS/lK+Mf4NcTFY0K1XPYbz2ImQt2KbDF/mU2okHN3KUa7Q18A+evaZ+uLK2IiIiIiJSdLSewjHpgrMIzIH90848T9N+vUFS+vkN+F2f6mePwcYcPLAW1xgw2skGBkmo0AbiCmL9VJZaIiIiIiJSbrSSwTBVYA7PI3T/HFePv5z92dYWjOvQe/jvPZXJ3OFyyxSTWyAaoU7sgqUpJEsv5B2afoySWiIiIiIiUja3NwuuA0QrPNi1090txX6BQVKEDb/D4oGu3mMSypjqsWauspGpNAL4M/gmi6c0Kh4iIiIiIlIMtJrAsqcAapfBs1SJ3/wxXjr+VqybECkf1ijO5Oz+QxDIIxjSqCkuq2RicLxHzcaLpTQqHiIiIiIiU2tZm4BlgmMKzRRsrr25VKGrAViqxbFg9wSj1wpKqNhrni8SoEktEREREREpuW0sIxyk8H6DKqxq1sRKLjUksAxvTpB0JpdqNxvmCKrFERERERKTUtpzAchpRBdbmVHlVy96rxPon4EnI70g4Wn2upeqNUSWWiIiIiIiU2tYSWKPYenVWLXrV3T+vyivJHXTt3R7bx4GnAGx0Iza8ToGRavdeJVb7dH25ISIiIiIiRbfFJJWbjSbpgyWwxN0/R9ZvVigEIDftdw+RJLGetPqAYNwwyJgCI9VuY2P3zzHrbG3yISIiIiIiRbXlKiuLmwDNyOF1d/8CudwsvjYhp3DIRtlpv3vQY/sn4AEbUY+NVEN3qQmjgM8Cn2fW2VpOKCIiIiIiRaMlhFv3hrt/Bvcb+erOrkNFNpeb9ruH3fkHzG4Lxg2LrUlLCaUmNINdCnxJlVgiIiIiIlIsW0tSjaK2lxCuxrmSuP5GrlLllWxd7uBrX/CYS60xc0cwXksJpWYMB7sE7F+4/uwJCoeIiIiIiBTaVpYQMpLarcBahfPvZPkfrh6lyivZrty0a1/0mE/YiPo5wZimrBbfSo0YAVxCxr7O9WftqnCIiIiIiEghbTFJZdTsEsLVOF/xbvtP/9q4Xh0eMlC5adcuJGOX2OjGDmtu0E6VUisaMP6STHA115+9s8IhIiIiIiKFspUklQ2n9hJY63CuIMuPuGZsvw4N2VHZqdcusabMZ4KxjTdZY0ZLT6VW1GP8FRn7BjdN31PhEBERERGRQthakqqR2tqFcAPONz1r/6XKKxmK7NRrF9vIhs/b6MbI6gJVYkmtyGD8Bca3mX3OXgqHiIiIiIikbVtN3GvFepyrPbZr+NrYLh0SMlTZqdcuDkY1fsaa628iMFViSa3IADNxv4bZ50xUOEREREREJE1bS2CNrJHXvwHnG56173D12E4dDpKW7GHXL2Z04+dtWF2EmSqxpJauKW24f1OVWCIiIiIikvZkY1OfWZ0hWUJY7VR5JQUVH3PTYhvV8BlrCG4CVIklteL9lViTFA4REREREUnDBxNYdTQBTVX+utfjfMNzqrySwopPbF9sAZ8j4AYgq4hIDV1b2nD/hiqxREREREQkrUnGphpoBBqq+DWvx/mqx3YNX1XllRRefP6tS4DPAL9ESSypHarEEhERERGR1HwwgRVTD9RV6evtxvmB5+y7qrySomqb/xb45cCvgD4FRGroGpP0xLpp+r4Kh4iIiIiIDGVysSnPVWsFVg/wXce+yleVvJISuGjBUsw/Df41YL0CIjUiqcQyfsBN0w9UOEREREREZDC2kMCigepLYHUD3/fYrubKsev0tkvJzFywhsC+DlwN6FiUWmHAuRjf5saz91M4RERERERkR30wgWU2nOpq4p4FfuxuX+EqJa+kDLTN34DZd4F/B95RQKSGnEtg3+em6YcqFCIiIiIisiO2kMAi2OLvV6YscJ3H8ddVeSVlZebtXdD3fdwvARYpIFIjNlZi/Rezpx/HzdMVERERERERGZAtLSEcDgyrgtcWA791iz/PVROW6q2WsnPRPVk8vhHnH4GHgZyCIjXieJwf0suJCoWIiIiIiAzEBxJYZjQA9RX+umLgOrf4Mq6Y8JbeZilbH74zpm/lneB/A8xGOxRK7TgK5zvMnn4Cc6YHCoeIiIiIiGzLFiYNVukJLAcixy/niglv6i2WsvexJ+CiBS+A/xPON4C1CorUiGNwfkqWsxQKERERERHZlmArv1ep34bngDmOf46vjH9Vb69UlIsWLMf5KvBPwEKSSkKRancwzreYPf1M5kw3hUNERERERLakmnpgOUny6lN8ZfzLemulIn14/gbqMr8D/hcQob5YUhum4XyPLGcrFCIiIiIisiUf+LbbLlt1McZvgYYKeh05YJ7jn1bySqrGrLN3A/t/wP8FdlFApAY8i/FJ6riTlvmucIiIiIiIyEYfrMAyhlNZyStVXkl1umjB28AVOH8F3IuqsaT6TcP5riqxRERERERkcx+swLp81f8B/qdCnr8qr6Q2zD57Em7/CPwfYCcFRKqcKrFERERERGQTW2rW3lxBz/9mVV5JTZi5YDHEl5P0xroTNXiX6pb0xOrnPIVCRERERERgyxVYnwSuKfPn7cBdHvs/c9X4F/Q2Sk25afoeGP8A/C2w+5Y+xyJVYhH458HnctEdWkIrIiIiIlLDNq3A+kqnURkVWHe4+yVKXklNunj+m8AVwIeB64FOBUWq1AFg3wZrUShERERERGrbpgmsDVmjvBu4O3C3u3+SK8c/r7dPatZF87NcNP8hsH8C/h54CuhTYKQKTQL7BrPOvoj2s+sUDhERERGR2hRs41fl6Al3+xRXjn9Ob50IcNHtq2DYteAh8K/AIpJEr0g12RfsB+T4O35xupJYIiIiIiI1aNOUlfdlcEaW5TN1/kjMp7hy7NN620Te56IOuGjBa2T5JvBR4IfAmyS7dIpUi10x+zLN9X/PtWc1KBwiIiIiIrVlswSWB+D1ZfcsnadxPu5Xjbtfb5nIVvzZ/BwXzX8S7FPATOAnwEoFRqrITgRcQV3wd/zq9HqFQ0RERESkdmy2hDAIMGsss+e4COdSJa9EBuii2/u5aP6jwKdw/yjuvwOWo6WFUh3GE/Blmusvof3cYQqHiIiIiEhtCLbw6+Fl9PxeJOYT3pO5T2+VyA66aH4PFy9YgPvf4f6XwG9QRZZUh/HAvxLH/0z7uU0Kh4iIiIhI9ds0gWVA+VRpvETMpb6m/nauGa3KEZHB+vAd3Vy8YD5x/HHcP0qytPANIFZwpIKNAr5IHKsSS0RERESkBmxWgWUBUA4TgReJucR7g9v50Uglr0TS8OE71nHxggWYfRy4GPhP4DWUyJLKNQa4TJVYIiIiIiLVzzb51WUrR5vZdcC5JXxOLxFzia9quJ0fj1DySqRQZp3TBD4NOBv4CHAg5ZHAFtlRa4CrCYLv03Zbt8IhIiIiIlJ9tpTAuhY4r0TP50ViLvXe4Ha+NUbJK5FimHU6UDcROBesFfgQ0KzASIVZB1xJEHyPttt6FA4RERERkeqySQLLLl85FmwWcHoJnssiYi715Y238dNmJa9Eiu3mM42ezATgGGAGcBawF9Co4EiFWANcjfNDLp7fqXCIiIiIiFSPzRJYq8YD84Dji/w8FuN83Lszt6hhu0gZuOnsDHAAZheQLDE8CVVlSWVYD1xDzr/JRxZsUDhERERERKpDOSSwXgc+5dlgNl8do2bSIuVk3oVGb98E3I/CrA04DdgTGK7gSBnrBL5Nzr/ORxasVzhERERERCrf5gmsCcBtwFFFevzXcD7lcRBx9Zic3g6RMjbrzDoIJoGdTrLM+HRgl83PIyJlohv4Zj6JpUosEREREZEKt2kC67JVu2DcA0wpwmO/hXOp92dm8fXRqrwSqRRPfgpee3YEOZ+C23SM04CDSZJZGQVIykgn8AuMrzBz/lKFQ0RERESkcn0wgQX3YRxQ4MddDX6Z98f/zdd26tfbIFKhrj8Pgv4RWHAkxgnAGcCRwDggUICkDMTAzzEuY+b8dxQOEREREZHKtKUE1r0YBxbwMVeB/7sH8U/48k69egtEqsT1ZwRk6sYBk4HpGKcCU4FdgToFSEqoD/g1xuWqxBIRERERqUybJ7B2w3gE2KtAj7cG/F/d/CdcMUHJK5Fqdd0FkOkdgdmhmJ0AHE2yOcSeKJklpZEDfkPAv9I2/zWFQ0RERESksmzexH0P4ClgpwI81jrga265a7hipx6FXqRGzD3TyNoI4mAvkg0iTgMOByYCY9FSQymeLEY7xmdpm79E4RARERERqRzFSmCtB77u+Lf5yvhOhV2kRs06F8gZse+K2ZGYHQkcCxxCstSwAe1qKIXlGDdgfE6VWCIiIiIilaMYCax1wDeUvBKRD5hzvtHfPxZsAsYhuH8I7GiSZcw7AU0KkhSAKrFERERERCrM5j2w9sd4CBif0viqvBKRgbvhTDAbidkhGAeDHUKyq+FUYCRJ/yxVaEkaVIklIiIiIlJBNk1gfWnVoQTcQ9KXZqhUeSUiQ3PDmQ0EwTiM3XA7BPwYzA4haQa/C9CMEloyeKrEEhERERGpEJsnsA4h4F6GnsBS5ZWIpO83x0Dj6FFkbF/c9gcOBD8Y7GBgMkkPrXoFSnbAxkqszyuJJSIiIiJSvgqRwNpAkry6RskrESmoG081rG4EBKOBvQg4PKnUYn+SKq2dgdFARsGSbcgCN4N/josWLFI4RERERETKz+ZN3I8C7gDGDHK8Hnf/Ds5VXDV+vcIrIkXVcT70bYCgbjhxZhKB7QNMBA4ApuX/fzeSKi3105L3c+AW8E8piSUiIiIiUn42nbxdvvpDhs8FRg1irC53/yHwFa4cv06hFZGycf1ZDWSCUZiPAPYGOwhnf4ypJL20xpNUno5ESa1aFgPzwS/logUvKhwiIiIiIuVj04naZatPM/MOdjyB1evu3wOu5MrxaxVWEakI7WfXE/uueLAH+O4Y+wF7ge0P7E1SrdVEUq1Vp4DVBAfuJvYv8OEFjykcIiIiIiLlYfME1qlmPocdS2BlgV+4+2eUvBKRinbd6UZAPUFmBNhwjF1w9gLbB2NfYF+SSq0xvFe1FShwVch5ktj/iY8seFjBEBEREREpvaEmsHI415Hjc/7VcW8pnCJS1drPbiD28ZjtQsyuGHuB7QrshbN78mt2A4aTNI6vRw3kK5fzeD6J9aiCISIiIiJSWpv3wDrVGHACK4tzHTGf86vHva1QikhNmnuq0VPXBEETRhNmw8H3IFmKODH//7uDjSPZEXE0MCJ/nm1QAMve7bj/by5esEyhEBEREREpnU17ung8ArOBLIdxnNnk+Lx/VckrEalhM+51oDv/s9HLm/yd9tMCvG4UMAG38biNxXwc2M7Arji7ADthvjvYBJJm8nUk1Vsb+2+puXxpnAycBlyvUIiIiIiIlM7mTYl9AP8mxpmDa9mgiMiAtN0TA2vyP3969/fnnwargzrINBDQADRhXg8055ckTgD2ANsF99GY7UpSudVMUsXVTJLsasz/v5Jc6WsC209hEBEREREprU0SWBbYIpy1+YnRlmxMXn3arxq3ROETERmC6fdAshFGFuja7E8XfuDvR6dmiIPhxMEogmA0MaOAMZgNA8aBjwLG4jYS2A1jFPhYsJEkDeeHkVR1Bfn/Zt73ayW/tiyH+QaFQURERESktDZJYLn7G4bNAj7OB3fW2pi8+qRfNW6xQiciUmThvTlgff7nzQ/8+bWnAQRYpo4gaCCgDqgHz2DUYYzEGYczEmcsZqMxxgKjcB+G2XiSiq4mkoquepLqrqb3/TTkf68h/+fV7m2c+3XwiYiIiIiU1ge+cbfLV00ELgcuJlmq4kAnMIeYf/Orxr2isImIVKnoVMNtGNm6EeANWDAMbBj4MMyG4d6EWRNJNdcw8OEkia1ROHVgo0iSYA0Yzfm/14x7BrMR7/46+ZJkY+VX5n3XpGCz/278f9h0R8diVIxtAK7G7RtcfHu/Dg4RERERkdLZ8gTgspUjwI7FOBn3HPAkxu/5yvh1CpmIiGwiqfzK5HNRdQRBBiMg8AAjg+cTT2YZ8AxYkpyyOEl0xfZe03pnNEaAWTNOA1CHeZLwckbl/54nuz0yLP8Mhr3v/zf+OiD5AqaOpFrs/de7LVWPNfJeVXIOeAO4EfNrmbmgU2+yiIiIiEhpqeeJiIhUj/ZT4b0EFlCXIWtNm13vGnHbNIFl1sh7Sa0sxG/w4TvWKqAiIiIiIiIiIiIiIiIiIiIiIiIiIiIiIiIiIiIiIiIiIiIiIiIiIiIiIiK16f8HKgy6fqCKPUwAAAAldEVYdGRhdGU6Y3JlYXRlADIwMTktMTAtMTRUMTg6NTI6NDkrMDA6MDBBnqTAAAAAJXRFWHRkYXRlOm1vZGlmeQAyMDE5LTEwLTE0VDE4OjUyOjQ5KzAwOjAwMMMcfAAAAABJRU5ErkJggg==;" vertex="1" parent="1">
                    <mxGeometry x="140" y="840" width="122.75" height="47.47" as="geometry"/>
                </mxCell>
                <mxCell id="16" value="" style="shape=image;verticalLabelPosition=bottom;labelBackgroundColor=default;verticalAlign=top;aspect=fixed;imageAspect=0;image=https://miro.medium.com/v2/resize:fit:700/1*jquOCYgW0tMMe-MEj2MaKQ.png;rounded=0;" vertex="1" parent="1">
                    <mxGeometry x="990" y="371.61" width="348.35" height="149.29" as="geometry"/>
                </mxCell>
                <mxCell id="17" style="edgeStyle=orthogonalEdgeStyle;rounded=0;orthogonalLoop=1;jettySize=auto;html=1;strokeWidth=3;dashed=1;dashPattern=1 1;" edge="1" parent="1" source="18" target="10">
                    <mxGeometry relative="1" as="geometry"/>
                </mxCell>
                <mxCell id="18" value="&lt;font style=&quot;font-size: 17px;&quot;&gt;Minio -&amp;gt; Clickhouse DAG&lt;/font&gt;" style="rounded=0;whiteSpace=wrap;html=1;" vertex="1" parent="1">
                    <mxGeometry x="74.4" y="625" width="181.21" height="130" as="geometry"/>
                </mxCell>
                <mxCell id="19" value="&lt;h3 name=&quot;5e2b&quot; class=&quot;graf graf--h3&quot;&gt;&lt;span style=&quot;font-size: 36px;&quot;&gt;E2E-Flightradar API Data Pipeline&lt;/span&gt;&lt;/h3&gt;" style="text;whiteSpace=wrap;html=1;" vertex="1" parent="1">
                    <mxGeometry x="409.02000000000004" y="30" width="581.96" height="108" as="geometry"/>
                </mxCell>
                <mxCell id="20" value="" style="shape=image;verticalLabelPosition=bottom;labelBackgroundColor=default;verticalAlign=top;aspect=fixed;imageAspect=0;image=data:image/jpeg,/9j/4AAQSkZJRgABAQAAAQABAAD/2wCEAAkGBw8PEhENEA8QDxAPDxIPEA8NEBAODQ8PFREWFhUVExcYHCggGBolGxcVITEhMSkrLi4uGB8zODMtNygtLjcBCgoKDg0OGxAQGi0mICUtKy0tKy0vLS0tLS0tLi0tLS0tLS0tLS0tLS0tLS0tLS0tLS0tLS0tLS0tLS0tLS0tLf/AABEIAOEA4QMBEQACEQEDEQH/xAAcAAEAAgIDAQAAAAAAAAAAAAAABQcBBgIDBAj/xABJEAACAgACBAUPCAkEAwAAAAAAAQIDBBEFBhIhEzFBVNIHFBciMlFhcXSBkZKTodEWNFJyo7GysxUjJDM1QoKDwWJzhMNDU2P/xAAbAQEAAgMBAQAAAAAAAAAAAAAABAUBAwYCB//EADQRAQABAwEGBAQGAgIDAAAAAAABAgMEEQUVITFRUhIUQXETM2GhIjI0kbHBQoE1ciTR8P/aAAwDAQACEQMRAD8AgT6C5oAAAAAAAAAAAAAAAAAAAAAAAAAAAAAAAAAAAAAAAAAAAAAAAAAAAAAAAAAAAAAAAAAAAAAAAAAAAAAAAAAAAAAAAAAAAAAAAAAAAAAAAAAAAAAAAAAAAAAAAAAAAAAAAAAAAAAAAAAAAAAAAAAAAAAAAAAAAAAAAAAAAAAAAAAAAAAAAAAAAAAAA5V1ylujGUnx5RTk8vMeaqqafzTozETPJz61t/8AVZ6kvga/j2u6P3evBV0JYaxb3XNJcbcJJL3GYvW5nSKoY8E9HUbXkAAAAAAAAAAAAAAAAAAAAAAAAAAAAA3PqUfPJ+Sz/MqKXbfyKff+pTcD5n+ltI5hbozWhfseK8mt/AyRi/Po94a73y5UKdz9VABgAAAAAAAAAAAAAAAAAAAAAAAAAAABufUo+eT8ln+ZUU22/k0+/wDUp2B8yfZbaOXhbozWn5nivJrfwMkYvzqPeGq/8ufZQh3EOfDIAAAAAAAAAAAAAAAAAAAAA7MPTKycKoLOdk41wW5Zzk8or0s8V1xRTNU8o4sxGs6QnvkPpLmz9pV0iDvbG7vsk+UunyH0lzZ+0q6RjeuP3fY8pd6IjDaNutu60hDau25w2M4rtoZ7Szby3bL9BLryLdNv4tU/haIt1TX4Y5pf5EaS5s/aVdIixtXG7vs3+Uu9GHqTpJb+tnu3/vK+kN6Ys/5fZjyl3o8WrdWNna1gnNXcG3J1yjCXB7Uc975M9k2ZddiLcTejg8WIuTVpRzbL1jrH9O/21XxK34uzekftKX4crq6NIYPTyqsd0rnSq5O3atra4PLts1n3jZaubPmuIojjrweK6cnwzrPBppdoIAAAAAAAAAAAAAAAAAAAAABIau/O8J5Zh/zoEXN/T1+0/wANtn5lPvH8r+OIdAGGFP6s/wAa/wCXjPw3HUZn/H0+1Kos/qJ95XAjmFw4X9zL6r+4zTzh5q5SqfqTfPJ+ST/MqOl2x+np9/6lVYXzZ9lto5lbozWn5nivJrfwMkYvzqPeGq/8ur2UGjuXPsgAAHt0fonEYiNk6apWKlKU9ne0nxZLlfHuXeI97Kt2aoiudNWyi1XVGtMPEb4mJ4w8SGWAAAAAAAAAAAAAAACQ1df7XhPK8P8AnRI2Z+nr/wCs/wANln5lPvH8r74WP0o+lHEaT0dBrBw0fpR9KHhnoxrCodWpL9M557uu8Zv5O5uOmzInd8e1P9KizMfH1+srdV0fpR9ZHM6T0XGsON1sdmXbR7l8q7xmmJ1jg81TGkqo6lMksZPN5fss+N5f+Ss6TbMT5enTrH8Sq8Lhdn2WyrY/Sj6UczpPRbawjdZ7Y9Z4rto/NreVfQZIxYn41HD1hqvzHw59lDncx9FAAABiZZjmvPVDQ6weFqqyW3JcJa+V2SWbz8W5eJI4nNvzfvVVenovbFuLdGjXdf8AU+NkZY3DxStinK2uKyVsVxySX869/jJ2zdoTbqi3XPCeX0RsrF1jx081XHUqsDAAAAAAAAAAADFU6RMsxGst97F9/OqvZz+JRb8o7J/dYbvnqdi+/nVXs5/Eb9o7J/c3fV3NWxehZV4z9HucXJ3VUcIk9nOzZyeXHktosqMqKseb2npM/siVWpi54Pro2jsW3c6p9nP4lXvu32Sl7vnu+x2LrudU+zn8RvqjsY8hPd9mr6P0JK/F/o9TjGXC21bbTcc6lNt5eHY95Z3sqKMf42nDhw90W3amqvwa+raOxbfzqn2c/iVs7bt9k/ul+Qq7mJdS+5Jvrmncm/3c/iZjbVE8PBP7sTgVRGviazq1oKWkLXRGyNbVTt2ppyWSlFZbvrFjmZkY1EV1RrEotmz8Svw6+jZ+xbdzqn2c/iVm+7fLwJe757vs8+kepzdRVZe8RVJVVyscVCSbUVnkt5stbXorrimKOcvNeDNNMzqiNVdWZ6RdqhbCrglBvbi5Z7W1lll9Um5udGLMcNdWixjze10nk2DsX386q9nP4lfvyns+6Tu+e5H6e1EtwdE8TK+uar2c4xhJN5yUeN+M3421qb1yLcU6atV3Dm3TNWqB0Bh1bicPW+KV9aa76202vQT8yrwWa5+ktFmNa4j6r/SOHX8MNBmVIa8aLWFxllcVlCzK6tLiUZ55peKSkdjsy/8AFx4meccFHlW/BcnRAk9HDIBgAAAAAAAAI13vyS9U84fRyOB9XRwZGRT+mf42vL8J/wBJ09j/AI6f+s/2p7n6n/cLgOYXAYJU/qz/ABr/AJeM/DcdRmf8fT7Uqez+o/3K4EcwuHC/uZfVf3GafzQ81cpVN1Jvnk/JJ/mVHSbY/TU+8fxKrwfmz7LcSOaWyM1o+Z4rya38DN+L86n3hqvfLn2aR1H+6xf1aPvsLfbn5qP9oOz/APJZZQrNrPVF/h9/9v8ANiTtmR/5NKNl/KlU2rt6rxWGsfFHEV5+BOSTfvOpzKZqx64joqLM+G5E/VfyOIdAyBA6d1TwuOshdfwjcIbCjCexFrPPfks/eS8fNu2KZpo9Wi7j0XJ1qeZag6Myy4CXj4W3P8Rt3pldzx5S10eDHdTbBSX6ud1L5MpKyHnUln70bbe2L9HPSWurBtzy4NA1m1av0fKKscZwnnwdkN21lxpx4095fYWdRkxOnCY9FfesVWuaFJzQAAAAAAAI8XI1pmHqmdJjVdy110ZzuHq2dE43d+T2Su4yrWn5oZ+WujOdw9Wzojd+T2Seas9ytNJ6RpnpVYuM06OvMPZwmTy2IcHtPLLPdsv0HQWrNdODNuY46TwVlddM5Hi14awsv5a6M53D1bOic/u/J7JWfmrXcx8tNGc7h6tnRG78nsknJtdytdA6Rpr0p11OajT1ziZ8I08tmcbdl8We/aXpL/Ks114UUUx+LSOCstXKYvzMzw1lZfy10ZzuHq2dEoN35PZKz81Z7nC3XTRrTSxUN6a7mzvfVPVOz8nWJ8EsTk2pidKlddTrSdGFxMrb7FXB4ecFKSbW051tLcvAy82pZuXbFMURrOv9Sr8S5TRc1mVjrXXRnO4erZ0Sh3fk9krLzVrueHT+tuj7cNiKoYmMpzoshGKjZm5OLSXEbsfByKbtMzRPOGu7kWpomIqap1NNM4bCPEvEWqrhFVsZqT2tlzz4k++iz2tj3L00/DjXmiYV2mjXxS3r5a6M53D1bOiU278nslP8za7kFrtrPgcRg7qacRGdktjZiozTeVkW+Nd5MmYGHft5FNVVMxCPkX7dduYplVp1E6aaKleep+l3i8LVbKLU0tieaaUpR3OUe+nx+fLkOIzbUWb00xyX2Pc8dESnCM3gGAON1ijFyk1GMU25N5JJcbYiJmdIYmYiNZUjrpp3r7EOcW+BrXB0rvx5Zed+5I7DZ2J5ezpVznmpMm98SvX0QJYowAAAAAADuwVKssrrbyVlkINrjSlJJv3mu9XNFuqqPSJeqY1qiFmdi/Dc5xH2XROa33f6R/8Af7WnkKOss9i/C85xH2XRG+r/AEg8hR1ljsXYXnOI+y6I33kdIPIU90s9i/C85xH2XRG+r/SDyFPVjsXYbnOI+y6I33f6QeQp6ydi7Dc5xH2XRG+8jXXSDyFPWWexfhec4j7LojfV/pB5CnrJ2L8LznEfZdEb6v8ASDyFPWWOxfhuc4j7Lojfd/pB5CnrJ2LsNzm/0VdEb6v9IN30dZYfUuw/Ob/RX8DO+73bBu+nrLHYuw/OrvVr+Bnfd7tgnApn1ZXUuw3Lib/RWv8ABidtXukMbvp7pd9PUzwS7q3ES/qhH7onids5GmkaPcYFv1S2j9S9H0NSjh4zkt6lc3c0+/lLcvQRbu0Mi5wmrh9ODbRjW6eUJ+Mct3e5FxENIJSSWb3JLNt8SQjoIyWsmAW94zD+1h8Tf5W92T+zV8e31RekdfdHVJ7Nsr5fRoi5Z/1PKPvJFvZmRX6ae7VXl245Sr7WjXK/HJ1JcDRn+7jLOU8uLbly+Li8ZfYezKLH4quNX8K+/lVXOHKGtFoiAAAAAAAAHZh7NicJ/QnGfqyT/wAGq9GtEx9JeqOFUS+ik8zg/V0UMhkAAAAAAAAAAAAAAAAap1RtL9b4WVcXlZic6o99Qa7d+jd50WOzMf4t+J9I4ouXd8Fv3U2dfEcFJyDIAAAAAAAAAAGGBf2reL4fC4e7lnRBy8ElFKS9KZwmTb8F2qnpMugs1eKiJSRpbQAAAAAAAAAAAAAADjJmDkpHXfTXXmKnOLzqq/VVd5pPtped5+ZI7HZuL8GzGvOeMqPKu/Er+iALFGAAAAAAAAAAAAAtbqUaS28PZhW+2om5RX/znv8AxbXpRy22bPhvRXH+X8rfAua0eHo3kp04AAAAAAAAAAAAAAA0vqk6w9bU9a1yyuxEcm1x108Un43vS875C02XifFueOrlH3lCzL3gp8Mc5VIdZCnDIAAAAAAAAAAAABNan6Y6yxVdz/dy/VW/7cmt/maT8xB2hj/HszEc44wkY934dcSvODTSaaaazTW9NHGcua8jRyDIAAAAAAAAAAAAEXrDpmrBUyvs5N0ILurJviivjyI342PXfuRRS1XbsW6fFKjdJ4+zE2zxFrznZLN95LiUV4Eskdnj2KbNEUU+ijuVzXVMy8xvawAAAAAAAAAAAAAACzeptrQpxjo+6XbwWVEpPu4L+TxpcXgXgOY2rgzRPxqI4Tz/APa1w8jWPBVzWCmUqwZAAAAAAAAAAAEfpnStOEqd909mK4ku6nLkjFcrNtixXeriiiOLXcuRRTrKltZNPW4+122drCOaqqTzjXD/AC3uzZ1+Fh049PhjjM85Ut+9N2rX0RJNaAAAAAAAAAAAAAAAABmEnFqUW000008mmt6aZ5qpiqNJhmJ0Wjqbr1C5Rw2LkoXLKMbpZRrt+tyRl7n7jmM/ZdVqfHa409PWFrjZcVfhr5t72imT4cjIAAAAAAA45mBr2s2uGGwKcM1bflupg96f+t/yr3+An4mBdyJ1jhHWUa9k024+qo9N6ZvxtnC3Tzy3Qgt1dce9Ff542dTi4lGPRpTzVF27VcnWUeSmoAAAAAAAAAAAAAAAAAAADY9Aa6YvB5V7SvpW7g7c24r/AES41714Csytl2r34qY0lLs5VdHCeMN/0V1QcDdkrJPDS5Vcu0801u9ORR3tlZFvlGsfRPt5lurnwbNhsXXatquyFke/XKM16Uyvqoqp/NGiTFUTyl3Hl6MwGZgdWJxVdS2rJwrj9KyUYL0s9001VcIjV5mqI5y1vSmv2ApzUbHiJckaFtRf9b7X3k6zszIuemnujV5lqn11aNpzX7F4jOFWWGre79W27mvDPk8yRdY2yLVv8Vf4p+yFdzK6/wAvBqbee972+Nve2WsUxEaQhzOoemAAAAAAAAAAAAAAAAAAAAAAABmEnF7UW4tcsXk/SjxVRTVzhmJmOT306dxkN0cXiF/dm/vZoqwrFXOiGyL9yP8AKXf8qNIc8v8AXPG7sbsh68xc7pdN2nsbPdLF4h/3Zr7me6cLHp5UQ8zfuT6o+ybk9qTcm+WTcm/OzfTRTTyhrmZnmwe/Y1kDAAAAAAAAAAAAAAAAAAAAAAAAAAAAAAAAAAAAAAAAAAAAAAAAAAAAAAAAAAAAAAAAAAAAAAAAAAAAAAAAAAAAAAAAAAAAAAAAAAAAAAAAAAAAAAAAAAAAAAAAAAAAAAAAAAAAAAAAAAAAAAAAAAAAAAAAAAAAAAAAAAAAAAAAAAAAAAAAAAAAAAAAAAAAAAAAAAAAAAAAAAAAAAAAAAAAAAAAAD//2Q==;rounded=0;" vertex="1" parent="1">
                    <mxGeometry x="1260" y="820" width="120" height="120" as="geometry"/>
                </mxCell>
                <mxCell id="21" value="KAFKA UI" style="shape=image;verticalLabelPosition=bottom;labelBackgroundColor=default;verticalAlign=top;aspect=fixed;imageAspect=0;image=data:image/png,iVBORw0KGgoAAAANSUhEUgAAAFoAAABVCAYAAADJ/vPXAAAACXBIWXMAAbybAAG8mwFQ9uauAAAGxGlUWHRYTUw6Y29tLmFkb2JlLnhtcAAAAAAAPD94cGFja2V0IGJlZ2luPSLvu78iIGlkPSJXNU0wTXBDZWhpSHpyZVN6TlRjemtjOWQiPz4gPHg6eG1wbWV0YSB4bWxuczp4PSJhZG9iZTpuczptZXRhLyIgeDp4bXB0az0iQWRvYmUgWE1QIENvcmUgNS42LWMxNDAgNzkuMTYwNDUxLCAyMDE3LzA1LzA2LTAxOjA4OjIxICAgICAgICAiPiA8cmRmOlJERiB4bWxuczpyZGY9Imh0dHA6Ly93d3cudzMub3JnLzE5OTkvMDIvMjItcmRmLXN5bnRheC1ucyMiPiA8cmRmOkRlc2NyaXB0aW9uIHJkZjphYm91dD0iIiB4bWxuczp4bXA9Imh0dHA6Ly9ucy5hZG9iZS5jb20veGFwLzEuMC8iIHhtbG5zOmRjPSJodHRwOi8vcHVybC5vcmcvZGMvZWxlbWVudHMvMS4xLyIgeG1sbnM6cGhvdG9zaG9wPSJodHRwOi8vbnMuYWRvYmUuY29tL3Bob3Rvc2hvcC8xLjAvIiB4bWxuczp4bXBNTT0iaHR0cDovL25zLmFkb2JlLmNvbS94YXAvMS4wL21tLyIgeG1sbnM6c3RFdnQ9Imh0dHA6Ly9ucy5hZG9iZS5jb20veGFwLzEuMC9zVHlwZS9SZXNvdXJjZUV2ZW50IyIgeG1wOkNyZWF0b3JUb29sPSJBZG9iZSBQaG90b3Nob3AgQ0MgMjAxOCAoTWFjaW50b3NoKSIgeG1wOkNyZWF0ZURhdGU9IjIwMjItMDItMThUMTc6NDA6MTErMDM6MDAiIHhtcDpNb2RpZnlEYXRlPSIyMDIyLTAyLTE4VDE3OjQ4OjI5KzAzOjAwIiB4bXA6TWV0YWRhdGFEYXRlPSIyMDIyLTAyLTE4VDE3OjQ4OjI5KzAzOjAwIiBkYzpmb3JtYXQ9ImltYWdlL3BuZyIgcGhvdG9zaG9wOkNvbG9yTW9kZT0iMyIgcGhvdG9zaG9wOklDQ1Byb2ZpbGU9InNSR0IgSUVDNjE5NjYtMi4xIiB4bXBNTTpJbnN0YW5jZUlEPSJ4bXAuaWlkOjlhOTQ5MWRjLTE2NmYtNDAzOC04ZWU4LTc0YzEzMzUwMDI5YyIgeG1wTU06RG9jdW1lbnRJRD0ieG1wLmRpZDphODEwNDcyZC0yMDJlLTQ2NTYtOWM2ZC0wYjA4ZDUxMWQzY2MiIHhtcE1NOk9yaWdpbmFsRG9jdW1lbnRJRD0ieG1wLmRpZDphODEwNDcyZC0yMDJlLTQ2NTYtOWM2ZC0wYjA4ZDUxMWQzY2MiPiA8eG1wTU06SGlzdG9yeT4gPHJkZjpTZXE+IDxyZGY6bGkgc3RFdnQ6YWN0aW9uPSJjcmVhdGVkIiBzdEV2dDppbnN0YW5jZUlEPSJ4bXAuaWlkOmE4MTA0NzJkLTIwMmUtNDY1Ni05YzZkLTBiMDhkNTExZDNjYyIgc3RFdnQ6d2hlbj0iMjAyMi0wMi0xOFQxNzo0MDoxMSswMzowMCIgc3RFdnQ6c29mdHdhcmVBZ2VudD0iQWRvYmUgUGhvdG9zaG9wIENDIDIwMTggKE1hY2ludG9zaCkiLz4gPHJkZjpsaSBzdEV2dDphY3Rpb249InNhdmVkIiBzdEV2dDppbnN0YW5jZUlEPSJ4bXAuaWlkOjY0Y2Q5NWVhLTRhMjEtNGEzOC04MWUzLWJmZDRhODU3MTQ2YiIgc3RFdnQ6d2hlbj0iMjAyMi0wMi0xOFQxNzo0Nzo1MCswMzowMCIgc3RFdnQ6c29mdHdhcmVBZ2VudD0iQWRvYmUgUGhvdG9zaG9wIENDIDIwMTggKE1hY2ludG9zaCkiIHN0RXZ0OmNoYW5nZWQ9Ii8iLz4gPHJkZjpsaSBzdEV2dDphY3Rpb249InNhdmVkIiBzdEV2dDppbnN0YW5jZUlEPSJ4bXAuaWlkOjlhOTQ5MWRjLTE2NmYtNDAzOC04ZWU4LTc0YzEzMzUwMDI5YyIgc3RFdnQ6d2hlbj0iMjAyMi0wMi0xOFQxNzo0ODoyOSswMzowMCIgc3RFdnQ6c29mdHdhcmVBZ2VudD0iQWRvYmUgUGhvdG9zaG9wIENDIDIwMTggKE1hY2ludG9zaCkiIHN0RXZ0OmNoYW5nZWQ9Ii8iLz4gPC9yZGY6U2VxPiA8L3htcE1NOkhpc3Rvcnk+IDwvcmRmOkRlc2NyaXB0aW9uPiA8L3JkZjpSREY+IDwveDp4bXBtZXRhPiA8P3hwYWNrZXQgZW5kPSJyIj8+8uxaegAAFD1JREFUeJzVnXmUXUWdxz+/qnvf3lsCCERDFmIwARRcg85kQBb1jAsIok6QUQQUUNTIJiOLHj0KeNRxHMDIMQIjKsp2RKOAQoDRAQVJCFEShAQCHSBLd+ftt+o3f9R7ndB0k15edyffcyrd6XdfVd3v+91f/baqJ6VSiZ1BRKhWa8SpGBSq9TqRMSiCtQZU8eqxxuK8Yoyg6vHOgwiqijEGFBBFvWKsRYDEuTCGASOmoF73U9XpIma2ojNU2VdEpgraqZABIkAAJ0gZ6PWqm0GfM8asU+/+AeYfxpoNRtjkvMd7wRqDV4eEG8J7D6qYyKIK6j3WGkQE7zzGWrz3CCCm8TdjqCcOG4V7ThJIpWNSkTSmNDSinbI8/ngD8HbgDV55vcDBiKQVBUAEoPm/l+Kl14QPFDGAeO/9ajWyAvRBkIeAe8b/VobGZBDdgXCIqi5UOEZE5gEd6FB0jgZqVHW+euYL8hERrXn1j6ryexGWAw8C3S0abFiYSKLnAe/yyudFzD6qagde8MoP38gg8pLeUqCHinCowheBTcAPBG4mkD7uMOPZeUM+5wD/6VUfUvRbAq9mEJInFKpTReQCMeYB9boUOGy8hxxPog8FrgeWi8hnREmP41ijggKqejKqdwK3AYeP11gtJ1rgVd77r3uv94vIvwF7N1/YFdFQMVkRea/3eof3/lrCU9hStIxoEUHR9zj0Xu/9BaqaaVXfEwVVtd7rScCfFT25lcLREqJFmK6q1yXO3Y7qHBEZuBiFx7QVg40jmvNWaHfOLVXVO0Tkba3ouxVEvyVx/h7vdZEggwqBKkQWrITfdwcIgnqOdN4vA44da39jIlpEjnfOLVPVGQMl+GXXAoWCIrsT2eGWOpzzNyF8cSx9jZpoRb+n6m8Eul6JZO+hraCsWGG5666Y9jY32iEnFapc7lV/KUI8mvePimiBK0DOGvYgITTApZemeX5jREe7w+2GfKvqccCN6MjJHinRBYWlIItHOtDMWZ5SUfjMZ7OUyoaODr9bkg28H2UZMH0kbzLNlXbIRtCvIkKtVr82ce5kY0Zu91gDB7wO7l1u+OzZebyDrs7dj+yGGXuEc+6nyPBDGCZxjiFbkuBV8aognKfKsaM1LZ2DegLzD4Tf32m48MIcoORzIdy420FkgTHmxzJMozV6pXi0qpLJZAFOB/mGtaO34L2HpB5W8oMOgttui2jvyHHhl8oURCmWDHZcIy+thREDuI/WE7c5FWc+E/7asMMH4T7SIWyt7ZaEvlfEXDXWidXrQapRSKVg7lz44Q9jajW49JIyUYfSs1WwkxtuGiEE1J9VKtcfi6P4SpEq1WrCYKo1SsWpQbtw3tOI634nkD4247eeCM4FiU4SiCI46EBY+qOYVAwXXliiUDBs27Z7kW2MUK0mX03F8TLv3ZO1Wo3Bnvyoo6Nj0A6KpRLOsSSKmOWcf5lLPTIopRLUqvSTmCQQx0GNXP8/MdVqjq98pUx7u9Lba3YbslWFOGYqJL9wiS4QoTaYkhhSK4rRk1H3Ce91jCQHlEpCtQ7GbvcMnYNMBua+Fq67Luass/K4BLo6g529+3iQQqXmDnXKpW1tbRQGacZ5x8uac3uq5+tmDIvfQBS3BYke+JnV6yEOcsghcPvtli98PkepZOjq9IiERXR3gKAYY8+3Uer11sYMbKZWqzGwlcqVi7zXfVsZRN66RajVgpf4kgkKJA1b+pBD4N57Iz54fIE1ayztbQ4b7R5kSyPbXywWLymVqwxsxiUJ/c05vHMzxMiiVqiLHdHXJ3j/coluoknm3ANgY7ewaFGe+++Pacsn5HK625AtyAdE/eGiCaKuv233DI1BAFX9MqqdrRhYdfvit2mzGZLkJrwPqmTOnPD74sU5bropQypW2tsD2bu83hYA9xVVj6rrbyaXz5PL58nn86QzmUM98rFWjptqWI/PPmuIhxGKUYVqFWbMgEIBzjs/w3nn5UjqSmeH779mV4bz8g5j4w/GcYpmM+VSmXKpTKlYolatnSYiLStBUCCOlFJJ6O4W4nho1TEQtRp0dsL8eXDzTRGfPDXPM88YOtod6bTid2GyG/r6bO8V5zzOeYxzjkab5Zw7qdU5VGOU5583PNctRCP4CEWCGrEWDjwYHnnEctJJBX7ykzSZtKez3eP9rrlQBmvJv6OeJAc1LTljrcFaQxRHCxGTa+mIDal74QVDX68Qj/BZEQm2tvqgt52Diy/KcMGX8vT2CZ0dnmiXtUpEbGSPRQREMEmS0GhHtdLSUIJ9DPDEPyzeQyo9Ov2qCvUa7LUXHHgQ3HJzxIknFrjvvohC3u2SurtRLHmsryexTxIMEoOkpouYo6G1ohGnwp2vXGEwZvvCOBo0VYkxMH8+PL9R+Pznclx4YY7ubkN7myOV2pUsE0VE3hDFqcOsTWGgCiTvAJnaSgdFCMF+VXjhxUYCYYzdN1WJczBzJkzdA265JebEE/Ms+22abCZYJtaySyQURBTvzDtrtRgDBmM4otVVF00burfXsLHbkG5hQZhqCErlciEopSp84XMZzj03z8MPRxTyvt+FH6t0q46+D0XAuHdGUT1tjI06wbxjbNN5OcIaoPz1EUt3t9A5pfWLlvdQLsPee8OsWbBsmeWUT+S4+JIs3d2WtoKjrc2jOvKxm+9Jp6GjvfGUjHT+KiD6xnTWzjCRMdOA2UMlAEaNhpp48AFLpQLZzPjoTpFgc6fSsP/+sNer4OabYo4/Ps9VV2WplIWO9u0L5nDIci6ovc4OTybtefzxiGKJUTyVCkpaPfOMIvNVNWqpxaGQyyrFovDXv0Z0dIy/zmza1NksHHAApDPw7W+n+MTHCyxdmuHJpyztbZ6uDo+NFB1k0WxKcWeHUih4Hnoo4swzcxz3wRy1ipDL6KiExTv3hsirn9/qAJL3EFnlvgci/rba8OrXTNzipBokfEoXdLTD+vXCZZelWbo0xQePr3PccXWm7ZtAVihXhFpN+r1Ma2jUnAjf/EaWG34as+ZxWLy4zrRpjlJl5/GaQeeEzou889OlWeHSohsNMQ1l+b0xLgkm2UQ7FfVGInjvfWDPvWDbNmHJkhQ3/jzFu99d54QP1dh/tiObUZJEqCdCNuNYuzbi4oszrFxhiSI49E3wxXMqiIQYzEgTyI17nxYJ8hrBhxWyBVCFfM7z7HOWu++O6ZoyeXZt02IQgfZ2mDoVtmyBG34Sc/uvYxYsSHjzGx1HHVWna4rnpzdkuOzyNCIwazY88QR8cXGVri6lt88winIWvApipBAh7KHaIpIJTokIXHdtiqeehEPfGF6b7NoN1ZDh6egIbfMmuOvOiGW/ifjlTSmm7eu5Z7ml0AbTXwN/+hOcemqd446rUCwFz3Zg0mI4CJvKNBsBba27G8ikFeeEhx+OSBw89dR2afJ+kh0J2f6Bd02Bjs4wn40bhXXrLPvsA21tsGIFLFjgWby4jFfp90jHgLT09PZtAPYd8000YGwIAm3eZNiwwfCHuy333xezYUNIxO6xRzCTml7eroBG3IcoCoKRTiu33Vakq8uzZWtLMvLPSU9vXzfwqjF31UAzXdXR7mlsleX5jZY77rLcfXeKBx8IotHVFUj3PkhZiw2fESOOYdMm6O6GK68ss3BhnZ7eMNcWzG2j9PT2PQvsM+auBqC5AEYR5HNKCFgZfvvbmNtvj3noYUtfL+y3X5D0Wq3VMxg+rA0f9uNr4OKLK3z4xCrbira/4KcF6Jae3r5/ADNb0t0QUG0ulEouEz6BJ56wLFmS5te/jshmYdq0cO1Em4HGBFNw5Uo459waZ55RplwxVKsyVr28I56Wnt6+R4CDW9blK6CpVlIpJdsg/J7lMd/5ToaVK4S5cyGfD/bqRKgSkUD0X/4CxxzjuPrqItWaUCyOLBs0DDxhQDa3PM4xBIxpxiaErb2GSlVY+M81rr12Gyd9rM66dbB5c9CX4z0lkTDO2rVw9NGeK74VqmrL5ZaTjIiUjYg+09puhzMwmAbhW3os2SxcfFGJL19cZdOLsK1Iy2924PhRBKtWwdy5nu9/fxttBWXLVtNKdQGE0mdVLRojZv1kbmu1JrjH5YrlxBPKnHZ6jbVrtj/W44E4htWroatLueKKMnGs9IxnYaVItwFWT7ZpZUzQy14tp51W4cgjHevXt15PiwQb/qknYeZM5Zprikyf7ujpHd/SVYFVRtWvCi7G5MIY6OkRrFXOOKMKQG9v68gWCWbc3/8ObW3Kj35UZO5c10pbeYhxBfX+USPIOpCnWncoyRgmZcCrYdZsx8wZnkq5Rf02dPLfVger5nv/VWKPPRy9fbb/9fFAg1Mn8KhxLt4M5oHJVh9NhO3MGkoTWtBfMCeDJB90sOf664vMmxfUxSsVXbYECiKyIkqlnjBxLBgj90y+8mgkdI3y4ouGZ56RYdXqvRJso+j9L3+BmTM9S5YUmTkz6VcX47XY7giBe0R9yYjxRFbuFJG+yVQfqpBqJAxuvTXN5s1Ce/voC26iKHh8q1fDwn9xXPvjEoWCsrXX9geRxhPNaQvyO+ccplo1VKvxWjD3ikwu0fmcY+XKmCVLYvbZh1FJtGpI1Farwa0+5ZM1rvlhkY5Oz9YeM3GGbDiCbnUqk7onTqcxxjqMrWON/Gqy1IcqFPLKqlUR55+fpVAIMezRJAvSadjYDY8+CmedVefccyrUarClx/R7phMBVSUy9tdxZEtxZIki2y/Fy8WbhEk6Cy+K4PE1lqeeFGbvP/JonrWhjzVrgmXxzcsqfOiEKtWqoVhqvVu9M4QNn3JjpVIHFNOs33XOrwJ+MVFxjx0hAsWS8P731Vh0Up0NG4bvgu+4q+DRldDZqVx1VZEPnVClUjWUKxNPcpiXPpT45IFavU6tnmDqSUKzee+/39z0MtFIGtnyww5zpOIg0Tt7zJumW7EY9PGb3+L52U+LzJ+f0NtnWx3qHDa898Tp+Mo4FWucjojTEVGhkO+/wBi5r1qt31Kr1T7Q6lqP4WLPvTyZTFjM8vnBrY6mFEcRrF8H27bB2Z+rcsYZVQRly1Y7ofp4R3jvsZF9OJvJXL/j8NGOboF6MEb+Q0T+tdXVSztDc6iNGw3VGhTahiY5igGFxx6DKVOU73ytwpFH1lCErT2TR3ITBvlqvV6v9Nc6AFG1Uh143SqBGxROmvAZojz+d6FchPS0cBrCjhCBOIKtPUGSFyxwfP0bZfbdJ7jToy0JaCWsMXd5726tlF9qMslgx0iosn/i3AogOxGTcw7a25V6DU45Jc/TTxv22BO8658PqVTI0KxdC9kcnHVmlY98pIq10NNrUBhVgUsr4cNBBQuB5QNfM/1u0g5NjFmLMRfpBGx9aupbaxzXX5/mkUcMe+5AMoSCxZ4eePhhmD3b84OrSyxaVAERtvY03OlJJllViSJ7bRxHy+MoYmCTcqUy1HttrV6/3Tl/jB3H51E1lCaseizi3z+Wo609bHtrqgFVePrpsPCdcHydT51RJp+Dvm0G5yZfVUAzi8KaQj67ILJ2kx9kcZFK9WU6OrwggnduSrVWXwXsPR4Lo2ucq7Rli3DssW0Ut8HMWcHUsxZefBGe3QBvfavjyxdVmDMnwauht1cmJF4xHCig3hetsYdns5kHrTWDmsdDyoOqIsZsjqy9wI9DDYBzkMuFgzQvvyJDdzfMmNnYhF8PLnRxG5z9+RrXXldkzpyEbUVDX59MulXxEqhijbncGvOg98H58/7lbac+U5yKlwIz64m7aDSngw0Gr5DPK6nYc9llOW69JWb+/KAm1q2DShne/Z6EU0+t8roD6tRqllJ5YmMVO4MALpSr3hanUldAWAydcwyWgx1SdfRfIIIRQ7lSvdr55LTgw48e3kM6o2TTnssvz/LfV6aYPy/sRVm/Hg48UDnn3AqHLQi2XW9f0MW72ok06hWx5g4RjomM1Z0eGbozogGssdSSutRqteVGRr+xyHuIYyWfc/zqV1nOPTfN1KnQ1xd2WH34IzVO+USVfN5TqYa6j1ZsmxsPeO/XRDZ6O4YXrJidntIz7HCLhqzAh4FrgGNGPrEmyZ6bb8lx/nmp/lTSokV1jj++xowZDudDrYc1k2+yDQ15RJCPAi8M+x3DlehqvU69XsOIMSrcKJ7jhhtF9xo8unzO8YMfZDn99BRz5sDJJ9dZtKjGfvsFo7mnz+B3QTUxAH8CeZ96/4K1FgwMR6JHQzQqmrZqbvDoscOZmRjIZz2/+U2KT386w1FHOc4+u8bBBwc9XCyZ/iD/rqgmdsD9qJ6AmOfCF+QMn+jRRWqVqhg5DucXI3LFjsGTl12qkE0r3Rstzz5rWbasxLx5gdVtRdMfHt21CRZEuErQc73SN6oeRiXRaOPrmjzWmg95569RpfBKZCUOpnQGu7lYNNQTdhmnY+eQzxnhu6B4ryCGkUp0KxzYnxtjjhHhD0Nd0Mxwl8pCT68hcbuDFIOq/tkYcwLw3bH21aovU/hfVTlCVT8lotWBHmjz/LpkN5DipvsscImqfzOqv2hFv60OyVwNcoiI/Gwy0mFjhaoiIsuNMQsVLm1l3+MR+1oNfNga834RuUMDxmGY1kA1/GOQ/zNiPi7C4TJIPHmsGM8g423A0dbad9koumVXJFtVsdbcI8Z+1ClvQ3QprT6Gp4HxjeaGR/F3InKsiPyTBK+yOK5j7mxK4UcFuNWIvNdaOVpEbhjvcSem4iFsy7pPjNxnjHzNeb8A5Qjgn1BeO151WmGXYz/WA380IneLsNx7fQwGP718PDAZVUlPAk8q/MSIdIrhCK/6JvX6FhEOBtlztB2/hFiRosBKVf2jiKwwcKfXid+v08TkfhWqshXhJuAmwALTRWSGiMxT9bOBWV51L0HSQJow32YkxAMJ4fStmoi8APqUEfMk8Kj3fr0Rs96jO/9S3QnA/wOvcJbPmg9EtQAAAABJRU5ErkJggg==;spacingBottom=550;spacing=-100;" vertex="1" parent="1">
                    <mxGeometry x="452.25" y="200" width="84.7" height="80" as="geometry"/>
                </mxCell>
                <mxCell id="22" value="" style="shape=link;html=1;entryX=0.5;entryY=1;entryDx=0;entryDy=0;strokeWidth=3;" edge="1" parent="1" source="5" target="21">
                    <mxGeometry width="100" relative="1" as="geometry">
                        <mxPoint x="220.77" y="272.5" as="sourcePoint"/>
                        <mxPoint x="482.77" y="199.5" as="targetPoint"/>
                        <Array as="points"/>
                    </mxGeometry>
                </mxCell>
                <mxCell id="23" value="MONITORING" style="edgeLabel;html=1;align=center;verticalAlign=middle;resizable=0;points=[];" vertex="1" connectable="0" parent="22">
                    <mxGeometry x="0.1097" y="-2" relative="1" as="geometry">
                        <mxPoint as="offset"/>
                    </mxGeometry>
                </mxCell>
            </root>
        </mxGraphModel>
    </diagram>
</mxfile>